<svg width="34" height="30" viewBox="0 0 34 30" fill="none" xmlns="http://www.w3.org/2000/svg">
<path d="M17 23V11M23 17L11 17" stroke="#3B6BE9"/>
<path fill-rule="evenodd" clip-rule="evenodd" d="M5.27818 28.9831C4.91136 28.9831 4.5573 28.8459 4.28314 28.5977L1.50129 26.0793C0.995131 25.621 0.853856 24.8739 1.15672 24.257L3.46774 19.5494L2.57467 19.0946L0.263643 23.8022C-0.241123 24.8304 -0.00566357 26.0756 0.837931 26.8393L3.61979 29.3578C4.07672 29.7715 4.66682 30 5.27818 30H10.0106V28.9831H5.27818ZM23.9894 30H28.7218C29.3332 30 29.9233 29.7715 30.3802 29.3578L33.1621 26.8393C34.0057 26.0756 34.2411 24.8304 33.7364 23.8022L31.4253 19.0946L30.5323 19.5494L32.8433 24.257C33.1461 24.8739 33.0049 25.621 32.4987 26.0793L29.7169 28.5977C29.4427 28.8459 29.0886 28.9831 28.7218 28.9831H23.9894V30ZM13.3855 1.23782L11.5791 4.31536L12.4361 4.83718L14.2425 1.75964C14.5129 1.29899 15.0011 1.01695 15.528 1.01695H19.4705C19.9974 1.01695 20.4856 1.29899 20.756 1.75964L22.5624 4.83718L23.4194 4.31536L21.613 1.23782C21.1623 0.470066 20.3487 0 19.4705 0H15.528C14.6498 0 13.8361 0.470068 13.3855 1.23782Z" fill="#3B6BE9"/>
</svg>
