<svg width="90.000000" height="90.000000" viewBox="0 0 90 90" fill="none" xmlns="http://www.w3.org/2000/svg" xmlns:xlink="http://www.w3.org/1999/xlink">
	<desc>
			Created with Pixso.
	</desc>
	<defs/>
	<rect id="Rectangle 215" rx="16.000000" width="90.000000" height="90.000000" fill="#6791FF" fill-opacity="1.000000"/>
	<path id="Vector" d="M44.99 31.74C37.41 31.74 31.23 37.91 31.23 45.5C31.23 53.08 37.41 59.26 44.99 59.26C52.58 59.26 58.75 53.08 58.75 45.5C58.75 37.91 52.58 31.74 44.99 31.74ZM50.98 53.16C51.45 53.25 51.76 53.7 51.67 54.17C51.58 54.63 51.13 54.94 50.67 54.86L48.28 54.41C47.81 54.32 47.5 53.87 47.59 53.41L48.04 51.01C48.12 50.55 48.57 50.24 49.04 50.33C49.51 50.41 49.82 50.86 49.73 51.33L49.67 51.63C51.56 50.19 52.73 47.92 52.73 45.5C52.73 41.52 49.72 38.23 45.85 37.8L45.85 41.63L47.14 41.63C47.62 41.63 48 42.01 48 42.49C48 42.96 47.62 43.35 47.14 43.35L44.21 43.35C43.93 43.35 43.7 43.57 43.7 43.86C43.7 44.08 43.86 44.28 44.08 44.35L46.38 44.99C47.33 45.26 48 46.14 48 47.14C48 48.34 47.05 49.31 45.85 49.36L45.85 54.1C45.85 54.57 45.47 54.96 44.99 54.96C39.78 54.96 35.53 50.71 35.53 45.5C35.53 42.48 37 39.66 39.38 37.89L39 37.83C38.54 37.74 38.23 37.29 38.32 36.82C38.4 36.36 38.85 36.05 39.32 36.13L41.71 36.58C42.18 36.67 42.49 37.12 42.4 37.59L41.95 39.98C41.87 40.44 41.41 40.75 40.95 40.66C40.48 40.58 40.17 40.13 40.26 39.66L40.32 39.36C38.43 40.8 37.25 43.07 37.25 45.49C37.25 49.47 40.27 52.76 44.13 53.19L44.13 49.37L42.84 49.37C42.37 49.37 41.98 48.98 41.98 48.51C41.98 48.03 42.37 47.65 42.84 47.65L45.78 47.65C46.06 47.65 46.28 47.42 46.28 47.14C46.28 46.91 46.13 46.71 45.91 46.65L43.61 46C42.66 45.73 41.98 44.85 41.98 43.85C41.98 42.65 42.94 41.68 44.13 41.63L44.13 36.9C44.13 36.42 44.52 36.03 44.99 36.03C50.21 36.03 54.45 40.28 54.45 45.5C54.45 48.51 52.99 51.33 50.61 53.1L50.98 53.16Z" fill="#FFFFFF" fill-opacity="1.000000" fill-rule="nonzero"/>
	<path id="Vector" d="M65.71 41.2C64.01 41.06 62.61 40.04 61.97 38.47C61.31 36.9 61.58 35.19 62.68 33.89C62.97 33.55 62.95 33.04 62.63 32.72L57.77 27.86C57.45 27.54 56.94 27.52 56.6 27.81C55.3 28.91 53.6 29.18 52.02 28.53C50.45 27.88 49.43 26.48 49.29 24.78C49.25 24.34 48.88 24 48.44 24L41.56 24C41.11 24 40.74 24.34 40.7 24.78C40.56 26.48 39.54 27.88 37.97 28.53C36.4 29.17 34.68 28.91 33.39 27.81C33.05 27.52 32.54 27.54 32.22 27.86L27.36 32.72C27.04 33.04 27.02 33.55 27.31 33.89C28.41 35.19 28.68 36.9 28.03 38.47C27.38 40.04 25.98 41.06 24.28 41.2C23.84 41.24 23.5 41.61 23.5 42.05L23.5 48.94C23.5 49.38 23.84 49.75 24.28 49.79C25.98 49.93 27.38 50.95 28.03 52.52C28.68 54.09 28.41 55.8 27.31 57.1C27.02 57.44 27.04 57.95 27.36 58.27L32.22 63.13C32.54 63.45 33.05 63.47 33.39 63.18C34.69 62.08 36.4 61.81 37.97 62.47C39.54 63.11 40.56 64.51 40.7 66.21C40.74 66.65 41.11 67 41.56 67L48.44 67C48.88 67 49.25 66.65 49.29 66.21C49.43 64.51 50.45 63.11 52.02 62.47C53.59 61.81 55.3 62.08 56.6 63.18C56.94 63.47 57.45 63.45 57.77 63.13L62.63 58.27C62.95 57.95 62.97 57.44 62.68 57.1C61.58 55.8 61.31 54.09 61.97 52.52C62.61 50.95 64.01 49.93 65.71 49.79C66.15 49.75 66.5 49.38 66.5 48.94L66.5 42.05C66.5 41.61 66.15 41.24 65.71 41.2ZM44.99 60.98C36.46 60.98 29.51 54.03 29.51 45.5C29.51 36.96 36.46 30.02 44.99 30.02C53.53 30.02 60.48 36.96 60.48 45.5C60.48 54.03 53.53 60.98 44.99 60.98Z" fill="#FFFFFF" fill-opacity="1.000000" fill-rule="nonzero"/>
</svg>
