<svg width="90.000000" height="90.000000" viewBox="0 0 90 90" fill="none" xmlns="http://www.w3.org/2000/svg" xmlns:xlink="http://www.w3.org/1999/xlink">
	<desc>
			Created with Pixso.
	</desc>
	<defs/>
	<rect id="Rectangle 214" rx="16.000000" width="90.000000" height="90.000000" fill="#6791FF" fill-opacity="1.000000"/>
	<path id="Vector" d="M51.2 34.87C49.71 34.53 48.54 33.35 48.2 31.86L41.79 31.86C41.45 33.35 40.28 34.53 38.79 34.87L38.79 38.55C38.79 42.24 41.39 45.36 45 46.04C48.6 45.36 51.2 42.24 51.2 38.55L51.2 34.87ZM48.28 37.81L44.74 41.36C44.38 41.71 43.81 41.69 43.48 41.36C43.48 41.36 41.71 39.59 41.71 39.59C41.36 39.24 41.36 38.68 41.71 38.33C42.05 37.99 42.62 37.99 42.96 38.33L44.11 39.48L47.03 36.56C47.37 36.21 47.94 36.21 48.28 36.56C48.63 36.9 48.63 37.47 48.28 37.81Z" fill="#FFFFFF" fill-opacity="1.000000" fill-rule="nonzero"/>
	<path id="Vector" d="M64.51 58.47C63.35 58.47 62.38 59.22 62.01 60.25L47.49 60.25C47.22 59.5 46.63 58.91 45.88 58.64L45.88 51.38L49.43 51.38L49.43 55.81C49.43 56.3 49.83 56.7 50.32 56.7L54.92 56.7C55.28 57.73 56.26 58.47 57.41 58.47C58.88 58.47 60.07 57.28 60.07 55.81C60.07 54.34 58.88 53.15 57.41 53.15C56.26 53.15 55.28 53.89 54.92 54.93L51.2 54.93L51.2 51.38L57.41 51.38C62.79 51.38 67.17 47 67.17 41.62C67.17 36.5 63.2 32.28 58.12 31.9C57.78 30.17 56.96 28.62 55.7 27.37C53.52 25.18 50.36 24.3 47.38 25.01C45.68 23.71 43.59 23 41.45 23C36.35 23 32.16 26.92 31.73 31.9C26.74 32.33 22.82 36.53 22.82 41.62C22.82 47 27.2 51.38 32.58 51.38L38.79 51.38L38.79 54.93L35.08 54.93C34.71 53.89 33.73 53.15 32.58 53.15C31.11 53.15 29.92 54.34 29.92 55.81C29.92 57.28 31.11 58.47 32.58 58.47C33.73 58.47 34.71 57.73 35.08 56.7L39.67 56.7C40.16 56.7 40.56 56.3 40.56 55.81L40.56 51.38L44.11 51.38L44.11 58.64C43.36 58.91 42.77 59.5 42.5 60.25L27.98 60.25C27.61 59.22 26.64 58.47 25.48 58.47C24.01 58.47 22.82 59.67 22.82 61.13C22.82 62.6 24.01 63.79 25.48 63.79C26.64 63.79 27.61 63.05 27.98 62.02L42.5 62.02C42.86 63.05 43.84 63.79 45 63.79C46.15 63.79 47.13 63.05 47.49 62.02L62.01 62.02C62.38 63.05 63.35 63.79 64.51 63.79C65.98 63.79 67.17 62.6 67.17 61.13C67.17 59.67 65.98 58.47 64.51 58.47L64.51 58.47ZM44.99 47.83C44.95 47.83 44.89 47.83 44.85 47.82C40.31 47.05 37.01 43.15 37.01 38.55L37.01 34.08C37.01 33.59 37.41 33.2 37.9 33.2C39.12 33.2 40.12 32.2 40.12 30.98C40.12 30.49 40.51 30.09 41 30.09L48.99 30.09C49.48 30.09 49.87 30.49 49.87 30.98C49.87 32.2 50.87 33.2 52.09 33.2C52.58 33.2 52.98 33.59 52.98 34.08L52.98 38.55C52.98 43.15 49.68 47.05 45.14 47.82C45.09 47.83 45.04 47.83 44.99 47.83L44.99 47.83Z" fill="#FFFFFF" fill-opacity="1.000000" fill-rule="nonzero"/>
</svg>
