<svg width="90.000000" height="90.000000" viewBox="0 0 90 90" fill="none" xmlns="http://www.w3.org/2000/svg" xmlns:xlink="http://www.w3.org/1999/xlink">
	<desc>
			Created with Pixso.
	</desc>
	<defs/>
	<rect id="Rectangle 207" rx="16.000000" width="90.000000" height="90.000000" fill="#6791FF" fill-opacity="1.000000"/>
	<path id="Vector" d="M36.19 60.74C37.21 62.5 38.74 63.93 40.58 64.82C39.9 63.7 39.34 62.32 38.96 60.74L36.19 60.74Z" fill="#FFFFFF" fill-opacity="1.000000" fill-rule="nonzero"/>
	<path id="Vector" d="M38.37 55.65C38.37 54.59 38.45 53.57 38.58 52.59L35.28 52.59C34.97 53.56 34.81 54.59 34.81 55.65C34.81 56.71 34.97 57.74 35.28 58.71L38.58 58.71C38.45 57.73 38.37 56.71 38.37 55.65Z" fill="#FFFFFF" fill-opacity="1.000000" fill-rule="nonzero"/>
	<path id="Vector" d="M43.98 65.53L43.98 60.74L41.06 60.74C41.73 63.17 42.83 64.88 43.98 65.53Z" fill="#FFFFFF" fill-opacity="1.000000" fill-rule="nonzero"/>
	<path id="Vector" d="M40.41 55.65C40.41 56.73 40.49 57.76 40.63 58.71L43.98 58.71L43.98 52.59L40.63 52.59C40.49 53.54 40.41 54.57 40.41 55.65Z" fill="#FFFFFF" fill-opacity="1.000000" fill-rule="nonzero"/>
	<path id="Vector" d="M41.06 50.56L43.98 50.56L43.98 45.77C42.83 46.42 41.72 48.13 41.06 50.56Z" fill="#FFFFFF" fill-opacity="1.000000" fill-rule="nonzero"/>
	<path id="Vector" d="M40.58 46.48C38.74 47.37 37.21 48.8 36.19 50.56L38.96 50.56C39.34 48.98 39.9 47.6 40.58 46.48Z" fill="#FFFFFF" fill-opacity="1.000000" fill-rule="nonzero"/>
	<path id="Vector" d="M51.11 20L38.88 20L38.88 24.07L51.11 24.07L51.11 20Z" fill="#FFFFFF" fill-opacity="1.000000" fill-rule="nonzero"/>
	<path id="Vector" d="M36.84 20.59L33.07 24.37C32.88 24.56 32.77 24.82 32.77 25.09L32.77 34.26L36.84 34.26L36.84 20.59Z" fill="#FFFFFF" fill-opacity="1.000000" fill-rule="nonzero"/>
	<path id="Vector" d="M57.22 25.09C57.22 24.82 57.11 24.56 56.92 24.37L53.14 20.59L53.14 34.26L57.22 34.26L57.22 25.09Z" fill="#FFFFFF" fill-opacity="1.000000" fill-rule="nonzero"/>
	<path id="Vector" d="M49.41 46.48C50.09 47.6 50.65 48.98 51.03 50.56L53.8 50.56C52.78 48.8 51.25 47.37 49.41 46.48Z" fill="#FFFFFF" fill-opacity="1.000000" fill-rule="nonzero"/>
	<path id="Vector" d="M64.98 65.39L62.74 40.01C62.55 37.91 60.79 36.29 58.68 36.29L31.31 36.29C29.2 36.29 27.44 37.91 27.25 40.01L25.02 65.39C24.75 68.37 27.1 70.93 30.09 70.93L59.9 70.93C62.89 70.93 65.24 68.37 64.98 65.39ZM33.79 39.35L37.86 39.35C38.43 39.35 38.88 39.81 38.88 40.37C38.88 40.93 38.43 41.39 37.86 41.39L33.79 41.39C33.23 41.39 32.77 40.93 32.77 40.37C32.77 39.81 33.23 39.35 33.79 39.35ZM45 67.87C38.25 67.87 32.77 62.39 32.77 55.65C32.77 48.91 38.25 43.42 45 43.42C51.74 43.42 57.22 48.91 57.22 55.65C57.22 62.39 51.74 67.87 45 67.87ZM56.2 41.39L52.13 41.39C51.56 41.39 51.11 40.93 51.11 40.37C51.11 39.81 51.56 39.35 52.13 39.35L56.2 39.35C56.76 39.35 57.22 39.81 57.22 40.37C57.22 40.93 56.76 41.39 56.2 41.39Z" fill="#FFFFFF" fill-opacity="1.000000" fill-rule="nonzero"/>
	<path id="Vector" d="M51.62 55.65C51.62 56.71 51.54 57.73 51.41 58.71L54.71 58.71C55.02 57.74 55.18 56.71 55.18 55.65C55.18 54.59 55.02 53.56 54.71 52.59L51.41 52.59C51.54 53.57 51.62 54.59 51.62 55.65Z" fill="#FFFFFF" fill-opacity="1.000000" fill-rule="nonzero"/>
	<path id="Vector" d="M46.01 65.53C47.16 64.88 48.26 63.17 48.93 60.74L46.01 60.74L46.01 65.53Z" fill="#FFFFFF" fill-opacity="1.000000" fill-rule="nonzero"/>
	<path id="Vector" d="M46.01 45.77L46.01 50.56L48.93 50.56C48.26 48.13 47.16 46.42 46.01 45.77Z" fill="#FFFFFF" fill-opacity="1.000000" fill-rule="nonzero"/>
	<path id="Vector" d="M49.41 64.82C51.25 63.93 52.78 62.5 53.8 60.74L51.03 60.74C50.65 62.31 50.09 63.7 49.41 64.82Z" fill="#FFFFFF" fill-opacity="1.000000" fill-rule="nonzero"/>
	<path id="Vector" d="M49.36 52.59L46.01 52.59L46.01 58.71L49.36 58.71C49.5 57.76 49.58 56.73 49.58 55.65C49.58 54.57 49.5 53.54 49.36 52.59Z" fill="#FFFFFF" fill-opacity="1.000000" fill-rule="nonzero"/>
</svg>
