<svg width="351.000000" height="234.000000" viewBox="0 0 351 234" fill="none" xmlns="http://www.w3.org/2000/svg" xmlns:xlink="http://www.w3.org/1999/xlink">
	<desc>
			Created with Pixso.
	</desc>
	<defs/>
	<path id="Rectangle 263" d="M339 234L12 234C5.37 234 0 228.62 0 222L0 12C0 5.37 5.37 0 12 0L105.44 0C107.92 0 110.33 0.76 112.36 2.19L129.38 14.18C131.41 15.61 133.82 16.37 136.3 16.37L339 16.37C345.62 16.37 351 21.75 351 28.38L351 222C351 228.62 345.62 234 339 234Z" fill="#F4F7FF" fill-opacity="1.000000" fill-rule="evenodd"/>
	<circle id="Ellipse 11" cx="27.000000" cy="27.000000" r="7.000000" fill="#FFFFFF" fill-opacity="1.000000"/>
	<circle id="Ellipse 12" cx="51.000000" cy="27.000000" r="7.000000" fill="#FFFFFF" fill-opacity="1.000000"/>
	<circle id="Ellipse 13" cx="75.000000" cy="27.000000" r="7.000000" fill="#3B6BE9" fill-opacity="1.000000"/>
</svg>
