<svg width="351.000000" height="285.000000" viewBox="0 0 351 285" fill="none" xmlns="http://www.w3.org/2000/svg" xmlns:xlink="http://www.w3.org/1999/xlink">
	<desc>
			Created with Pixso.
	</desc>
	<defs/>
	<path id="Rectangle 263" d="M339 285L12 285C5.37 285 0 279.62 0 273L0 12C0 5.37 5.37 0 12 0L104.8 0C107.67 0 110.44 1.02 112.62 2.89L129.12 17.05C131.3 18.92 134.07 19.95 136.94 19.95L339 19.95C345.62 19.95 351 25.32 351 31.95L351 273C351 279.62 345.62 285 339 285Z" fill="#F4F7FF" fill-opacity="1.000000" fill-rule="evenodd"/>
	<circle id="Ellipse 11" cx="27.000000" cy="30.000000" r="7.000000" fill="#FFFFFF" fill-opacity="1.000000"/>
	<circle id="Ellipse 12" cx="51.000000" cy="30.000000" r="7.000000" fill="#FFFFFF" fill-opacity="1.000000"/>
	<circle id="Ellipse 13" cx="75.000000" cy="30.000000" r="7.000000" fill="#3B6BE9" fill-opacity="1.000000"/>
</svg>
