<svg width="351.000000" height="235.000000" viewBox="0 0 351 235" fill="none" xmlns="http://www.w3.org/2000/svg" xmlns:xlink="http://www.w3.org/1999/xlink">
	<desc>
			Created with Pixso.
	</desc>
	<defs/>
	<path id="Rectangle 263" d="M339 235L12 235C5.37 235 0 229.62 0 223L0 12C0 5.37 5.37 0 12 0L104.64 0C107.61 0 110.47 1.09 112.67 3.08L129.07 17.84C131.27 19.83 134.13 20.92 137.1 20.92L339 20.92C345.62 20.92 351 26.3 351 32.92L351 223C351 229.62 345.62 235 339 235Z" fill="#3064EA" fill-opacity="1.000000" fill-rule="evenodd"/>
	<circle id="Ellipse 11" cx="27.000000" cy="27.000000" r="7.000000" fill="#CEDCFF" fill-opacity="1.000000"/>
	<circle id="Ellipse 12" cx="51.000000" cy="27.000000" r="7.000000" fill="#6791FF" fill-opacity="1.000000"/>
	<circle id="Ellipse 13" cx="75.000000" cy="27.000000" r="7.000000" fill="#6791FF" fill-opacity="1.000000"/>
</svg>
