<svg width="80" height="80" viewBox="0 0 80 80" fill="none" xmlns="http://www.w3.org/2000/svg">
<rect width="80" height="80" rx="24" fill="#3B6BE9"/>
<path d="M63.2025 53.4406C61.1562 51.4603 51.6884 41.7787 49.396 39.6883L44.5897 37.5112C43.9524 37.1984 43.2117 37.9255 43.5324 38.5697L45.7069 43.3816C45.7463 43.4707 45.8021 43.5494 45.8704 43.6177L59.4433 57.2062C61.9841 59.6236 65.6256 55.9841 63.2048 53.4404L63.2025 53.4406ZM47.9373 43.4252L49.4373 41.9234L58.6754 51.1721L57.1753 52.6738L47.9373 43.4252ZM45.862 39.8458L48.1938 40.9022L46.9172 42.1803L45.862 39.8458ZM62.0711 56.0735C61.6573 56.4878 60.9848 56.4878 60.5711 56.0735L58.3055 53.8053L59.8055 52.3035L62.069 54.5717C62.4808 54.9674 62.4808 55.6778 62.069 56.0735H62.0711Z" fill="white"/>
<path d="M55.5144 54.738H40.1147C40.4541 53.6919 41.4265 52.9297 42.5831 52.9297H52.1088C52.5515 52.9297 52.9095 52.5713 52.9095 52.128C52.9095 51.6847 52.5515 51.3264 52.1088 51.3264H42.5831C41.6024 51.3264 40.6982 51.6661 39.9823 52.2316L39.9803 25.5499L57.0972 24.6012C57.4986 24.6012 57.8255 24.9243 57.8255 25.3221V46.5954C57.8255 47.0387 58.1834 47.397 58.6262 47.397C59.0689 47.397 59.4269 47.0387 59.4269 46.5954V27.9072H60.0435C60.4407 27.9072 60.7635 28.2345 60.7635 28.6363V49.5326C60.7718 50.5766 62.3505 50.5911 62.3629 49.5326V28.6363C62.3629 27.352 61.3222 26.306 60.0435 26.306H59.4269V25.32C59.4269 24.0398 58.382 22.9979 57.0557 23L39.1671 23.9901L21.2636 23.0021C19.9829 23.0021 18.9401 24.0461 18.9401 25.3283V26.3101H18.3235C17.0428 26.3101 16 27.3541 16 28.6363V54.013C16 55.2952 17.0428 56.3392 18.3235 56.3392C18.3277 56.3433 39.173 56.335 39.1773 56.3412H55.5166C56.5656 56.3184 56.5718 54.7628 55.5166 54.74L55.5144 54.738ZM29.6616 25.0693L31.5693 25.1749V27.4369C31.1741 27.1614 30.6527 26.745 30.1727 27.0972L29.6617 27.439L29.6616 25.0693ZM20.537 25.3282C20.537 24.9284 20.8618 24.6032 21.2156 24.6011L28.0621 24.9802V28.9304C28.0435 29.5497 28.7987 29.9557 29.3057 29.5974L30.6174 28.7253L31.9292 29.5974C32.4341 29.9578 33.1913 29.5497 33.1727 28.9304V25.2619L38.3784 25.5498V52.2294C37.6625 51.6639 36.7584 51.3262 35.7776 51.3262H21.2635C20.8642 51.3262 20.5394 51.001 20.5394 50.6012L20.537 25.3282ZM17.5969 54.0112V28.6345C17.5969 28.2347 17.9217 27.9095 18.321 27.9095H18.9376V50.5998C18.9376 51.882 19.9804 52.9259 21.2611 52.9259H35.7752C36.9318 52.9259 37.9022 53.6882 38.2415 54.7343L18.321 54.7364C17.9217 54.7364 17.5969 54.4109 17.5969 54.0112Z" fill="white"/>
<path d="M23.4504 32.8259H36.1107C37.1597 32.8093 37.1638 31.2433 36.1107 31.2247H23.4504C22.4035 31.2413 22.3952 32.8073 23.4504 32.8259Z" fill="white"/>
<path d="M23.4504 36.3234H36.1107C37.1597 36.3068 37.1638 34.7408 36.1107 34.7222H23.4504C22.4035 34.7387 22.3952 36.3047 23.4504 36.3234Z" fill="white"/>
<path d="M23.4504 39.8208H36.1107C37.1597 39.8042 37.1638 38.2382 36.1107 38.2196H23.4504C22.4035 38.2362 22.3952 39.8022 23.4504 39.8208Z" fill="white"/>
<path d="M23.4504 43.3163H36.1107C37.1597 43.2997 37.1638 41.7337 36.1107 41.7151H23.4504C22.4035 41.7317 22.3952 43.2977 23.4504 43.3163Z" fill="white"/>
<path d="M23.4504 46.8137H29.7816C30.8306 46.7971 30.8348 45.2291 29.7816 45.2125H23.4504C22.4014 45.2291 22.3973 46.7972 23.4504 46.8137Z" fill="white"/>
</svg>
