<svg width="80" height="80" viewBox="0 0 80 80" fill="none" xmlns="http://www.w3.org/2000/svg">
<rect width="80" height="80" rx="24" fill="#3B6BE9"/>
<path d="M59.5933 53.4482C59.5987 53.4464 56.3056 45.5911 56.3093 45.5879V30.4693C56.3093 30.0708 55.9852 29.748 55.5851 29.748C55.185 29.748 54.8609 30.0708 54.8609 30.4693V45.009H24.7939V23.2488C24.7939 23.1767 24.841 23.1262 24.9098 23.1262H42.7025C43.6494 23.1208 43.6566 21.6944 42.7025 21.6836H24.9098C24.048 21.6836 23.3456 22.3851 23.3456 23.2488V45.575L20.0561 53.4445C20.0217 53.5256 20.0072 53.6122 20.0054 53.6969C20.0054 53.7077 20 53.715 20 53.7258V56.4415C20 57.3017 20.7024 57.9995 21.5642 57.9995H58.0835C58.947 57.9995 59.6477 57.2999 59.6477 56.4415C59.6314 56.2612 59.7002 53.5419 59.5915 53.4481L59.5933 53.4482ZM24.5478 46.4535H55.1019L57.8392 53.0045H44.3446L43.7816 50.4619C43.7074 50.1319 43.4141 49.8957 43.0738 49.8957H36.5746C36.2343 49.8957 35.941 50.1301 35.8668 50.4619L35.3038 53.0063L21.8111 53.0045L24.5478 46.4535ZM42.8619 53.0045H36.7864L37.1557 51.3383H42.4929L42.8619 53.0045ZM58.0838 56.5588C57.9426 56.4416 21.4431 56.7824 21.4486 56.4434V54.449H58.2015V56.4434C58.2015 56.5065 58.149 56.5588 58.0857 56.5588H58.0838Z" fill="white"/>
<path d="M43.9863 33.2452C43.9863 30.9605 42.1198 29.0995 39.8242 29.0995C35.9156 29.0832 34.1886 34.0893 37.2173 36.4713C34.9579 37.4163 33.3249 39.5549 33.1077 42.0904H27.7274V26.0559H42.7027C43.6514 26.0451 43.6568 24.6277 42.7027 24.6133H27.003C26.6029 24.6133 26.2788 24.9361 26.2788 25.3346V42.8117C26.2788 43.2102 26.6029 43.533 27.003 43.533H52.6453C53.0454 43.533 53.3695 43.2102 53.3695 42.8117V30.4703C53.3477 29.5218 51.9411 29.52 51.9212 30.4703V42.0906H46.5427C46.3255 39.557 44.6907 37.4184 42.4295 36.4734C43.3763 35.7125 43.9846 34.5493 43.9846 33.2456L43.9863 33.2452ZM45.0853 42.0902H34.5596C35.3906 35.8742 44.238 35.8599 45.0853 42.0902ZM39.824 35.9481C36.2395 35.8345 36.2395 30.6554 39.824 30.5437C43.4104 30.6573 43.4086 35.8364 39.824 35.9481Z" fill="white"/>
<path d="M59.4604 18H46.6898C45.2885 18 44.1479 19.136 44.1479 20.5318V26.4952C44.1479 27.6836 44.9753 28.6844 46.0869 28.9549V31.236C46.0706 31.795 46.7585 32.1629 47.2166 31.8329L51.3895 29.027H59.4584C60.8596 29.027 62.0002 27.891 62.0002 26.4952V20.5318C62.0002 19.1361 60.8596 18 59.4584 18H59.4604ZM60.5539 26.495C60.5539 27.0955 60.0633 27.5842 59.4604 27.5842H51.1686C51.0238 27.5842 50.8826 27.6275 50.7631 27.7086L47.5352 29.8798V28.3073C47.5388 27.8547 47.1279 27.5373 46.6898 27.586C46.0869 27.586 45.5963 27.0973 45.5963 26.4969L45.5981 20.5297C45.5981 19.9292 46.0887 19.4406 46.6916 19.4406H59.4622C60.0651 19.4406 60.5557 19.9292 60.5557 20.5297V26.4932L60.5539 26.495Z" fill="white"/>
<path d="M58.1045 21.0898H48.4279C47.4792 21.1043 47.4738 22.5162 48.4279 22.5325H58.1045C59.0531 22.518 59.0586 21.1061 58.1045 21.0898Z" fill="white"/>
<path d="M54.0187 24.4316H48.4298C47.4794 24.4479 47.4776 25.858 48.4298 25.8743H54.0187C54.9692 25.858 54.971 24.4479 54.0187 24.4316Z" fill="white"/>
</svg>
