<svg width="80" height="80" viewBox="0 0 80 80" fill="none" xmlns="http://www.w3.org/2000/svg">
<rect width="80" height="80" rx="24" fill="#3B6BE9"/>
<path fill-rule="evenodd" clip-rule="evenodd" d="M20.2426 30.7619H28.9322C29.4289 30.7619 29.8311 30.3596 29.8311 29.863C29.8311 29.3664 29.4289 28.9641 28.9322 28.9641H20.2426C19.746 28.9641 19.3438 29.3664 19.3438 29.863C19.3438 30.3596 19.746 30.7619 20.2426 30.7619Z" fill="white"/>
<path fill-rule="evenodd" clip-rule="evenodd" d="M20.2426 35.1056H28.9322C29.4289 35.1056 29.8311 34.7034 29.8311 34.2067C29.8311 33.7101 29.4289 33.3079 28.9322 33.3079H20.2426C19.746 33.3079 19.3438 33.7101 19.3438 34.2067C19.3438 34.7034 19.746 35.1056 20.2426 35.1056Z" fill="white"/>
<path fill-rule="evenodd" clip-rule="evenodd" d="M20.2426 39.4516H28.9322C29.4289 39.4516 29.8311 39.0494 29.8311 38.5527C29.8311 38.0561 29.4289 37.6516 28.9322 37.6516H20.2426C19.746 37.6516 19.3438 38.0561 19.3438 38.5527C19.3438 39.0494 19.746 39.4516 20.2426 39.4516Z" fill="white"/>
<path fill-rule="evenodd" clip-rule="evenodd" d="M20.2426 43.796H28.9322C29.4289 43.796 29.8311 43.3938 29.8311 42.8972C29.8311 42.4005 29.4289 41.9983 28.9322 41.9983H20.2426C19.746 41.9983 19.3438 42.4005 19.3438 42.8972C19.3438 43.3938 19.746 43.796 20.2426 43.796Z" fill="white"/>
<path fill-rule="evenodd" clip-rule="evenodd" d="M46.3097 41.9983H37.6201C37.1234 41.9983 36.7212 42.4005 36.7212 42.8972C36.7212 43.3938 37.1234 43.796 37.6201 43.796H46.3097C46.8063 43.796 47.2086 43.3938 47.2086 42.8972C47.2086 42.4005 46.8063 41.9983 46.3097 41.9983Z" fill="white"/>
<path fill-rule="evenodd" clip-rule="evenodd" d="M56.4497 26.5167C60.2946 26.5167 63.4157 29.6381 63.4157 33.4828C63.4157 33.9795 63.818 34.3817 64.3146 34.3817C64.8112 34.3817 65.2135 33.9795 65.2135 33.4828C65.2135 28.6469 61.2854 24.719 56.4497 24.719C55.953 24.719 55.5508 25.1212 55.5508 25.6179C55.5508 26.1145 55.953 26.5167 56.4497 26.5167Z" fill="white"/>
<path fill-rule="evenodd" clip-rule="evenodd" d="M47.6605 24.6182H38.364C36.7752 24.6182 35.2539 25.2497 34.1325 26.3733C33.8022 26.7014 33.5168 27.0609 33.2786 27.4497C33.0359 27.0609 32.7505 26.7014 32.4224 26.3733C31.301 25.2497 29.7774 24.6182 28.1909 24.6182H15.8989C15.4022 24.6182 15 25.0205 15 25.5171V55.2045C15 55.7011 15.4022 56.1033 15.8989 56.1033H50.6539C51.1505 56.1033 51.5528 55.7011 51.5528 55.2045V44.9708C52.2426 45.2629 52.9617 45.4966 53.7056 45.6652V56.2607C53.7056 56.9865 53.9955 57.6854 54.5101 58.1978C55.0224 58.7124 55.7213 59 56.4471 59H56.4494C57.1752 59 57.8719 58.7124 58.3865 58.1978C58.9011 57.6854 59.1909 56.9865 59.1909 56.2607V45.6652C64.764 44.4135 68.9328 39.4314 68.9328 33.483C68.9328 26.5929 63.3372 21 56.4497 21C53.0228 21 49.9174 22.382 47.6612 24.618L47.6605 24.6182ZM57.3931 45.933C57.0808 45.9554 56.7662 45.9667 56.4493 45.9667C56.1302 45.9667 55.8156 45.9554 55.5033 45.933V56.261C55.5033 56.5104 55.6044 56.7509 55.7797 56.9284C55.9572 57.1037 56.1977 57.2026 56.4471 57.2026H56.4494C56.6988 57.2026 56.9393 57.1037 57.1168 56.9284C57.2943 56.7509 57.3932 56.5104 57.3932 56.261L57.3931 45.933ZM32.3799 51.0363H16.7979V54.306H32.3799V51.0363ZM49.7551 51.0363H34.1777V54.306H49.7551V51.0363ZM46.1574 26.416H38.364C37.2517 26.416 36.1888 26.8587 35.4023 27.6452C34.618 28.4295 34.1776 29.4947 34.1776 30.6048V49.2387H49.755V44.023C47.9752 42.8881 46.4988 41.3129 45.4808 39.4499H37.6202C37.1258 39.4499 36.7213 39.0477 36.7213 38.5511C36.7213 38.0544 37.1258 37.6522 37.6202 37.6522H44.6789C44.389 36.8409 44.1823 35.987 44.0677 35.1061H37.6205C37.1261 35.1061 36.7216 34.7039 36.7216 34.2072C36.7216 33.7129 37.1261 33.3084 37.6205 33.3084H43.9664C43.9754 32.4365 44.0788 31.5825 44.2631 30.7623H37.6203C37.1259 30.7623 36.7214 30.36 36.7214 29.8634C36.7214 29.3668 37.1259 28.9645 37.6203 28.9645H44.809C45.1618 28.0589 45.6135 27.2048 46.1574 26.416ZM32.38 30.6048V49.2387H16.7979V26.4162H28.1914C29.3015 26.4162 30.3666 26.8588 31.1509 27.6454C31.9374 28.4296 32.38 29.4947 32.38 30.6048ZM56.4497 22.7982C62.3464 22.7982 67.135 27.5847 67.135 33.4835C67.135 39.3822 62.3462 44.1687 56.4497 44.1687C50.5508 44.1687 45.7622 39.3822 45.7622 33.4835C45.7622 27.5847 50.5509 22.7982 56.4497 22.7982Z" fill="white"/>
</svg>
