<svg width="80" height="80" viewBox="0 0 80 80" fill="none" xmlns="http://www.w3.org/2000/svg">
<rect width="80" height="80" rx="24" fill="#3B6BE9"/>
<path d="M57.6281 20.0001H22.3716C21.0658 20.0001 20 21.0659 20 22.3717V49.0529C20 50.3624 21.0658 51.4282 22.3716 51.4282H30.4764C31.0009 51.4282 31.4287 51.0004 31.4287 50.4759C31.4287 49.9513 31.0009 49.5235 30.4764 49.5235H26.5813C26.1758 47.137 24.2952 45.2527 21.905 44.8472V26.5812C24.2915 26.1757 26.1758 24.2914 26.5813 21.9049H53.4187C53.8242 24.2914 55.7048 26.1757 58.095 26.5812V44.8472C55.7085 45.2527 53.8242 47.137 53.4187 49.5235H49.5236C48.9991 49.5235 48.5713 49.9513 48.5713 50.4759C48.5713 51.0004 48.9991 51.4282 49.5236 51.4282H57.6283C58.9379 51.4282 60 50.3624 60 49.0566V22.3716C60 21.0658 58.9339 20.0001 57.6281 20.0001ZM24.6373 49.5236H22.3755C22.115 49.5236 21.9049 49.3134 21.9049 49.0567V46.7948C23.2386 47.1371 24.2914 48.1899 24.6373 49.5236ZM21.9048 24.6372V22.3753C21.9048 22.1186 22.115 21.9084 22.3717 21.9084H24.6336C24.2914 23.2384 23.2385 24.2912 21.9048 24.6372ZM55.3627 21.9047H57.6246C57.8813 21.9047 58.0915 22.1149 58.0915 22.3716V24.6335C56.7615 24.2912 55.7087 23.2384 55.3627 21.9047ZM57.6283 49.5235H55.3664C55.7143 48.1898 56.7615 47.137 58.0989 46.791V49.0528C58.0952 49.3133 57.885 49.5235 57.6283 49.5235ZM47.8236 43.6197L47.3232 43.1193C47.1223 42.9184 47.0145 42.6524 47.0145 42.3716V41.6629C47.0145 40.0297 45.6863 38.7016 44.0531 38.7016H43.3444C43.0691 38.7016 42.792 38.5881 42.5967 38.3928L42.0963 37.8924C40.943 36.7391 39.0625 36.7354 37.9055 37.8924L37.4051 38.3928C37.2098 38.5881 36.9345 38.7016 36.6573 38.7016H35.9486C34.3155 38.7016 32.9873 40.0297 32.9873 41.6629V42.3716C32.9873 42.6524 32.8776 42.9184 32.6785 43.1193L32.1782 43.6197C31.0212 44.7767 31.0212 46.6535 32.1782 47.8105L32.6785 48.3109C32.8794 48.5118 32.9873 48.7778 32.9873 49.0586V49.7674C32.9873 51.4005 34.3155 52.7287 35.9486 52.7287H36.1904V59.0476C36.1904 59.3992 36.3858 59.7247 36.6945 59.8865C37.0033 60.0539 37.3809 60.0335 37.6711 59.8382L39.9999 58.285L42.3288 59.8382C42.4906 59.9479 42.671 60 42.8571 60C43.0096 60 43.1658 59.9628 43.3054 59.8865C43.6141 59.7247 43.8094 59.3992 43.8094 59.0476V52.7287H44.0531C45.6863 52.7287 47.0144 51.4005 47.0144 49.7674V49.0586C47.0144 48.7778 47.1242 48.5118 47.3232 48.3109L47.8236 47.8105C48.9769 46.6517 48.9769 44.7767 47.8236 43.6197ZM40.5284 56.352C40.2085 56.138 39.79 56.138 39.4719 56.352L38.0954 57.2671V53.7106C38.6292 54.1589 39.2951 54.4063 40.0001 54.4063C40.7051 54.4063 41.371 54.1589 41.9049 53.7106V57.2671L40.5284 56.352ZM46.477 46.4616L45.9766 46.962C45.4185 47.52 45.1098 48.2659 45.1098 49.0564V49.7651C45.1098 50.3511 44.6336 50.8217 44.0532 50.8217H43.3445C42.5539 50.8217 41.8118 51.1305 41.25 51.6885L40.7497 52.1889C40.3497 52.5888 39.6541 52.5888 39.2542 52.1889L38.7538 51.6885C38.192 51.1304 37.4498 50.8217 36.6593 50.8217H35.9506C35.3702 50.8217 34.894 50.3455 34.894 49.7651V49.0564C34.894 48.2658 34.5853 47.5181 34.0272 46.962L33.5269 46.4616C33.1121 46.0468 33.1121 45.3753 33.5269 44.9661L34.0272 44.4657C34.5853 43.9077 34.894 43.1618 34.894 42.3712V41.6625C34.894 41.0766 35.3702 40.606 35.9506 40.606H36.6593C37.4499 40.606 38.1921 40.2972 38.7538 39.7392L39.2542 39.2388C39.6541 38.8389 40.3498 38.8389 40.7497 39.2388L41.25 39.7392C41.8118 40.2972 42.554 40.606 43.3445 40.606H44.0532C44.6336 40.606 45.1098 41.0822 45.1098 41.6625V42.3712C45.1098 43.1618 45.4186 43.9096 45.9766 44.4657L46.477 44.9661C46.8899 45.3753 46.8899 46.0523 46.477 46.4616ZM39.9999 41.9043C37.8998 41.9043 36.1904 43.6138 36.1904 45.7138C36.1904 47.8139 37.8998 49.5233 39.9999 49.5233C42.0999 49.5233 43.8094 47.8139 43.8094 45.7138C43.8094 43.6138 42.0999 41.9043 39.9999 41.9043ZM39.9999 47.6186C38.9471 47.6186 38.0951 46.7666 38.0951 45.7138C38.0951 44.661 38.9471 43.8091 39.9999 43.8091C41.0527 43.8091 41.9046 44.661 41.9046 45.7138C41.9046 46.7666 41.0527 47.6186 39.9999 47.6186ZM27.619 31.4283H52.3807C52.9053 31.4283 53.3331 31.8561 53.3331 32.3806C53.3331 32.9052 52.9053 33.333 52.3807 33.333H27.619C27.0944 33.333 26.6666 32.9052 26.6666 32.3806C26.6666 31.8561 27.0944 31.4283 27.619 31.4283ZM33.3332 28.095C32.8087 28.095 32.3809 27.6671 32.3809 27.1426C32.3809 26.618 32.8087 26.1902 33.3332 26.1902H46.6665C47.191 26.1902 47.6189 26.618 47.6189 27.1426C47.6189 27.6671 47.191 28.095 46.6665 28.095H33.3332Z" fill="white"/>
</svg>
