<svg width="80" height="80" viewBox="0 0 80 80" fill="none" xmlns="http://www.w3.org/2000/svg">
<rect width="80" height="80" rx="24" fill="#3B6BE9"/>
<path d="M26.4968 40.4815C26.4968 46.3416 30.4436 51.2926 35.8175 52.8282L35.8157 28.1343C30.4422 29.6702 26.495 34.6209 26.495 40.481L26.4968 40.4815ZM34.4214 30.15V50.8153C25.776 46.7397 25.7797 34.224 34.4214 30.15ZM59.9574 58.244L59.3183 52.9992C59.7613 52.2186 59.9519 51.2818 59.7885 50.3269L56.5497 31.3281V29.3693C56.5497 28.5396 56.0832 27.8225 55.4023 27.4358V23.4709C55.4132 22.1511 54.2078 21.2451 52.9388 21.394C51.7932 21.394 50.8619 22.3253 50.8619 23.4709V27.4358C50.1792 27.8207 49.7145 28.5378 49.7145 29.3693V31.8347L46.5629 50.3268C46.3922 51.3344 46.6137 52.3184 47.1112 53.1244L46.4866 58.2442C46.4322 58.6926 46.5701 59.1428 46.866 59.4768C47.6594 60.4263 49.3405 60.016 49.5801 58.7888L50.4969 54.8311C50.9363 54.6586 51.2576 54.2465 51.3339 53.7836L53.1747 42.9799L55.0156 53.7836C55.0973 54.2846 55.4694 54.7185 55.9542 54.8729L56.8619 58.7906C57.3194 60.7023 60.1806 60.1938 59.9574 58.244ZM52.3089 23.2038C52.5031 22.6791 53.4435 22.6482 53.8066 22.9859C53.9337 23.113 54.0064 23.2855 54.0064 23.4688V27.1324H52.2545C52.2744 27.0961 52.2018 23.0476 52.3071 23.2038L52.3089 23.2038ZM48.2223 58.4745C48.1751 58.6905 47.8392 58.6288 47.8701 58.4128L48.3603 54.3916C48.5872 54.535 48.8305 54.653 49.0865 54.7474L48.2223 58.4745ZM50.7875 48.6891L49.9597 53.549C49.4169 53.4455 48.9194 53.1678 48.5582 52.7521C47.4544 51.6609 48.088 49.8401 48.2804 48.5293L50.6423 34.6722C51.0126 35.6326 51.7824 36.4531 52.8699 36.4604C52.6139 37.9636 51.0762 46.9811 50.7857 48.6891H50.7875ZM52.1618 34.5958L51.53 33.3232C51.4356 33.0799 51.0798 32.5553 51.1088 32.2829V29.3692C51.1088 28.9062 51.5191 28.5213 51.9784 28.5286H54.2877C54.7597 28.5286 55.1555 28.899 55.1573 29.3692V32.2829C55.1791 32.5244 54.9612 32.8475 54.8668 33.0581L54.1025 34.5958C53.9573 34.8881 53.6523 35.0733 53.3183 35.0733C52.8807 35.106 52.3669 35.046 52.1618 34.5958ZM56.3918 53.549L55.5712 48.7379L53.8829 38.8293L54.3258 36.2241C55.0121 35.9336 55.3933 35.1911 55.6838 34.543L58.0584 48.4801C58.2382 49.7327 58.8754 51.5936 57.8714 52.6574C57.5029 53.1204 56.9746 53.4363 56.39 53.547L56.3918 53.549ZM58.5667 58.4926C58.5104 58.6542 58.2599 58.6487 58.2218 58.4745L57.3504 54.7165C57.6082 54.6148 57.8514 54.4896 58.0765 54.3389L58.5722 58.4109C58.5758 58.4418 58.5722 58.4672 58.5649 58.4926L58.5667 58.4926ZM53.1314 33.0635C52.0167 33.0817 52.0294 31.2808 53.1314 31.3171C54.2406 31.288 54.2334 33.089 53.1314 33.0635ZM40.9678 21.0073C13.0044 20.3773 13.017 60.5914 40.9678 59.9561C41.7376 59.9561 42.3621 59.3316 42.3621 58.5619V22.4016C42.3621 21.6319 41.7376 21.0073 40.9678 21.0073ZM40.9678 58.5619C40.7064 58.5601 39.2286 58.5673 38.9981 58.5528L39.1015 56.7955C39.1233 56.4106 38.831 56.082 38.4461 56.0584C38.0613 56.033 37.7327 56.3289 37.7091 56.7138L37.6056 58.4748C35.7829 58.3005 34.0401 57.8539 32.4152 57.1786L33.1578 55.5701C33.3193 55.2197 33.1668 54.8058 32.8165 54.646C32.4661 54.4826 32.0522 54.6369 31.8906 54.9855L31.148 56.5903C29.545 55.7716 28.0781 54.7223 26.7946 53.4823L28.0708 52.2587C28.3486 51.9918 28.3577 51.5507 28.0926 51.2729C27.8258 50.9951 27.3846 50.9861 27.1068 51.2511L25.8288 52.4765C24.6433 51.144 23.6538 49.6353 22.9004 47.996L24.5471 47.3189C24.9029 47.1718 25.0735 46.7652 24.9265 46.4093C24.7794 46.0535 24.3728 45.8829 24.017 46.0299L22.3631 46.7089C21.7549 45.0586 21.3827 43.2977 21.2829 41.4641L23.0693 41.4351C23.4542 41.4278 23.761 41.1119 23.7556 40.7271C23.7501 40.3422 23.4306 40.0354 23.0476 40.0408L21.2648 40.0698C21.3066 38.2308 21.6225 36.4589 22.1762 34.7939L23.8464 35.4185C24.1986 35.551 24.6089 35.3749 24.7432 35.01C24.8776 34.6505 24.696 34.2475 24.3348 34.1132L22.6627 33.4868C23.3635 31.8221 24.3075 30.2844 25.4476 28.9155L26.7656 30.101C27.0506 30.3588 27.4918 30.3352 27.7496 30.0484C28.0074 29.7615 27.9838 29.3222 27.6969 29.0644L26.3808 27.8825C27.6262 26.6026 29.0567 25.5043 30.6325 24.6365L31.4259 26.2195C31.5983 26.5681 32.025 26.7007 32.3608 26.53C32.7057 26.3575 32.8437 25.9382 32.6713 25.595L31.8779 24.0138C33.4828 23.284 35.2111 22.7848 37.0228 22.5524L37.1825 24.3079C37.2152 24.6928 37.5619 24.9742 37.9396 24.9397C38.3226 24.9052 38.6058 24.5657 38.5713 24.1826L38.4116 22.4253C39.0161 22.389 40.3359 22.4053 40.9587 22.4017V58.562L40.9678 58.5619Z" fill="white"/>
</svg>
