<svg width="80" height="80" viewBox="0 0 80 80" fill="none" xmlns="http://www.w3.org/2000/svg">
<rect width="80" height="80" rx="24" fill="#3B6BE9"/>
<path d="M59.7462 33.9799C59.5859 33.848 59.3756 33.796 59.1721 33.8376L56.4963 34.3892V32.235C56.4963 32.0078 56.3859 31.7944 56.1997 31.6643C56.0152 31.536 55.7773 31.5047 55.5652 31.5845L51.9032 32.9617V29.2101C51.9187 28.6325 51.1756 28.2908 50.7549 28.6914L49.686 29.6488C49.0515 30.216 49.8325 31.2099 50.5239 30.7468C50.5152 32.6218 50.5308 47.1793 50.5239 49.4234L40.6896 57.8079V44.6381C40.6896 44.2548 40.381 43.9443 40 43.9443C39.6189 43.9443 39.3103 44.2548 39.3103 44.6381V57.8061L29.4827 49.4216V30.7397C30.1844 31.1872 30.9275 30.1829 30.3068 29.6331L29.2516 28.6895C29.0482 28.5074 28.7585 28.4623 28.5103 28.5751C28.262 28.6861 28.1034 28.9341 28.1034 29.2081V32.9615L24.4345 31.5826C24.0034 31.4074 23.4896 31.763 23.5034 32.233V34.3873L20.8276 33.8357C20.6224 33.7941 20.4138 33.8461 20.2534 33.9779C20.0931 34.1097 20 34.3075 20 34.5156V55.7298C20 56.0472 20.2138 56.3247 20.5207 56.4027L34.6138 59.9792C34.6689 59.9931 34.7258 60 34.7827 60H45.2173C45.2742 60 45.3311 59.9931 45.3862 59.9792L59.4793 56.4027C59.7862 56.3247 60 56.0471 60 55.7298V34.5156C60 34.3074 59.9069 34.1097 59.7466 33.9779L59.7462 33.9799ZM51.6603 50.2751C51.8154 50.1433 51.9034 49.949 51.9034 49.7461V34.4428L55.1171 33.2356V52.3269L42.3843 58.184L51.6585 50.2764L51.6603 50.2751ZM24.883 33.2357L28.1036 34.4464V49.7461C28.1036 49.9508 28.1933 50.1433 28.3467 50.2751L37.6174 58.1841L24.8828 52.327L24.883 33.2357ZM21.3796 55.1923V35.3688L23.5037 35.8059V52.7725C23.5037 53.0431 23.6606 53.2911 23.9071 53.4039L35.2381 58.6158H34.8691L21.3796 55.1923ZM58.6205 55.1923L45.1312 58.6161H44.7623L56.0932 53.4041C56.3381 53.2914 56.4967 53.0451 56.4967 52.7728V35.8061L58.6208 35.369L58.6205 55.1923Z" fill="white"/>
<path d="M34.4483 35.7697C35.2155 36.3577 35.4483 37.3255 35.3776 38.25C35.3776 39.197 35.9672 40.0035 36.7948 40.3313C36.6465 41.8646 37.8 43.2643 39.3603 43.2539H40.6413C42.2947 43.2574 43.3896 41.7657 43.2051 40.17C43.8603 39.7797 44.3033 39.0686 44.3033 38.25C44.2447 37.3793 44.5827 36.4964 45.2775 35.9882C49.8859 32.7066 50.0033 25.4515 45.5688 21.9805C40.5654 17.7918 32.4706 20.5912 31.3244 27.1494C30.6968 30.4501 31.864 33.6726 34.4502 35.7697L34.4483 35.7697ZM41.8259 40.6748C41.8259 41.3322 41.2949 41.8681 40.6397 41.8681H39.3587C38.6259 41.8733 38.0983 41.209 38.1742 40.4927H41.8259V40.6765V40.6748ZM32.6775 27.4114C33.6499 21.8855 40.4585 19.5246 44.7014 23.0596C48.4358 25.9578 48.341 32.1376 44.4549 34.8764C43.4963 35.5945 42.9238 36.7531 42.9238 37.9776C42.9945 38.5396 42.6911 39.0998 42.0773 39.1033H37.6048C37.1376 39.1033 36.7566 38.72 36.7566 38.2517V37.7192C36.7566 36.538 36.2307 35.4349 35.3135 34.6908C33.1325 32.9217 32.1465 30.2007 32.6775 27.4114Z" fill="white"/>
<path d="M34.8325 30.1224C34.579 30.3392 34.517 30.7069 34.6825 30.9966L35.9204 33.1543C36.0876 33.4439 36.4342 33.5723 36.748 33.4613L37.3376 33.2514C37.6566 33.1681 37.8807 33.2948 37.9686 33.6174L38.0824 34.2366C38.1428 34.5661 38.4272 34.8037 38.76 34.8037H41.2359C41.5686 34.8037 41.8531 34.5644 41.9135 34.2366L42.0273 33.6174C42.1152 33.2982 42.3359 33.1664 42.6583 33.2514L43.2479 33.463C43.56 33.5757 43.91 33.4457 44.0755 33.156L45.3134 30.9983C45.4789 30.7086 45.4169 30.3409 45.1634 30.1241L44.6859 29.7148C44.5393 29.5899 44.5186 29.4321 44.5186 29.3488C44.5186 29.2655 44.541 29.1077 44.6876 28.9811L45.1634 28.5718C45.4169 28.3549 45.4789 27.9872 45.3134 27.6976L44.0755 25.5399C43.9083 25.2502 43.56 25.1201 43.2479 25.2329C43.0031 25.3074 42.4669 25.5884 42.2583 25.4063C41.9997 25.3248 41.9686 24.6934 41.9134 24.4558C41.8531 24.1263 41.5686 23.8887 41.2359 23.8887H38.76C38.4272 23.8887 38.1428 24.128 38.0824 24.4558C38.0255 24.7039 37.9962 25.3179 37.7376 25.4063C37.5341 25.5902 36.9824 25.3022 36.7479 25.2329C36.4359 25.1219 36.0876 25.2502 35.9204 25.5399L34.6824 27.6976C34.5169 27.9872 34.579 28.3549 34.8324 28.5718L35.31 28.9811C35.4565 29.106 35.4772 29.2638 35.4772 29.3471C35.4772 29.4303 35.4548 29.5882 35.3083 29.713L34.8325 30.1224ZM36.2049 27.9248L36.1652 27.8901L36.829 26.7332L36.879 26.7506C37.9169 27.1495 39.1514 26.4314 39.3273 25.3283L39.3359 25.2763H40.6634C40.8134 26.4262 42.1065 27.1755 43.1703 26.7332L43.8341 27.8901L43.7945 27.9248C42.9151 28.6411 42.9376 30.1102 43.8341 30.804L43.1703 31.9609C42.6445 31.758 42.0566 31.8031 41.5703 32.0858C41.0824 32.3685 40.7497 32.8594 40.6617 33.4179H39.3342C39.1859 32.2905 37.9324 31.536 36.8756 31.9436L36.8256 31.9609L36.1618 30.804C37.0583 30.1102 37.0807 28.6411 36.2014 27.9248L36.2049 27.9248Z" fill="white"/>
<path d="M40.0005 31.7667C43.1798 31.6644 43.178 27.0281 40.0005 26.9277C36.8212 27.0301 36.823 31.6664 40.0005 31.7667ZM40.0005 28.3151C41.3488 28.3394 41.3488 30.3566 40.0005 30.3791C38.6522 30.3549 38.6522 28.3376 40.0005 28.3151Z" fill="white"/>
</svg>
