<svg width="64" height="64" viewBox="0 0 64 64" fill="none" xmlns="http://www.w3.org/2000/svg">
<path fill-rule="evenodd" clip-rule="evenodd" d="M63.9976 31.9976C63.9976 31.9976 64.3772 17.2936 55.5416 8.45825C46.7064 -0.376975 32.0024 0.00237235 32.0024 0.00237235C32.0024 0.00237235 32.0003 0.078106 32 0.221928C32 0.161187 31.9994 0.112595 31.9991 0.0767132C31.9985 0.0276465 31.9976 0.00237235 31.9976 0.00237235C31.9976 0.00237235 17.2936 -0.376975 8.45825 8.45825C-0.376975 17.2936 0.00237235 31.9976 0.00237235 31.9976C0.00237235 31.9976 14.7065 32.3769 23.5416 23.5416C31.6175 15.4661 31.995 2.48744 32 0.31538C32.0053 2.48744 32.3828 15.4661 40.4584 23.5416C49.2936 32.3769 63.9976 31.9976 63.9976 31.9976ZM8.45825 55.5416C-0.376975 46.7064 0.00237235 32.0024 0.00237235 32.0024C0.00237235 32.0024 14.7065 31.6231 23.5416 40.4584C31.6175 48.5339 31.995 61.5126 32 63.6847C32.0053 61.5126 32.3828 48.5339 40.4584 40.4584C49.2936 31.6231 63.9976 32.0024 63.9976 32.0024C63.9976 32.0024 64.3772 46.7064 55.5416 55.5416C46.7064 64.3769 32.0024 63.9976 32.0024 63.9976C32.0024 63.9976 32.0003 63.9218 32 63.7781C31.9997 63.9218 31.9976 63.9976 31.9976 63.9976C31.9976 63.9976 17.2936 64.3769 8.45825 55.5416Z" fill="#3B6BE9"/>
</svg>
