<svg width="80" height="80" viewBox="0 0 80 80" fill="none" xmlns="http://www.w3.org/2000/svg">
<rect width="80" height="80" rx="24" fill="#FFE9E9"/>
<path d="M58.5933 55.4482C58.5987 55.4464 55.3056 47.5911 55.3093 47.5879V32.4693C55.3093 32.0708 54.9852 31.748 54.5851 31.748C54.185 31.748 53.8609 32.0708 53.8609 32.4693V47.009H23.7939V25.2488C23.7939 25.1767 23.841 25.1262 23.9098 25.1262H41.7025C42.6494 25.1208 42.6566 23.6944 41.7025 23.6836H23.9098C23.048 23.6836 22.3456 24.3851 22.3456 25.2488V47.575L19.0561 55.4445C19.0217 55.5256 19.0072 55.6122 19.0054 55.6969C19.0054 55.7077 19 55.715 19 55.7258V58.4415C19 59.3017 19.7024 59.9995 20.5642 59.9995H57.0835C57.947 59.9995 58.6477 59.2999 58.6477 58.4415C58.6314 58.2612 58.7002 55.5419 58.5915 55.4481L58.5933 55.4482ZM23.5478 48.4535H54.1019L56.8392 55.0045H43.3446L42.7816 52.4619C42.7074 52.1319 42.4141 51.8957 42.0738 51.8957H35.5746C35.2343 51.8957 34.941 52.1301 34.8668 52.4619L34.3038 55.0063L20.8111 55.0045L23.5478 48.4535ZM41.8619 55.0045H35.7864L36.1557 53.3383H41.4929L41.8619 55.0045ZM57.0838 58.5588C56.9426 58.4416 20.4431 58.7824 20.4486 58.4434V56.449H57.2015V58.4434C57.2015 58.5065 57.149 58.5588 57.0857 58.5588H57.0838Z" fill="#F51010"/>
<path d="M42.9861 35.2452C42.9861 32.9605 41.1196 31.0995 38.824 31.0995C34.9153 31.0832 33.1883 36.0893 36.217 38.4713C33.9577 39.4163 32.3247 41.5549 32.1074 44.0904H26.7271V28.0559H41.7024C42.6511 28.0451 42.6565 26.6277 41.7024 26.6133H26.0027C25.6026 26.6133 25.2786 26.9361 25.2786 27.3346V44.8117C25.2786 45.2102 25.6026 45.533 26.0027 45.533H51.6451C52.0452 45.533 52.3692 45.2102 52.3692 44.8117V32.4703C52.3475 31.5218 50.9408 31.52 50.9209 32.4703V44.0906H45.5425C45.3252 41.557 43.6904 39.4184 41.4292 38.4734C42.3761 37.7125 42.9844 36.5493 42.9844 35.2456L42.9861 35.2452ZM44.085 44.0902H33.5594C34.3903 37.8742 43.2378 37.8599 44.085 44.0902ZM38.8238 37.9481C35.2392 37.8345 35.2392 32.6554 38.8238 32.5437C42.4102 32.6573 42.4084 37.8364 38.8238 37.9481Z" fill="#F51010"/>
<path d="M58.4602 20H45.6895C44.2883 20 43.1477 21.136 43.1477 22.5318V28.4952C43.1477 29.6836 43.9751 30.6844 45.0866 30.9549V33.236C45.0703 33.795 45.7583 34.1629 46.2163 33.8329L50.3893 31.027H58.4581C59.8594 31.027 60.9999 29.891 60.9999 28.4952V22.5318C60.9999 21.1361 59.8594 20 58.4581 20H58.4602ZM59.5537 28.495C59.5537 29.0955 59.063 29.5842 58.4602 29.5842H50.1684C50.0236 29.5842 49.8823 29.6275 49.7629 29.7086L46.535 31.8798V30.3073C46.5386 29.8547 46.1276 29.5373 45.6895 29.586C45.0866 29.586 44.596 29.0973 44.596 28.4969L44.5978 22.5297C44.5978 21.9292 45.0885 21.4406 45.6913 21.4406H58.462C59.0648 21.4406 59.5555 21.9292 59.5555 22.5297V28.4932L59.5537 28.495Z" fill="#F51010"/>
<path d="M57.1045 23.0898H47.4279C46.4792 23.1043 46.4738 24.5162 47.4279 24.5325H57.1045C58.0531 24.518 58.0586 23.1061 57.1045 23.0898Z" fill="#F51010"/>
<path d="M53.0187 26.4316H47.4298C46.4794 26.4479 46.4776 27.858 47.4298 27.8743H53.0187C53.9692 27.858 53.971 26.4479 53.0187 26.4316Z" fill="#F51010"/>
</svg>
