<svg width="100.000000" height="100.000000" viewBox="0 0 100 100" fill="none" xmlns="http://www.w3.org/2000/svg" xmlns:xlink="http://www.w3.org/1999/xlink">
	<desc>
			Created with Pixso.
	</desc>
	<defs/>
	<rect id="Rectangle 281" rx="24.000000" width="100.000000" height="100.000000" fill="#FFFFFF" fill-opacity="1.000000"/>
	<path id="Vector" d="M49.45 48.32C44.95 48.32 41.29 44.66 41.29 40.16C41.29 35.66 44.95 32 49.45 32C53.95 32 57.61 35.66 57.61 40.16C57.61 44.66 53.95 48.32 49.45 48.32ZM49.45 33.2C45.61 33.2 42.49 36.32 42.49 40.16C42.49 44 45.61 47.12 49.45 47.12C53.29 47.12 56.41 44 56.41 40.16C56.41 36.32 53.29 33.2 49.45 33.2Z" fill="#3064EA" fill-opacity="1.000000" fill-rule="nonzero"/>
	<path id="Vector" d="M40.99 38.3Q40.79 39.21 40.79 40.16Q40.79 41.11 40.99 42.01Q41.16 42.78 41.48 43.52Q41.78 44.25 42.21 44.89Q42.69 45.64 43.33 46.28Q43.97 46.92 44.72 47.4Q45.36 47.83 46.09 48.13Q46.83 48.45 47.6 48.62Q48.5 48.82 49.45 48.82Q50.4 48.82 51.31 48.62Q52.08 48.45 52.82 48.13Q53.55 47.83 54.19 47.4Q54.93 46.92 55.58 46.28Q56.22 45.64 56.7 44.89Q57.13 44.25 57.43 43.52Q57.75 42.78 57.92 42.01Q58.11 41.11 58.11 40.16Q58.11 39.21 57.92 38.3Q57.75 37.53 57.43 36.79Q57.13 36.06 56.7 35.42Q56.22 34.67 55.58 34.03Q54.93 33.39 54.19 32.91Q53.55 32.48 52.82 32.18Q52.08 31.86 51.31 31.69Q50.4 31.5 49.45 31.5Q48.5 31.5 47.6 31.69Q46.83 31.86 46.09 32.18Q45.36 32.48 44.72 32.91Q43.97 33.39 43.33 34.03Q42.69 34.67 42.21 35.42Q41.78 36.06 41.48 36.79Q41.16 37.53 40.99 38.3ZM49.45 48.32C44.95 48.32 41.29 44.66 41.29 40.16C41.29 35.66 44.95 32 49.45 32C53.95 32 57.61 35.66 57.61 40.16C57.61 44.66 53.95 48.32 49.45 48.32ZM49.45 33.2C45.61 33.2 42.49 36.32 42.49 40.16C42.49 44 45.61 47.12 49.45 47.12C53.29 47.12 56.41 44 56.41 40.16C56.41 36.32 53.29 33.2 49.45 33.2ZM43.15 41.56Q42.99 40.88 42.99 40.16Q42.99 39.43 43.15 38.75Q43.27 38.18 43.5 37.64Q43.73 37.11 44.04 36.63Q44.41 36.07 44.89 35.59Q45.37 35.11 45.93 34.74Q46.41 34.43 46.94 34.2Q47.48 33.97 48.04 33.85Q48.73 33.7 49.45 33.7Q50.18 33.7 50.86 33.85Q51.43 33.97 51.97 34.2Q52.5 34.43 52.98 34.74Q53.54 35.11 54.02 35.59Q54.5 36.07 54.87 36.63Q55.18 37.11 55.41 37.64Q55.64 38.18 55.76 38.75Q55.91 39.43 55.91 40.16Q55.91 40.88 55.76 41.56Q55.64 42.13 55.41 42.67Q55.18 43.2 54.87 43.68Q54.5 44.24 54.02 44.72Q53.54 45.2 52.98 45.57Q52.5 45.88 51.97 46.11Q51.43 46.34 50.86 46.46Q50.18 46.62 49.45 46.62Q48.73 46.62 48.04 46.46Q47.48 46.34 46.94 46.11Q46.41 45.88 45.93 45.57Q45.37 45.2 44.89 44.72Q44.41 44.24 44.04 43.68Q43.73 43.2 43.5 42.67Q43.27 42.13 43.15 41.56Z" fill="#3064EA" fill-opacity="1.000000" fill-rule="evenodd"/>
	<path id="Vector" d="M66.91 49.04C63.79 49.04 61.27 46.52 61.27 43.39C61.27 40.28 63.79 37.75 66.91 37.75C70.04 37.75 72.56 40.28 72.56 43.39C72.56 46.52 70.04 49.04 66.91 49.04ZM66.91 38.96C64.46 38.96 62.48 40.93 62.48 43.39C62.48 45.86 64.46 47.84 66.91 47.84C69.37 47.84 71.35 45.86 71.35 43.39C71.35 40.93 69.37 38.96 66.91 38.96Z" fill="#3064EA" fill-opacity="1.000000" fill-rule="nonzero"/>
	<path id="Vector" d="M60.93 42.03Q60.77 42.69 60.77 43.39Q60.77 44.1 60.93 44.76Q61.04 45.29 61.26 45.79Q61.48 46.31 61.79 46.78Q62.13 47.29 62.57 47.74Q63.02 48.18 63.53 48.52Q64 48.83 64.52 49.05Q65.02 49.27 65.55 49.38Q66.21 49.54 66.91 49.54Q67.62 49.54 68.28 49.38Q68.81 49.27 69.31 49.05Q69.83 48.83 70.3 48.52Q70.81 48.18 71.26 47.74Q71.7 47.29 72.04 46.78Q72.35 46.31 72.57 45.79Q72.78 45.29 72.9 44.76Q73.06 44.1 73.06 43.39Q73.06 42.69 72.9 42.03Q72.78 41.5 72.57 41Q72.35 40.48 72.04 40.01Q71.7 39.5 71.26 39.05Q70.81 38.61 70.3 38.27Q69.83 37.96 69.31 37.74Q68.81 37.53 68.28 37.41Q67.62 37.25 66.91 37.25Q66.21 37.25 65.55 37.41Q65.02 37.53 64.52 37.74Q64 37.96 63.53 38.27Q63.02 38.61 62.57 39.05Q62.13 39.5 61.79 40.01Q61.48 40.48 61.26 41Q61.04 41.5 60.93 42.03ZM66.91 49.04C63.79 49.04 61.27 46.52 61.27 43.39C61.27 40.28 63.79 37.75 66.91 37.75C70.04 37.75 72.56 40.28 72.56 43.39C72.56 46.52 70.04 49.04 66.91 49.04ZM66.91 38.96C64.46 38.96 62.48 40.93 62.48 43.39C62.48 45.86 64.46 47.84 66.91 47.84C69.37 47.84 71.35 45.86 71.35 43.39C71.35 40.93 69.37 38.96 66.91 38.96ZM63.08 44.32Q62.98 43.87 62.98 43.39Q62.98 42.92 63.08 42.47Q63.16 42.16 63.28 41.86Q63.43 41.52 63.62 41.22Q63.84 40.89 64.13 40.61Q64.41 40.32 64.74 40.11Q65.04 39.91 65.38 39.76Q65.68 39.64 65.99 39.56Q66.44 39.46 66.91 39.46Q67.39 39.46 67.84 39.56Q68.15 39.64 68.45 39.76Q68.79 39.91 69.09 40.11Q69.42 40.32 69.7 40.61Q69.99 40.89 70.21 41.22Q70.4 41.52 70.55 41.86Q70.67 42.16 70.75 42.47Q70.85 42.92 70.85 43.39Q70.85 43.87 70.75 44.32Q70.67 44.63 70.55 44.93Q70.4 45.27 70.21 45.57Q69.99 45.9 69.7 46.18Q69.42 46.47 69.09 46.68Q68.79 46.88 68.45 47.03Q68.15 47.15 67.84 47.23Q67.39 47.34 66.91 47.34Q66.44 47.34 65.99 47.23Q65.68 47.15 65.38 47.03Q65.04 46.88 64.74 46.68Q64.41 46.47 64.13 46.18Q63.84 45.9 63.62 45.57Q63.43 45.27 63.28 44.93Q63.16 44.63 63.08 44.32Z" fill="#3064EA" fill-opacity="1.000000" fill-rule="evenodd"/>
	<path id="Vector" d="M32 49.04C28.88 49.04 26.36 46.52 26.36 43.39C26.36 40.28 28.88 37.75 32 37.75C35.12 37.75 37.64 40.28 37.64 43.39C37.64 46.52 35.12 49.04 32 49.04ZM32 38.96C29.54 38.96 27.56 40.93 27.56 43.39C27.56 45.86 29.54 47.84 32 47.84C34.46 47.84 36.44 45.86 36.44 43.39C36.44 40.93 34.46 38.96 32 38.96Z" fill="#3064EA" fill-opacity="1.000000" fill-rule="nonzero"/>
	<path id="Vector" d="M26.01 42.03Q25.86 42.69 25.86 43.39Q25.86 44.1 26.01 44.76Q26.13 45.29 26.34 45.79Q26.56 46.31 26.87 46.78Q27.21 47.29 27.65 47.74Q28.1 48.18 28.61 48.52Q29.08 48.83 29.6 49.05Q30.11 49.27 30.63 49.38Q31.3 49.54 32 49.54Q32.7 49.54 33.36 49.38Q33.89 49.27 34.39 49.05Q34.91 48.83 35.38 48.52Q35.9 48.18 36.34 47.74Q36.78 47.29 37.12 46.78Q37.43 46.31 37.65 45.79Q37.87 45.29 37.99 44.76Q38.14 44.1 38.14 43.39Q38.14 42.69 37.99 42.03Q37.87 41.5 37.65 41Q37.43 40.48 37.12 40.01Q36.78 39.5 36.34 39.05Q35.9 38.61 35.38 38.27Q34.91 37.96 34.39 37.74Q33.89 37.53 33.36 37.41Q32.7 37.25 32 37.25Q31.3 37.25 30.63 37.41Q30.11 37.53 29.6 37.74Q29.08 37.96 28.61 38.27Q28.1 38.61 27.65 39.05Q27.21 39.5 26.87 40.01Q26.56 40.48 26.34 41Q26.13 41.5 26.01 42.03ZM32 49.04C28.88 49.04 26.36 46.52 26.36 43.39C26.36 40.28 28.88 37.75 32 37.75C35.12 37.75 37.64 40.28 37.64 43.39C37.64 46.52 35.12 49.04 32 49.04ZM32 38.96C29.54 38.96 27.56 40.93 27.56 43.39C27.56 45.86 29.54 47.84 32 47.84C34.46 47.84 36.44 45.86 36.44 43.39C36.44 40.93 34.46 38.96 32 38.96ZM28.16 44.32Q28.06 43.87 28.06 43.39Q28.06 42.92 28.16 42.47Q28.24 42.16 28.37 41.86Q28.51 41.52 28.71 41.22Q28.92 40.89 29.21 40.61Q29.49 40.32 29.82 40.11Q30.12 39.91 30.46 39.76Q30.76 39.64 31.08 39.56Q31.52 39.46 32 39.46Q32.47 39.46 32.92 39.56Q33.23 39.64 33.53 39.76Q33.87 39.91 34.17 40.11Q34.5 40.32 34.79 40.61Q35.07 40.89 35.29 41.22Q35.49 41.52 35.63 41.86Q35.76 42.16 35.83 42.47Q35.94 42.92 35.94 43.39Q35.94 43.87 35.83 44.32Q35.76 44.63 35.63 44.93Q35.49 45.27 35.29 45.57Q35.07 45.9 34.79 46.18Q34.5 46.47 34.17 46.68Q33.87 46.88 33.53 47.03Q33.23 47.15 32.92 47.23Q32.47 47.34 32 47.34Q31.52 47.34 31.08 47.23Q30.76 47.15 30.46 47.03Q30.12 46.88 29.82 46.68Q29.49 46.47 29.21 46.18Q28.92 45.9 28.71 45.57Q28.51 45.27 28.37 44.93Q28.24 44.63 28.16 44.32Z" fill="#3064EA" fill-opacity="1.000000" fill-rule="evenodd"/>
	<path id="Vector" d="M66.98 62.3C64.58 62.3 63.08 62.18 61.88 62L61.4 61.94L61.4 61.22C61.4 58.64 60.56 56.06 59.06 53.78L58.88 53.48L59.06 53.18C60.62 50 63.74 47.96 66.98 47.96C71.84 47.96 75.98 52.34 76.04 57.56C75.98 62.3 71.6 62.3 66.98 62.3ZM62.6 60.86C63.68 60.98 65 61.1 66.98 61.1C72.38 61.1 74.78 60.74 74.78 57.5C74.72 52.94 71.12 49.1 66.92 49.1C64.22 49.1 61.64 50.72 60.26 53.3C61.76 55.64 62.54 58.28 62.6 60.86Z" fill="#3064EA" fill-opacity="1.000000" fill-rule="nonzero"/>
	<path id="Vector" d="M61.81 62.49Q62.8 62.64 63.94 62.71Q65.26 62.8 66.98 62.8Q68.13 62.8 68.7 62.79Q69.65 62.77 70.37 62.72Q72.2 62.59 73.38 62.17Q74.84 61.66 75.62 60.64Q75.63 60.61 75.65 60.59Q76.51 59.42 76.54 57.56L76.54 57.56L76.54 57.55Q76.53 56.59 76.34 55.66Q76.15 54.64 75.74 53.66Q75.32 52.65 74.72 51.76Q74.25 51.07 73.67 50.45Q72.67 49.4 71.47 48.69Q71.07 48.46 70.64 48.27Q69.52 47.75 68.34 47.56Q67.67 47.46 66.98 47.46Q66.7 47.46 66.43 47.47Q65.43 47.54 64.44 47.85Q64.26 47.9 64.08 47.97Q63.05 48.34 62.11 48.96Q61.82 49.15 61.54 49.36Q60.77 49.95 60.12 50.69Q59.77 51.09 59.46 51.52Q58.99 52.19 58.62 52.94L58.29 53.48L58.63 54.04L58.64 54.05Q59.74 55.72 60.31 57.53Q60.89 59.37 60.9 61.21L60.9 61.22L60.9 62.38L61.81 62.49ZM59.06 53.18L58.88 53.48L59.06 53.78C60.56 56.06 61.4 58.64 61.4 61.22L61.4 61.94L61.88 62C63.08 62.18 64.58 62.3 66.98 62.3C71.6 62.3 75.98 62.3 76.04 57.56C75.98 52.34 71.84 47.96 66.98 47.96C63.74 47.96 60.62 50 59.06 53.18ZM62.6 60.86C63.68 60.98 65 61.1 66.98 61.1C72.38 61.1 74.78 60.74 74.78 57.5C74.72 52.94 71.12 49.1 66.92 49.1C64.22 49.1 61.64 50.72 60.26 53.3C61.76 55.64 62.54 58.28 62.6 60.86ZM63.08 60.4Q63.06 60.12 63.04 59.83Q62.9 58.32 62.44 56.84Q62.2 56.02 61.86 55.25Q61.42 54.23 60.84 53.28Q61.12 52.79 61.47 52.35Q61.66 52.11 61.87 51.89Q62.4 51.32 63.02 50.88Q63.18 50.76 63.36 50.65Q64.06 50.21 64.83 49.94Q64.95 49.9 65.07 49.87Q65.77 49.66 66.48 49.61Q66.7 49.6 66.92 49.6Q67.38 49.6 67.83 49.66Q68.78 49.8 69.7 50.22Q69.94 50.33 70.17 50.46Q71.19 51.03 72.03 51.93Q72.46 52.38 72.81 52.89Q73.31 53.61 73.65 54.45Q73.99 55.28 74.15 56.14Q74.27 56.81 74.28 57.5Q74.28 58.55 73.89 59.16Q73.53 59.73 72.72 60.04Q71.89 60.36 70.43 60.49Q69.21 60.6 66.98 60.6Q65.65 60.6 64.48 60.52Q63.83 60.48 63.08 60.4Z" fill="#3064EA" fill-opacity="1.000000" fill-rule="evenodd"/>
	<path id="Vector" d="M32 62.3C27.37 62.3 23 62.3 23 57.5C23 52.28 27.14 47.9 32 47.9C35.24 47.9 38.35 49.94 39.91 53.12L40.1 53.42L39.85 53.72C38.3 56 37.52 58.58 37.58 61.16L37.58 61.94L37.1 62C35.89 62.18 34.39 62.3 32 62.3ZM32 49.1C27.85 49.1 24.2 53 24.2 57.5C24.2 60.74 26.6 61.1 32 61.1C33.98 61.1 35.3 61.04 36.37 60.86C36.37 58.28 37.16 55.64 38.66 53.3C37.28 50.72 34.7 49.1 32 49.1Z" fill="#3064EA" fill-opacity="1.000000" fill-rule="nonzero"/>
	<path id="Vector" d="M22.67 55.58Q22.5 56.52 22.5 57.5Q22.5 59.37 23.35 60.56Q23.38 60.61 23.41 60.65Q24.18 61.66 25.59 62.17Q26.77 62.59 28.6 62.72Q29.33 62.77 30.27 62.79Q30.84 62.8 32 62.8Q33.71 62.8 35.03 62.71Q36.17 62.64 37.16 62.49L38.08 62.38L38.08 61.15L38.08 61.15Q38.06 60.57 38.11 59.99Q38.2 58.72 38.59 57.47Q38.63 57.32 38.68 57.18Q39.23 55.52 40.26 54.01L40.7 53.46L40.35 52.88Q39.99 52.13 39.51 51.46Q39.2 51.03 38.85 50.63Q38.2 49.89 37.43 49.3Q37.15 49.09 36.86 48.9Q35.92 48.28 34.89 47.91Q34.71 47.84 34.53 47.79Q33.55 47.48 32.55 47.41Q32.27 47.4 32 47.4Q31.29 47.4 30.61 47.51Q29.44 47.7 28.33 48.21Q27.88 48.42 27.45 48.67Q26.28 49.36 25.31 50.4Q24.71 51.03 24.24 51.75Q23.66 52.62 23.25 53.61Q22.86 54.57 22.67 55.58ZM39.91 53.12C38.35 49.94 35.24 47.9 32 47.9C27.14 47.9 23 52.28 23 57.5C23 62.3 27.37 62.3 32 62.3C34.39 62.3 35.89 62.18 37.1 62L37.58 61.94L37.58 61.16C37.52 58.58 38.3 56 39.85 53.72L40.1 53.42L39.91 53.12ZM32 49.1C27.85 49.1 24.2 53 24.2 57.5C24.2 60.74 26.6 61.1 32 61.1C33.98 61.1 35.3 61.04 36.37 60.86C36.37 58.28 37.16 55.64 38.66 53.3C37.28 50.72 34.7 49.1 32 49.1ZM38.07 53.28Q37.79 52.79 37.44 52.35Q37.25 52.12 37.05 51.89Q36.52 51.32 35.89 50.88Q35.73 50.76 35.55 50.65Q34.85 50.21 34.08 49.95Q33.96 49.91 33.84 49.87Q33.14 49.66 32.43 49.61Q32.21 49.6 32 49.6Q31.65 49.6 31.32 49.63Q30.26 49.75 29.24 50.23Q29.04 50.32 28.85 50.43Q27.78 51.01 26.91 51.95Q26.4 52.49 26.01 53.1Q25.59 53.75 25.29 54.48Q24.92 55.4 24.78 56.37Q24.7 56.93 24.7 57.5Q24.7 58.55 25.08 59.16Q25.44 59.73 26.25 60.05Q27.08 60.37 28.54 60.49Q29.77 60.6 32 60.6Q33.51 60.6 34.5 60.55Q35.26 60.5 35.88 60.42Q35.88 60.38 35.89 60.33Q35.95 58.58 36.47 56.84Q36.61 56.39 36.78 55.94Q37.29 54.56 38.07 53.28Z" fill="#3064EA" fill-opacity="1.000000" fill-rule="evenodd"/>
	<path id="Vector" d="M49.45 68C42.67 68 36.31 68 36.31 61.16C36.31 53.66 42.43 47.12 49.45 47.12C56.47 47.12 62.59 53.66 62.59 61.16C62.59 68 56.23 68 49.45 68ZM49.45 48.32C43.09 48.32 37.51 54.32 37.51 61.16C37.51 66.26 41.35 66.8 49.45 66.8C57.55 66.8 61.39 66.26 61.39 61.16C61.39 54.32 55.81 48.32 49.45 48.32Z" fill="#3064EA" fill-opacity="1.000000" fill-rule="nonzero"/>
	<path id="Vector" d="M36.66 56.14Q35.81 58.5 35.81 61.16Q35.81 63.85 37.12 65.53Q38.2 66.92 40.18 67.61Q42.69 68.5 49.45 68.5Q56.21 68.5 58.73 67.61Q60.71 66.92 61.79 65.53Q63.09 63.85 63.09 61.16Q63.09 58.5 62.24 56.14Q61.23 53.35 59.02 50.98Q56.42 48.21 53.26 47.2Q51.45 46.62 49.45 46.62Q47.46 46.62 45.65 47.2Q42.48 48.21 39.89 50.98Q37.67 53.35 36.66 56.14ZM49.45 68C42.67 68 36.31 68 36.31 61.16C36.31 53.66 42.43 47.12 49.45 47.12C56.47 47.12 62.59 53.66 62.59 61.16C62.59 68 56.23 68 49.45 68ZM49.45 48.32C43.09 48.32 37.51 54.32 37.51 61.16C37.51 66.26 41.35 66.8 49.45 66.8C57.55 66.8 61.39 66.26 61.39 61.16C61.39 54.32 55.81 48.32 49.45 48.32ZM38.99 64.29Q38.01 63.14 38.01 61.16Q38.01 58.94 38.71 56.97Q39.57 54.55 41.47 52.51Q43.73 50.08 46.48 49.25Q47.9 48.82 49.45 48.82Q51.01 48.82 52.43 49.25Q55.18 50.08 57.44 52.51Q59.34 54.55 60.2 56.97Q60.89 58.94 60.89 61.16Q60.89 63.14 59.92 64.29Q59.29 65.03 58.28 65.42Q56.05 66.3 49.45 66.3Q42.86 66.3 40.63 65.42Q39.61 65.03 38.99 64.29Z" fill="#3064EA" fill-opacity="1.000000" fill-rule="evenodd"/>
</svg>
