<svg width="100.000000" height="100.000000" viewBox="0 0 100 100" fill="none" xmlns="http://www.w3.org/2000/svg" xmlns:xlink="http://www.w3.org/1999/xlink">
	<desc>
			Created with Pixso.
	</desc>
	<defs/>
	<rect id="Rectangle 281" rx="24.000000" width="100.000000" height="100.000000" fill="#F4F7FF" fill-opacity="1.000000"/>
	<path id="Vector" d="M59.54 64.84C59.08 64.84 58.53 64.69 58.07 64.45L55.35 63.07C54.88 62.84 54.65 62.22 54.96 61.76C55.2 61.3 55.82 61.07 56.28 61.38L59 62.76C59.39 62.99 59.86 62.92 60.24 62.68C60.63 62.45 60.79 61.99 60.71 61.53L59.16 52.53C59.08 52.22 59.24 51.92 59.47 51.68L66.07 45.3C66.38 44.99 66.54 44.53 66.38 44.15C66.22 43.76 65.91 43.45 65.45 43.38L56.28 42.07C55.97 41.99 55.66 41.84 55.51 41.53L51.39 33.3C51.15 32.92 50.77 32.69 50.38 32.69C49.91 32.69 49.52 32.92 49.37 33.3L45.25 41.53C45.1 41.84 44.86 41.99 44.47 42.07L35.31 43.38C34.84 43.45 34.53 43.76 34.38 44.15C34.22 44.53 34.38 44.99 34.69 45.3L41.29 51.68C41.52 51.92 41.6 52.22 41.6 52.53L40.04 61.53C39.97 61.99 40.12 62.38 40.51 62.68C40.9 62.92 41.37 62.99 41.76 62.76L44.47 61.3C44.94 61.07 45.56 61.22 45.79 61.69C46.03 62.15 45.87 62.76 45.41 62.99L42.69 64.45C41.6 64.99 40.36 64.92 39.35 64.22C38.34 63.53 37.87 62.38 38.1 61.15L39.58 52.61L33.36 46.61C32.51 45.76 32.2 44.53 32.59 43.45C32.98 42.3 33.91 41.53 35.15 41.3L43.77 40.06L47.66 32.29C48.2 31.22 49.29 30.52 50.45 30.52C51.7 30.52 52.71 31.22 53.25 32.29L57.13 40.06L65.76 41.3C66.92 41.45 67.93 42.3 68.32 43.45C68.71 44.6 68.4 45.84 67.54 46.61L61.33 52.61L62.81 61.15C63.04 62.3 62.5 63.45 61.56 64.22C60.87 64.61 60.17 64.84 59.54 64.84Z" fill="#3B6BE9" fill-opacity="1.000000" fill-rule="nonzero"/>
	<path id="Vector" d="M50.46 25.3C49.92 25.3 49.45 24.84 49.45 24.3L49.45 19C49.45 18.46 49.92 18 50.46 18C51 18 51.47 18.46 51.47 19L51.47 24.3C51.47 24.84 51 25.3 50.46 25.3Z" fill="#3B6BE9" fill-opacity="1.000000" fill-rule="nonzero"/>
	<path id="Vector" d="M62.81 31.23C62.66 31.23 62.51 31.15 62.35 31.08C61.88 30.77 61.73 30.23 61.96 29.77L64.68 25.15C64.99 24.69 65.53 24.54 66 24.77C66.46 25.07 66.62 25.62 66.39 26.08L63.67 30.69C63.43 31.07 63.12 31.23 62.81 31.23Z" fill="#3B6BE9" fill-opacity="1.000000" fill-rule="nonzero"/>
	<path id="Vector" d="M72.59 39.3C72.12 39.3 71.74 39 71.66 38.53C71.51 38 71.81 37.46 72.36 37.3L77.33 36.07C77.87 35.92 78.41 36.22 78.57 36.76C78.73 37.3 78.42 37.84 77.87 37.99L72.83 39.22C72.75 39.3 72.67 39.3 72.59 39.3Z" fill="#3B6BE9" fill-opacity="1.000000" fill-rule="nonzero"/>
	<path id="Vector" d="M38.19 31.15C37.88 31.15 37.49 31 37.33 30.69L34.46 26.15C34.16 25.69 34.31 25.08 34.77 24.77C35.24 24.46 35.86 24.61 36.17 25.07L38.97 29.61C39.28 30.07 39.12 30.69 38.66 31C38.5 31.07 38.35 31.15 38.19 31.15Z" fill="#3B6BE9" fill-opacity="1.000000" fill-rule="nonzero"/>
	<path id="Vector" d="M28.33 39.23C28.25 39.23 28.17 39.23 28.02 39.15L22.73 37.61C22.19 37.46 21.88 36.92 22.04 36.38C22.19 35.84 22.73 35.53 23.28 35.69L28.56 37.22C29.1 37.38 29.42 37.91 29.26 38.46C29.18 38.92 28.79 39.23 28.33 39.23Z" fill="#3B6BE9" fill-opacity="1.000000" fill-rule="nonzero"/>
	<path id="Vector" d="M59.32 82C58.85 82 58.46 81.69 58.31 81.23L53.42 55.61C53.34 55.07 53.65 54.54 54.19 54.46C54.74 54.38 55.28 54.69 55.36 55.23L60.33 80.84C60.41 81.38 60.09 81.92 59.55 82L59.32 82Z" fill="#3B6BE9" fill-opacity="1.000000" fill-rule="nonzero"/>
	<path id="Vector" d="M41.46 82L41.3 82C40.76 81.92 40.45 81.38 40.53 80.84L45.5 55.23C45.57 54.69 46.12 54.38 46.66 54.46C47.2 54.54 47.52 55.07 47.44 55.61L42.47 81.23C42.31 81.69 41.92 82 41.46 82Z" fill="#3B6BE9" fill-opacity="1.000000" fill-rule="nonzero"/>
	<path id="Vector" d="M54.89 60.3L45.88 60.3C45.34 60.3 44.87 59.84 44.87 59.3C44.87 58.76 45.34 58.3 45.88 58.3L54.89 58.3C55.43 58.3 55.9 58.76 55.9 59.3C55.9 59.92 55.43 60.3 54.89 60.3Z" fill="#3B6BE9" fill-opacity="1.000000" fill-rule="nonzero"/>
	<path id="Vector" d="M56.6 68.22L44.4 68.22C43.86 68.22 43.39 67.76 43.39 67.22C43.39 66.68 43.86 66.22 44.4 66.22L56.52 66.22C57.06 66.22 57.53 66.68 57.53 67.22C57.6 67.76 57.14 68.22 56.6 68.22Z" fill="#3B6BE9" fill-opacity="1.000000" fill-rule="nonzero"/>
	<path id="Vector" d="M58.15 76.07L42.77 76.07C42.23 76.07 41.76 75.61 41.76 75.07C41.76 74.53 42.23 74.07 42.77 74.07L58.15 74.07C58.7 74.07 59.16 74.53 59.16 75.07C59.16 75.61 58.7 76.07 58.15 76.07Z" fill="#3B6BE9" fill-opacity="1.000000" fill-rule="nonzero"/>
</svg>
