<svg width="100.000000" height="100.000000" viewBox="0 0 100 100" fill="none" xmlns="http://www.w3.org/2000/svg" xmlns:xlink="http://www.w3.org/1999/xlink">
	<desc>
			Created with Pixso.
	</desc>
	<defs/>
	<rect id="Rectangle 281" rx="24.000000" width="100.000000" height="100.000000" fill="#F4F7FF" fill-opacity="1.000000"/>
	<path id="Vector" d="M32.8 49.97C32.8 57.02 37.55 62.97 44.01 64.81L44 35.13C37.55 36.98 32.8 42.93 32.8 49.97L32.8 49.97ZM42.33 37.56L42.33 62.39C31.94 57.49 31.94 42.45 42.33 37.56ZM73.02 71.32L72.25 65.02C72.79 64.08 73.01 62.95 72.82 61.81L68.93 38.97L68.93 36.62C68.93 35.62 68.36 34.76 67.55 34.29L67.55 29.53C67.56 27.94 66.11 26.85 64.58 27.03C63.21 27.03 62.09 28.15 62.09 29.53L62.09 34.29C61.27 34.76 60.71 35.62 60.71 36.62L60.71 39.58L56.92 61.81C56.72 63.02 56.98 64.2 57.58 65.17L56.83 71.32C56.76 71.86 56.93 72.4 57.29 72.8C58.24 73.94 60.26 73.45 60.55 71.98L61.65 67.22C62.18 67.01 62.56 66.52 62.66 65.96L64.87 52.98L67.08 65.96C67.18 66.56 67.63 67.08 68.21 67.27L69.3 71.98C69.85 74.28 73.29 73.67 73.02 71.32ZM63.83 29.21C64.06 28.58 65.19 28.54 65.63 28.94C65.78 29.1 65.87 29.3 65.87 29.52L65.87 33.93L63.76 33.93C63.79 33.88 63.7 29.02 63.83 29.21L63.83 29.21ZM58.92 71.6C58.86 71.86 58.46 71.78 58.49 71.52L59.08 66.69C59.35 66.86 59.65 67.01 59.95 67.12L58.92 71.6ZM62 59.84L61 65.68C60.35 65.55 59.75 65.22 59.32 64.72C57.99 63.41 58.75 61.22 58.99 59.65L61.82 42.99C62.27 44.14 63.2 45.13 64.5 45.14C64.19 46.95 62.35 57.78 62 59.84L62 59.84ZM63.65 42.9L62.89 41.37C62.78 41.08 62.35 40.45 62.39 40.12L62.39 36.62C62.39 36.06 62.88 35.6 63.43 35.61L66.21 35.61C66.77 35.61 67.25 36.05 67.25 36.62L67.25 40.12C67.28 40.41 67.02 40.8 66.9 41.05L65.98 42.9C65.81 43.25 65.44 43.47 65.04 43.47C64.51 43.51 63.9 43.44 63.65 42.9ZM68.74 65.68L67.75 59.9L65.72 47.99L66.25 44.86C67.08 44.51 67.54 43.61 67.88 42.84L70.74 59.59C70.95 61.09 71.72 63.33 70.51 64.61C70.07 65.16 69.44 65.54 68.73 65.68L68.74 65.68ZM71.35 71.62C71.28 71.81 70.98 71.81 70.93 71.6L69.89 67.08C70.2 66.96 70.49 66.81 70.76 66.63L71.36 71.52C71.36 71.56 71.36 71.59 71.35 71.62L71.35 71.62ZM64.82 41.06C63.48 41.08 63.49 38.91 64.82 38.96C66.15 38.92 66.14 41.09 64.82 41.06ZM50.2 26.57C16.59 25.81 16.6 74.14 50.2 73.38C51.12 73.38 51.87 72.63 51.87 71.7L51.87 28.24C51.87 27.32 51.12 26.57 50.2 26.57ZM50.2 71.7C49.88 71.7 48.11 71.71 47.83 71.69L47.95 69.58C47.98 69.12 47.63 68.72 47.17 68.69C46.7 68.66 46.31 69.02 46.28 69.48L46.16 71.6C43.96 71.39 41.87 70.85 39.92 70.04L40.81 68.11C41 67.69 40.82 67.19 40.4 67C39.98 66.8 39.48 66.99 39.29 67.41L38.39 69.33C36.47 68.35 34.7 67.09 33.16 65.6L34.7 64.13C35.03 63.81 35.04 63.28 34.72 62.94C34.4 62.61 33.87 62.6 33.54 62.92L32 64.39C30.58 62.79 29.39 60.98 28.48 59L30.46 58.19C30.89 58.01 31.09 57.53 30.92 57.1C30.74 56.67 30.25 56.46 29.82 56.64L27.84 57.46C27.1 55.47 26.66 53.36 26.54 51.15L28.68 51.12C29.15 51.11 29.52 50.73 29.51 50.27C29.5 49.81 29.12 49.44 28.66 49.44L26.52 49.48C26.57 47.27 26.95 45.14 27.61 43.14L29.62 43.89C30.04 44.05 30.53 43.84 30.7 43.4C30.86 42.96 30.64 42.48 30.21 42.32L28.2 41.57C29.04 39.56 30.17 37.72 31.54 36.07L33.13 37.5C33.47 37.81 34 37.78 34.31 37.43C34.62 37.09 34.59 36.56 34.25 36.25L32.66 34.83C34.16 33.29 35.88 31.97 37.77 30.93L38.73 32.83C38.94 33.25 39.45 33.41 39.85 33.2C40.27 33 40.43 32.49 40.23 32.08L39.27 30.18C41.2 29.3 43.28 28.7 45.46 28.42L45.65 30.53C45.69 31 46.1 31.33 46.56 31.29C47.02 31.25 47.36 30.84 47.32 30.38L47.12 28.27C47.85 28.23 49.44 28.25 50.19 28.24L50.19 71.7L50.2 71.7Z" fill="#3B6BE9" fill-opacity="1.000000" fill-rule="nonzero"/>
</svg>
