<svg width="100.000000" height="100.000000" viewBox="0 0 100 100" fill="none" xmlns="http://www.w3.org/2000/svg" xmlns:xlink="http://www.w3.org/1999/xlink">
	<desc>
			Created with Pixso.
	</desc>
	<defs/>
	<rect id="Rectangle 281" rx="24.000000" width="100.000000" height="100.000000" fill="#FFFFFF" fill-opacity="1.000000"/>
	<path id="Vector" d="M68.6 22.35C68.42 22.06 68.08 21.87 67.72 21.87L57.89 21.87C57.52 21.87 57.17 22.07 56.99 22.39L50 34.78L43.02 22.39C42.84 22.07 42.49 21.87 42.12 21.87L32.27 21.87C31.91 21.87 31.57 22.06 31.39 22.36C31.2 22.66 31.2 23.03 31.37 23.34L42.85 43.69L39.02 43.69C36.46 43.69 34.37 45.7 34.37 48.17C34.37 50.65 36.46 52.66 39.02 52.66L42.22 52.66C37.41 55.28 34.15 60.26 34.15 65.96C34.15 74.39 41.26 81.25 49.99 81.25C58.73 81.25 65.84 74.39 65.84 65.96C65.84 60.26 62.58 55.28 57.77 52.66L60.97 52.66C63.53 52.66 65.62 50.65 65.62 48.17C65.62 45.7 63.53 43.69 60.97 43.69L57.15 43.69L68.62 23.33C68.79 23.02 68.79 22.65 68.6 22.35L68.6 22.35ZM34 23.85L41.51 23.85L52.7 43.68L45.19 43.68L34 23.85L34 23.85ZM63.8 65.96C63.8 73.3 57.61 79.26 50 79.26C42.4 79.26 36.21 73.3 36.21 65.96C36.21 58.62 42.39 52.65 50 52.65C57.61 52.65 63.8 58.62 63.8 65.96ZM63.58 48.17C63.58 49.55 62.41 50.68 60.98 50.68L39.03 50.68C37.6 50.68 36.43 49.55 36.43 48.17C36.43 46.79 37.6 45.66 39.03 45.66L45.56 45.66C45.57 45.66 45.58 45.67 45.59 45.67L55.43 45.67C55.45 45.67 55.46 45.66 55.47 45.66L60.98 45.66C62.41 45.66 63.58 46.79 63.58 48.17ZM54.93 43.5L51.18 36.85L58.5 23.85L66 23.85L54.93 43.5Z" fill="#3064EA" fill-opacity="1.000000" fill-rule="nonzero"/>
	<path id="Vector" d="M44.15 68.33L43.84 73.26C43.82 73.6 43.98 73.93 44.26 74.12C44.44 74.25 44.65 74.31 44.86 74.31C44.99 74.31 45.12 74.29 45.24 74.24L50 72.43L54.76 74.24C55.09 74.37 55.46 74.32 55.74 74.12C56.02 73.93 56.18 73.6 56.16 73.26L55.85 68.33L59.11 64.53C59.33 64.26 59.4 63.91 59.29 63.59C59.18 63.27 58.91 63.02 58.57 62.94L53.62 61.7L50.87 57.54C50.68 57.25 50.35 57.08 50 57.08C49.65 57.08 49.32 57.25 49.13 57.54L46.38 61.7L41.43 62.94C41.09 63.02 40.82 63.27 40.71 63.59C40.6 63.91 40.67 64.27 40.89 64.53L44.15 68.33L44.15 68.33ZM47.29 63.52C47.54 63.46 47.76 63.31 47.9 63.1L50 59.92L52.1 63.1C52.24 63.31 52.46 63.46 52.71 63.52L56.5 64.47L54.01 67.38C53.85 67.57 53.76 67.82 53.78 68.07L54.02 71.83L50.38 70.45C50.14 70.36 49.87 70.36 49.63 70.45L45.99 71.83L46.23 68.07C46.24 67.82 46.16 67.57 45.99 67.38L43.51 64.47L47.29 63.52Z" fill="#3064EA" fill-opacity="1.000000" fill-rule="nonzero"/>
</svg>
