<svg width="221.124756" height="48.590515" viewBox="0 0 221.125 48.5905" fill="none" xmlns="http://www.w3.org/2000/svg" xmlns:xlink="http://www.w3.org/1999/xlink">
	<desc>
			Created with Pixso.
	</desc>
	<defs/>
	<path id="Vector" d="M15.04 37.39C17.56 35.27 14.32 31.05 11.8 30.73C11.07 30.64 10.12 30.58 10.06 31.49C9.9 33.94 10.39 36.63 10.79 39.04C11.15 41.25 11.74 42.98 12.72 44.91C13.07 45.6 12.95 46.25 12.37 46.74C9.82 48.89 -0.79 48.67 0.63 43.14M21.63 31.53C22.62 30.09 21.71 34.53 21.68 35.06C21.49 38.56 21.47 42.68 22.42 46.09C22.87 47.67 25 45.91 25.53 45.35C27.3 43.52 28.1 41.23 28.24 38.7M22.62 26.89C22.63 26.95 22.65 27.01 22.66 27.06M22.66 27.06C22.76 27.43 22.91 27.68 23.07 27.82C23.64 28.33 24.4 27.63 23.81 27.16C23.54 26.94 23.01 26.95 22.66 27.06C22.24 27.21 22.11 27.52 23.07 27.82M23.07 27.82C23.13 27.84 23.19 27.86 23.26 27.88M35.85 30.59C36.5 35.93 37.11 41.26 37.56 46.61C37.64 47.54 37.52 44.56 37.56 44.15C37.79 41.69 38.02 36.4 40.39 34.91C40.46 34.86 42.94 42.82 43.83 43.53C45.87 45.16 50.2 41.89 51.7 40.88M48.94 22.61C49.26 22.41 54.93 18.55 55.16 20.16C55.4 21.82 54.92 23.09 54.32 24.56C54.13 25.04 59.47 25.12 60.21 25.21M70.55 18.1C70.37 21.68 70.03 28.89 69.74 32.76C69.7 33.19 69.68 33.66 69.65 34.13C69.54 35.7 69.36 37.44 68.65 38.76C67.64 40.61 65.25 39.71 65.11 37.64C64.98 35.84 67.87 32.57 69.65 34.13M69.65 34.13C69.73 34.2 69.8 34.28 69.88 34.37C70.76 35.44 71.32 36.63 72.43 37.51C73.64 38.48 75.18 39.13 76.61 39.68C79.7 40.86 83.6 40.07 86.69 39.25M104.83 21.35L106.37 33.92M100.66 29.83L109.9 28.7M128.11 21.95C129.15 21.72 128.86 17.66 126.95 20.09C125.39 22.07 125.41 23.86 125.77 26.29C126.11 28.58 127.93 29.72 130.11 29.83C131.93 29.92 134.51 29.81 135.97 28.7M140.05 19.43C140 19.8 139.98 20.29 139.99 20.85M139.99 20.85C140.04 22.79 140.51 25.49 141.57 26.42C142.21 26.98 143.74 26.61 144.18 25.98C145.71 23.81 145.29 19.45 143.36 17.66C142.79 17.13 140.3 16.45 139.96 17.5C139.64 18.47 139.58 19.82 139.99 20.85C140.18 21.32 140.47 21.72 140.88 21.98M151.64 18.27C152.42 17.17 153.88 14.9 151.81 14.12C151.34 13.94 150.31 14.07 149.92 14.41C147.7 16.33 150.96 21.98 151.87 23.73C152.42 24.8 153.54 26.02 151.93 26.22C150.32 26.41 148.94 26.67 148.04 25.1M157.8 6.88C159.08 6.73 159.65 6.75 159.79 8.24C159.92 9.67 159.54 11.35 158.53 12.38C157.57 13.35 158.71 13.03 159.36 12.81C160.41 12.45 161.68 12.49 162.58 11.88M170.9 5.28C169.67 9.66 168.49 14.06 167.23 18.44C166.49 21.04 165.72 23.64 164.9 26.22C164.81 26.51 164.22 28.84 163.74 29.38C163.31 29.86 161.39 24.51 161.58 23.56C161.95 21.72 164.14 20.46 165.55 19.55C165.8 19.4 166.54 18.8 167.23 18.44M167.23 18.44C167.7 18.2 168.14 18.07 168.37 18.26C169.29 19 169.78 20.54 170.48 21.49C171.26 22.57 172.36 23.44 173.56 23.98C175.62 24.91 177.66 24.83 179.72 24.14M188.71 12.4L196.16 11.49M188.42 16.43L197.92 15.26M204.92 10.69C207.56 10.17 210.69 9.94 212.51 7.63C213.36 6.56 213.85 5.17 214.23 3.77C214.46 2.92 214.65 2.07 214.86 1.29C215.48 -1 214.44 2.35 214.39 2.7C214.33 3.06 214.28 3.41 214.23 3.77M214.23 3.77C213.68 7.75 213.58 11.84 213.11 15.8M207.81 17.25C212.1 16.71 216.37 16.11 220.62 15.41" stroke="#CACACA" stroke-opacity="1.000000" stroke-width="1.000000" stroke-linecap="round"/>
</svg>
