<svg width="175.830566" height="115.126213" viewBox="0 0 175.831 115.126" fill="none" xmlns="http://www.w3.org/2000/svg" xmlns:xlink="http://www.w3.org/1999/xlink">
	<desc>
			Created with Pixso.
	</desc>
	<defs/>
	<path id="Vector" d="M175.83 81.7L115.44 0.45L115.11 0L20.32 89.19Q19.29 88.18 18.14 87.32Q14.67 84.73 10.15 83.56L9.9 84.52Q14.24 85.65 17.56 88.14Q18.63 88.94 19.59 89.87L0 108.32L25.78 104.42Q25.77 109.21 23.77 114.78L24.71 115.12Q26.81 109.29 26.78 104.26L175.83 81.7ZM26.76 103.26L127.74 87.97L117.54 20.58L113.29 23.94L103.44 12.35L21.02 89.9Q22.15 91.1 23.12 92.5Q24.6 94.61 25.48 96.95Q26.6 99.92 26.76 103.26ZM20.29 90.59L3.01 106.85L25.76 103.41Q25.61 100.08 24.47 97.13Q23.65 95 22.3 93.07Q21.37 91.74 20.29 90.59ZM104.17 11.66L113.43 22.56L117.37 19.45L114.69 1.76L104.17 11.66ZM115.84 2.65L124.26 13.99L118.27 18.73L115.84 2.65ZM118.44 19.87L128.73 87.82L174.03 80.96L124.86 14.79L118.44 19.87ZM31.91 58.19Q31.63 59.16 31.49 59.64C31.41 59.91 31.56 60.18 31.83 60.26C32.1 60.34 32.37 60.19 32.45 59.92Q32.59 59.44 32.87 58.47Q33.2 57.39 33.45 56.49C33.46 56.5 33.48 56.51 33.49 56.51Q33.76 57.98 34.26 58.85Q34.62 59.48 35.13 59.92Q35.96 60.65 37.2 60.91Q38.12 61.1 38.78 60.77Q38.87 60.73 38.96 60.68Q39.13 60.57 39.27 60.43Q39.82 59.9 39.92 58.92Q39.93 58.84 39.94 58.67Q40.15 56.72 39.95 55.82Q39.73 54.84 39.13 54.44Q38.56 54.06 37.63 54.2Q37.45 54.22 37.11 54.27Q35.35 54.52 34.29 55.06Q34.24 54.56 34.18 53.9Q35.65 48.38 35.8 44.33Q35.86 42.5 35.49 41.82Q35.35 41.56 35.14 41.47Q35.02 41.42 34.87 41.43Q34.78 41.44 34.71 41.46Q34.46 41.55 34.29 41.84Q34.04 42.27 33.81 43.42Q33.8 43.5 33.77 43.67Q32.63 49.4 33.02 52.32Q33.08 52.77 33.17 53.81Q32.77 55.31 31.91 58.19ZM33.92 50.73Q34.7 47.13 34.8 44.29Q34.81 43.89 34.81 43.56Q34.8 43.59 34.79 43.62Q34.78 43.7 34.75 43.86Q33.9 48.12 33.92 50.73ZM34.43 56.13Q34.67 57.57 35.12 58.35Q35.37 58.79 35.73 59.11Q36.39 59.72 37.4 59.93Q38.05 60.06 38.43 59.83Q38.44 59.82 38.46 59.81Q38.85 59.54 38.92 58.81Q38.93 58.73 38.95 58.56Q39.14 56.78 38.97 56.04Q38.86 55.52 38.54 55.31Q38.24 55.11 37.78 55.18Q37.6 55.21 37.26 55.26Q35.35 55.53 34.43 56.13ZM156.03 30.35Q156.31 30.44 156.56 30.59Q157.02 30.84 157.38 31.27C157.35 31.03 157.49 30.8 157.73 30.73C158 30.65 158.27 30.8 158.35 31.07Q158.47 31.45 158.69 32.26Q160.08 37.34 162.16 38.46Q162.52 38.65 162.86 38.63Q163.77 38.59 164.6 37.07Q165.03 36.31 165.27 35.97C165.44 35.74 165.75 35.69 165.97 35.86C166.2 36.03 166.25 36.33 166.08 36.56Q165.87 36.85 165.48 37.56Q164.41 39.49 163.12 39.65Q162.44 39.74 161.69 39.34Q160.26 38.57 159.16 36.4Q159.08 37.65 158.5 38.88Q158.02 39.88 157.24 40.46Q156.38 41.1 155.14 41.23Q155.11 41.24 155.05 41.24Q153.62 41.4 153.05 41.17Q151.23 40.44 150.69 36.3Q150.65 35.99 150.65 35.67Q150.64 33.83 151.96 31.97Q153.28 30.12 155 29.59Q155.34 29.49 155.69 29.43C155.96 29.39 156.21 29.58 156.25 29.85C156.29 30.06 156.19 30.25 156.03 30.35ZM154.6 30.84Q153.61 31.38 152.77 32.55Q151.57 34.24 151.66 35.86Q151.66 36.01 151.69 36.17Q152.15 39.73 153.42 40.24Q153.76 40.38 154.94 40.25Q155 40.24 155.03 40.24Q155.99 40.14 156.65 39.64Q157.24 39.2 157.59 38.45Q158.11 37.36 158.15 36.24Q158.24 34.2 156.76 32.1Q156.45 31.66 156.03 31.44Q155.73 31.28 155.38 31.23Q155.13 31.19 154.99 31.16C154.8 31.13 154.66 31 154.6 30.84ZM105.48 65.44Q105.48 65.47 105.47 65.5C105.45 65.78 105.66 66.01 105.94 66.03C106.22 66.05 106.45 65.85 106.47 65.57L106.58 65.51Q106.66 65.45 106.7 65.41Q107.51 64.71 108.44 63.46Q109.21 62.41 109.84 61.41Q109.96 62.63 110.07 64.38Q110.25 67.4 110.48 68.9Q110.5 69.01 110.56 69.61Q110.65 70.63 110.7 70.91Q110.73 71.07 110.77 71.16Q110.85 71.34 110.99 71.42Q111.12 71.49 111.3 71.47Q111.45 71.45 111.56 71.37Q111.68 71.28 111.73 71.1Q111.78 70.94 111.79 70.41Q111.8 70.17 111.81 69.63Q111.86 64.19 113.84 63.37Q113.92 63.33 114.01 63.31Q114.05 63.29 114.1 63.29Q114.57 63.27 115.08 64.42Q115.5 65.35 116.11 67.75Q116.55 69.46 116.76 69.93Q117.02 70.47 117.4 70.6Q117.52 70.64 117.65 70.64Q117.69 70.64 117.74 70.63Q118.14 70.59 118.5 70.15Q118.84 69.73 119.36 68.56Q119.51 68.23 119.56 68.13C119.69 67.88 119.59 67.58 119.35 67.46C119.1 67.33 118.8 67.42 118.67 67.67Q118.61 67.79 118.45 68.15Q117.98 69.2 117.72 69.52L117.66 69.64L117.67 69.51Q117.49 69.13 117.08 67.5Q116.45 65.02 116 64.01Q115.3 62.45 114.36 62.3Q114.05 62.25 113.72 62.35Q113.49 62.42 113.28 62.53Q111.76 63.29 111.17 65.89Q111.12 65.17 111.07 64.32Q110.89 61.48 110.68 59.99Q111.63 58.27 112.17 56.66L112.18 56.63Q112.62 55.28 112.73 54.41Q112.83 53.58 112.62 53.1Q112.47 52.74 112.2 52.59Q111.87 52.39 111.36 52.5Q111.29 52.51 111.23 52.53Q110.17 52.86 109.61 54.8Q109.13 56.48 109.61 59.57Q109.63 59.7 109.64 59.8Q108.81 61.27 107.63 62.86Q106.77 64.03 106.05 64.65Q106.03 64.67 105.96 64.72Q105.54 65.05 105.48 65.44ZM110.45 58.25Q110.25 56.23 110.58 55.08Q111 53.6 111.57 53.48Q111.68 53.46 111.7 53.49Q111.7 53.5 111.71 53.5Q111.8 53.72 111.74 54.29Q111.64 55.06 111.23 56.32L111.22 56.34Q110.91 57.28 110.45 58.25ZM42.26 80.36C42.22 80.08 41.97 79.9 41.69 79.94C41.42 79.98 41.23 80.23 41.27 80.51Q41.73 83.52 40.33 87.43Q37.16 87.82 35.86 89.59Q35.31 90.34 35.09 91.35Q34.65 93.48 35.48 94.29Q35.73 94.53 36.1 94.66Q36.21 94.69 36.32 94.71Q37.47 94.84 38.92 92.49Q39.04 92.3 39.08 92.24Q40.22 90.49 41.05 88.36Q42.97 88.22 46.33 88.59Q46.52 88.62 46.61 88.62Q48.02 88.78 50.78 88.83Q51.47 88.85 51.82 88.86Q52.63 88.88 53.14 88.5Q53.69 88.09 53.89 87.22C53.96 86.95 53.79 86.68 53.52 86.62C53.25 86.56 52.98 86.72 52.92 86.99Q52.81 87.46 52.51 87.68Q52.25 87.87 51.85 87.86Q51.49 87.85 50.8 87.83Q48.08 87.78 46.72 87.63Q46.62 87.62 46.44 87.6Q43.36 87.26 41.42 87.34Q42.73 83.45 42.26 80.36ZM39.92 88.5Q37.52 88.92 36.58 90.32Q36.22 90.87 36.07 91.56Q35.72 93.25 36.27 93.63Q36.34 93.68 36.42 93.71Q36.9 93.87 38.07 91.97Q38.19 91.76 38.24 91.69Q39.2 90.24 39.92 88.5ZM136.86 76.79L138.29 86.24L139.28 86.09L137.7 75.65L127.26 77.23L127.41 78.22L136.86 76.79ZM87.08 101.93Q87.73 101.55 89.34 101.73C89.62 101.76 89.86 101.57 89.89 101.29C89.93 101.01 89.73 100.77 89.45 100.74Q87.51 100.51 86.57 101.07Q86.34 101.2 86.16 101.38Q85.35 102.18 85.39 103.86Q85.49 107.33 87.28 109.2Q87.4 109.32 87.52 109.44Q88.02 109.89 88.58 110.01Q89.49 110.21 90.58 109.53Q91.78 108.79 92.68 107.41C92.83 107.18 92.77 106.87 92.53 106.72C92.3 106.57 91.99 106.63 91.84 106.87Q91.07 108.06 90.05 108.68Q89.28 109.16 88.69 108.99Q88.43 108.91 88.2 108.7Q88.18 108.68 88.15 108.66Q86.49 107.07 86.39 103.83Q86.35 102.46 86.98 101.99Q87.03 101.96 87.08 101.93Z" fill="#CACACA" fill-opacity="1.000000" fill-rule="evenodd"/>
</svg>
