<svg width="175.309082" height="39.191010" viewBox="0 0 175.309 39.191" fill="none" xmlns="http://www.w3.org/2000/svg" xmlns:xlink="http://www.w3.org/1999/xlink">
	<desc>
			Created with Pixso.
	</desc>
	<defs/>
	<path id="Vector" d="M16.23 5.18C14.42 4.09 8.03 4.15 6.4 5.59C4.68 7.12 4.84 12.3 5.97 14.03C8.04 17.22 12.24 16.29 15.47 16.04C17.93 15.85 18.79 14.58 20.31 12.85M25.52 3.88C25.14 6.6 21.72 16.98 28.05 15.54C32.49 14.52 33.59 10.76 32.83 6.67C31.93 1.89 27.39 1.39 23.39 1.85C22.21 1.98 21.8 6.74 22.51 7.67M45.05 4.83C45.42 3.24 42.92 1.19 41.43 1.49C40.23 1.73 39.21 2.78 38.57 3.79C36.96 6.31 38.95 9.55 40.5 11.6C40.96 12.2 42.89 15.84 40.97 15.89C39.63 15.93 38.15 15.59 38.07 14.27M56.67 0.5C56.59 0.66 53.97 5.59 52.18 8.79C51.29 10.4 50.6 11.57 50.55 11.49C50.25 11.03 50.95 9.96 51.19 9.65C51.42 9.36 51.76 9.07 52.18 8.79M52.18 8.79C54.44 7.32 59.01 6.29 60.69 7.7C62.44 9.18 62.68 10.74 65.26 10.8C67.33 10.84 69.3 10.88 71.37 10.76M0.5 24.54L77.34 19.76M16.76 31.1C17.05 30.32 15.58 28.1 15.64 30.41C15.67 31.66 16.15 32.56 16.49 33.72C16.72 34.53 18.15 37.43 17.49 38.18C15.94 39.93 13.86 36.65 13.78 35.25M26.5 31.21C26.9 33.35 27.27 35.49 27.62 37.63M26.68 28.32C26.78 29.8 26.82 27.95 25.58 28.03M37.14 28.39C37.44 30.21 37.71 32.04 38.04 33.86C38.12 34.28 38.04 35.24 38.44 35.08C38.86 34.9 39.09 33.49 39.28 33.12C39.95 31.84 41 30.26 42.26 29.51C44.66 28.08 46.1 33.3 46.21 35.03M62.75 22.83C62.68 22.98 61.12 26.77 59.4 30.5C57.63 34.37 55.68 38.18 55.03 37.85C54.05 37.34 53.73 35.44 53.98 34.51C54.48 32.72 57.17 29.66 59.32 30.47C59.35 30.48 59.38 30.49 59.4 30.5M59.4 30.5C62.33 31.62 65.02 33.44 68.13 34.03C71.51 34.66 74.74 33.87 77.76 32.35M88.47 19.06L98.88 18.41M90.96 24.32L99.94 23.76M115.58 14.49C110.89 15.03 109.25 23.47 112.36 26.53C115.62 29.72 118.58 25.82 120.09 23.22M121.66 19.52C122.44 20.93 123.67 25.16 125.81 25.03C126.51 24.98 127.6 25.13 128.1 24.53C129.71 22.61 128.3 18.79 126.56 17.45C125.18 16.39 122.25 15.15 121.19 17.07C120.77 17.83 120.49 21.64 121.46 22.06M134.7 3.21C135.24 9 134.85 15.97 137.55 21.33C138.17 22.55 140.74 21.94 141.79 21.87C145.1 21.66 145.65 18.76 144.51 15.93M130.41 15.37C133.04 14.99 135.62 14.32 138.27 14.16M161.48 4.78C161.43 5.12 161.13 8.95 160.38 12.53C159.6 16.22 158.34 19.65 156.38 18.72C155.86 18.47 156.16 16.64 156.3 16.26C156.9 14.72 158.37 13.49 159.77 12.68C159.96 12.57 160.17 12.52 160.38 12.53M160.38 12.53C161.31 12.55 162.36 13.55 163.05 13.98C164.71 15 166.43 15.73 168.32 16.23C170.38 16.78 172.68 16.34 174.8 16.21" stroke="#CACACA" stroke-opacity="1.000000" stroke-width="1.000000" stroke-linecap="round"/>
</svg>
