<svg width="198.514893" height="113.682739" viewBox="0 0 198.515 113.683" fill="none" xmlns="http://www.w3.org/2000/svg" xmlns:xlink="http://www.w3.org/1999/xlink">
	<desc>
			Created with Pixso.
	</desc>
	<defs/>
	<path id="Vector" d="M25.67 1.63L23.47 3.35C23.25 3.52 22.94 3.48 22.77 3.26C22.6 3.04 22.63 2.73 22.86 2.56L26.01 0.1C26.23 -0.07 26.54 -0.03 26.71 0.19L29.17 3.35C29.34 3.57 29.3 3.88 29.08 4.05C28.86 4.22 28.55 4.18 28.38 3.96L26.66 1.76L20.21 53.69Q25.15 45.22 33.79 38.8Q41.7 32.91 50.46 31.07Q56.91 29.71 63.81 30.54L63.81 30.54L63.94 30.55L63.94 30.55L63.94 30.55L64.06 30.57L64.06 30.57Q70.96 31.47 76.87 34.38Q84.92 38.33 91.14 45.98Q98.3 54.78 100.93 64.76Q101.2 65.79 101.43 66.84L196.87 78.8L195.16 76.59C194.98 76.37 195.02 76.06 195.24 75.89C195.46 75.72 195.77 75.76 195.95 75.98L198.4 79.14C198.57 79.36 198.54 79.67 198.32 79.84L195.16 82.29C194.94 82.47 194.63 82.43 194.46 82.21C194.29 81.99 194.33 81.68 194.55 81.5L196.75 79.79L183.31 78.11Q182.84 79.06 182.33 80Q177.33 89.03 168.24 95.79Q160.33 101.67 151.56 103.52Q145.12 104.88 138.21 104.05L138.21 104.05L138.09 104.03L138.09 104.03L138.09 104.03L137.96 104.02L137.96 104.02Q131.07 103.12 125.16 100.21Q117.11 96.26 110.88 88.61Q103.72 79.81 101.09 69.83Q100.82 68.79 100.6 67.75L19.72 57.61L12.75 113.68L11.76 113.55L18.73 57.49L0 55.14L0.12 54.15L18.71 56.48Q18.81 56.29 18.9 56.1L25.67 1.63ZM19.87 56.4L19.84 56.62L100.38 66.71Q100.21 65.94 100.01 65.18Q97.45 55.31 90.37 46.61Q84.27 39.11 76.38 35.25Q70.58 32.41 63.81 31.55L63.81 31.55L63.81 31.55L63.81 31.55Q57.04 30.72 50.72 32.04Q42.14 33.84 34.38 39.6Q25.39 46.28 20.5 55.22Q20.18 55.8 19.87 56.4ZM101.65 67.88Q101.82 68.65 102.02 69.41Q104.58 79.28 111.65 87.97Q117.76 95.47 125.64 99.33Q131.44 102.17 138.21 103.04L138.21 103.04L138.21 103.04Q144.98 103.87 151.3 102.55Q159.89 100.75 167.64 94.99Q176.64 88.3 181.53 79.36Q181.91 78.68 182.26 77.98L101.65 67.88ZM162.69 51.48Q162.63 51.92 162.52 52.79Q161.85 58.07 159.94 60.44Q161.25 61.15 162.16 61.33Q163.85 61.67 167.19 60.42Q167.81 60.19 168.11 60.08C168.38 59.99 168.66 60.12 168.75 60.39C168.84 60.65 168.71 60.93 168.45 61.03Q168.15 61.13 167.54 61.36Q163.93 62.71 161.97 62.31Q160.82 62.08 159.24 61.19Q159.15 61.27 158.98 61.43Q156.23 64.12 154.96 63.59Q154.67 63.47 154.47 63.27Q153.76 62.54 154.15 60.72Q154.55 58.88 155.54 58.46Q155.79 58.36 156.07 58.35Q156.9 58.31 158.26 59.36Q158.68 59.69 158.85 59.79Q158.97 59.86 159.07 59.93Q160.87 57.81 161.53 52.66Q161.64 51.78 161.7 51.34C161.74 51.06 161.99 50.87 162.27 50.91C162.54 50.95 162.73 51.2 162.69 51.48ZM158.34 60.66Q158.34 60.65 158.33 60.65Q158.11 60.51 157.64 60.15Q156.58 59.32 156.12 59.35Q156.08 59.35 156.03 59.36Q155.44 59.48 155.13 60.93Q154.83 62.33 155.26 62.63Q155.3 62.65 155.34 62.67Q156 62.94 158.29 60.71Q158.32 60.68 158.34 60.66ZM135.76 48.58L135.76 48.58Q135.76 48.58 135.76 48.58C135.76 48.58 135.76 48.58 135.76 48.58ZM136.32 48Q136.62 48.03 136.78 48.2Q136.99 48.43 136.97 48.88Q136.96 49.13 136.85 49.32Q136.73 49.54 136.55 49.63Q136.42 49.69 136.25 49.68Q135.42 49.62 135.09 49.32Q134.9 49.15 134.84 48.95Q134.69 48.51 135.08 47.9C135.23 47.67 135.53 47.6 135.77 47.75C135.89 47.82 135.96 47.94 135.99 48.07C136.08 48.01 136.2 47.98 136.32 48ZM126 52.08Q126.22 51.67 126.53 51.35Q127.57 50.28 129.63 50.2Q131.14 50.13 131.41 50.43Q131.58 50.62 131.57 50.8Q131.57 51.01 131.36 51.21Q131.25 51.33 131.02 51.44Q130.66 51.62 129.85 51.9L129.64 51.97Q127.77 52.61 126.73 52.92Q126.41 53.83 126.6 55.22Q126.68 55.77 126.99 57.03Q127.87 60.59 127.21 62.17Q127 62.67 126.64 62.99Q125.77 63.74 124.02 63.48Q121.87 63.17 120.93 61.97C120.76 61.75 120.8 61.44 121.02 61.27C121.24 61.09 121.55 61.13 121.72 61.35Q122.41 62.24 124.16 62.49Q125.54 62.7 126.07 62.12Q126.21 61.98 126.29 61.78Q126.82 60.5 126.02 57.27Q125.69 55.96 125.61 55.35Q125.44 54.15 125.62 53.22Q122.62 53.94 120.23 53.64C119.95 53.61 119.76 53.36 119.79 53.08C119.83 52.81 120.07 52.61 120.35 52.65Q122.81 52.96 126 52.08ZM135.4 51.78L134.37 60.11Q134.33 60.4 134.27 60.98Q134.02 63.34 133.58 64.48C133.48 64.74 133.19 64.87 132.93 64.77C132.67 64.67 132.54 64.38 132.64 64.12Q133.04 63.1 133.28 60.87Q133.34 60.28 133.38 59.99L134.41 51.65C134.45 51.38 134.69 51.19 134.97 51.22C135.25 51.25 135.44 51.5 135.4 51.78ZM138.82 54.27C138.84 53.99 138.63 53.76 138.35 53.74C138.07 53.72 137.84 53.93 137.82 54.21Q137.76 55.32 137.45 59.17Q137.25 61.68 137.21 62.35Q137.17 63 137.23 63.14Q137.31 63.34 137.46 63.41Q137.61 63.48 137.82 63.43Q137.93 63.4 138.01 63.33Q138.09 63.27 138.14 63.16Q138.17 63.11 138.18 63.04Q138.2 62.99 138.21 62.91Q138.23 62.76 138.27 62.46Q138.79 58.23 140.45 57.65Q140.53 57.62 140.6 57.61Q141.96 57.38 144.03 61.35Q144.12 61.52 144.16 61.6Q144.19 61.65 144.32 62.14Q144.85 64.1 145.54 64.16Q145.55 64.16 145.56 64.16Q146.49 64.21 148.39 61.58Q148.75 61.08 148.85 60.96C149.03 60.75 149.01 60.44 148.8 60.26C148.59 60.07 148.28 60.1 148.09 60.31Q147.96 60.46 147.57 61Q146.17 62.94 145.71 63.14Q145.66 63.05 145.6 62.9Q145.48 62.6 145.28 61.88Q145.12 61.28 145.05 61.13Q145.01 61.06 144.92 60.89Q142.62 56.48 140.61 56.6Q140.36 56.62 140.12 56.71Q140.06 56.72 140.01 56.75Q139.15 57.09 138.54 58.05Q138.77 55.21 138.82 54.27Z" fill="#CACACA" fill-opacity="1.000000" fill-rule="evenodd"/>
</svg>
