<svg width="200" height="115" viewBox="0 0 200 115" fill="none" xmlns="http://www.w3.org/2000/svg">
<path d="M27.6865 1.1019C27.5168 0.883862 27.2027 0.844513 26.9849 1.01401L23.435 3.77618C23.2172 3.94568 23.1781 4.25985 23.3478 4.47789C23.5174 4.69593 23.8315 4.73528 24.0494 4.56578L27.2048 2.11051L29.6624 5.26889C29.832 5.48693 30.1461 5.52628 30.364 5.35678C30.5818 5.18728 30.6209 4.87312 30.4512 4.65508L27.6865 1.1019ZM199.289 80.7507C199.507 80.5812 199.546 80.267 199.377 80.049L196.612 76.4958C196.442 76.2777 196.128 76.2384 195.91 76.4079C195.692 76.5774 195.653 76.8916 195.823 77.1096L198.281 80.268L195.125 82.7232C194.907 82.8927 194.868 83.2069 195.038 83.4249C195.208 83.643 195.522 83.6823 195.74 83.5128L199.289 80.7507ZM121.325 53.5607C121.051 53.5263 120.802 53.7207 120.768 53.9947C120.734 54.2687 120.928 54.5187 121.202 54.553L121.325 53.5607ZM130.665 52.336L130.502 51.8629L130.665 52.336ZM130.626 51.6065L130.605 51.1069L130.626 51.6065ZM127.079 56.1958L126.584 56.2647L127.079 56.1958ZM127.722 62.8885L127.261 62.6948L127.722 62.8885ZM122.696 62.2648C122.526 62.0468 122.212 62.0074 121.994 62.1769C121.776 62.3464 121.737 62.6606 121.907 62.8786L122.696 62.2648ZM136.377 52.69C136.412 52.416 136.217 52.166 135.943 52.1317C135.669 52.0974 135.419 52.2917 135.385 52.5657L136.377 52.69ZM133.617 65.0323C133.518 65.2899 133.646 65.5795 133.904 65.6793C134.161 65.779 134.451 65.6511 134.55 65.3936L133.617 65.0323ZM139.794 55.1802C139.81 54.9044 139.599 54.668 139.323 54.6519C139.048 54.6359 138.811 54.8464 138.796 55.1222L139.794 55.1802ZM141.259 58.0886L141.425 58.5602L141.259 58.0886ZM145.577 62.2785L146.019 62.0454L145.577 62.2785ZM146.56 64.5755L146.535 65.0749L146.56 64.5755ZM149.825 61.8738C150.005 61.6649 149.982 61.3491 149.773 61.1685C149.564 60.988 149.248 61.011 149.068 61.2199L149.825 61.8738ZM163.666 52.3899C163.704 52.1165 163.514 51.8633 163.241 51.8244C162.967 51.7855 162.714 51.9756 162.676 52.249L163.666 52.3899ZM159.909 61.6933L160.25 62.059L159.909 61.6933ZM156.124 64.0399L156.314 63.5776L156.124 64.0399ZM157.07 59.759L157.096 60.2584L157.07 59.759ZM159.565 61.1325L159.826 60.7063L159.565 61.1325ZM163.041 62.7325L162.943 63.2228L163.041 62.7325ZM169.42 61.9379C169.681 61.8461 169.817 61.5605 169.725 61.3C169.633 61.0396 169.347 60.9029 169.087 60.9947L169.42 61.9379ZM136.896 49.3493C137.044 49.116 136.974 48.8071 136.741 48.6593C136.507 48.5116 136.199 48.581 136.051 48.8143L136.896 49.3493ZM137.258 50.0895L137.225 50.5885L137.258 50.0895ZM137.291 48.9077C137.017 48.8733 136.767 49.0677 136.733 49.3417C136.699 49.6157 136.894 49.8657 137.168 49.9L137.291 48.9077ZM27.2921 1.40881L26.7959 1.34666L12.7328 114.465L13.2289 114.527L13.725 114.59L27.7882 1.47096L27.2921 1.40881ZM1.03092 55.5593L0.969233 56.0555L198.921 80.852L198.982 80.3559L199.044 79.8597L1.09261 55.0631L1.03092 55.5593ZM19.9777 57.9327L20.4278 58.1507C22.7926 53.259 27.86 46.0858 35.3569 40.5119C42.845 34.9446 52.7393 30.9841 64.789 32.458L64.8492 31.9617L64.9095 31.4653C52.5538 29.9539 42.4083 34.0226 34.7599 39.7091C27.1204 45.389 21.9548 52.6939 19.5276 57.7147L19.9777 57.9327ZM64.8492 31.9617L64.789 32.458C64.8303 32.4631 64.8716 32.4682 64.913 32.4734L64.9747 31.9772L65.0363 31.481C64.994 31.4757 64.9517 31.4705 64.9095 31.4653L64.8492 31.9617ZM101.986 68.2055L102.476 68.1053C101.352 62.6397 98.1335 54.2845 92.1189 46.8942C86.0973 39.4954 77.2592 33.0487 64.9124 31.4657L64.8492 31.9617L64.7861 32.4577C76.8271 34.0014 85.4483 40.2814 91.3437 47.5252C97.246 54.7775 100.402 62.9808 101.496 68.3058L101.986 68.2055ZM64.8492 31.9617L64.9124 31.4657C64.8701 31.4603 64.8279 31.4549 64.7855 31.4496L64.7239 31.9458L64.6622 32.442C64.7035 32.4472 64.7448 32.4524 64.7861 32.4577L64.8492 31.9617ZM101.986 68.2055L101.496 68.3058C102.62 73.7714 105.839 82.1266 111.853 89.5169C117.875 96.9157 126.713 103.362 139.06 104.945L139.123 104.449L139.186 103.953C127.145 102.41 118.524 96.1297 112.628 88.8859C106.726 81.6336 103.57 73.4303 102.476 68.1053L101.986 68.2055ZM139.123 104.449L139.06 104.945C139.102 104.951 139.144 104.956 139.187 104.961L139.248 104.465L139.31 103.969C139.269 103.964 139.227 103.959 139.186 103.953L139.123 104.449ZM183.994 78.4784L183.544 78.2604C181.18 83.1521 176.112 90.3253 168.615 95.8992C161.127 101.466 151.233 105.427 139.183 103.953L139.123 104.449L139.063 104.946C151.418 106.457 161.564 102.388 169.212 96.702C176.852 91.0221 182.017 83.7172 184.445 78.6964L183.994 78.4784ZM139.123 104.449L139.183 103.953C139.142 103.948 139.101 103.943 139.059 103.938L138.998 104.434L138.936 104.93C138.978 104.935 139.02 104.941 139.063 104.946L139.123 104.449ZM121.264 54.0568L121.202 54.553C123.396 54.8278 125.461 54.4666 127.465 53.8989L127.328 53.4177L127.192 52.9366C125.25 53.4866 123.332 53.812 121.325 53.5607L121.264 54.0568ZM127.328 53.4177L127.465 53.8989C128.594 53.5791 129.714 53.1901 130.827 52.8091L130.665 52.336L130.502 51.8629C129.381 52.2467 128.289 52.6257 127.192 52.9366L127.328 53.4177ZM130.665 52.336L130.827 52.8091C131.362 52.6256 131.748 52.4758 131.995 52.3522C132.109 52.295 132.24 52.2209 132.338 52.1246C132.385 52.0781 132.473 51.9809 132.508 51.8326C132.552 51.6459 132.495 51.4668 132.384 51.3419C132.295 51.242 132.19 51.1955 132.133 51.1743C132.069 51.1499 132.005 51.1352 131.95 51.1255C131.841 51.106 131.714 51.0967 131.585 51.0922C131.323 51.083 130.983 51.0915 130.605 51.1069L130.626 51.6065L130.647 52.1061C131.023 52.0909 131.33 52.084 131.551 52.0917C131.663 52.0956 131.735 52.1028 131.776 52.1101C131.796 52.1138 131.795 52.115 131.78 52.1094C131.772 52.1063 131.754 52.099 131.731 52.0853C131.709 52.072 131.673 52.0474 131.637 52.0068C131.6 51.9644 131.56 51.9036 131.539 51.8239C131.517 51.743 131.52 51.6653 131.535 51.5996C131.55 51.5374 131.575 51.492 131.593 51.4647C131.611 51.4372 131.628 51.4196 131.636 51.4114C131.652 51.3963 131.656 51.3957 131.636 51.4084C131.619 51.4196 131.59 51.4362 131.546 51.4581C131.364 51.5493 131.033 51.681 130.502 51.8629L130.665 52.336ZM130.626 51.6065L130.605 51.1069C128.761 51.1817 127.472 51.8788 126.872 53.2122L127.328 53.4177L127.784 53.6233C128.179 52.7467 129.041 52.1713 130.647 52.1061L130.626 51.6065ZM127.328 53.4177L126.872 53.2122C126.491 54.0598 126.421 55.1001 126.584 56.2647L127.079 56.1958L127.574 56.1268C127.426 55.0672 127.508 54.2367 127.784 53.6233L127.328 53.4177ZM127.079 56.1958L126.584 56.2647C126.659 56.7964 126.793 57.3636 126.932 57.9276C127.073 58.4997 127.219 59.0698 127.332 59.6403C127.558 60.7921 127.621 61.8357 127.261 62.6948L127.722 62.8885L128.183 63.0821C128.665 61.9336 128.547 60.6373 128.313 59.4478C128.194 58.8477 128.04 58.2469 127.902 57.6891C127.763 57.1231 127.641 56.6015 127.574 56.1268L127.079 56.1958ZM127.722 62.8885L127.261 62.6948C127.127 63.0149 126.876 63.223 126.513 63.3416C126.138 63.4643 125.657 63.4834 125.136 63.4066C124.619 63.3304 124.094 63.1644 123.649 62.9497C123.195 62.7308 122.865 62.4817 122.696 62.2648L122.301 62.5717L121.907 62.8786C122.208 63.2657 122.69 63.5976 123.215 63.8506C123.749 64.1078 124.37 64.3046 124.991 64.396C125.607 64.4868 126.255 64.4784 126.825 64.2922C127.407 64.1018 127.916 63.7197 128.183 63.0821L127.722 62.8885ZM135.881 52.6279L135.385 52.5657L134.349 60.8985L134.845 60.9607L135.342 61.0228L136.377 52.69L135.881 52.6279ZM134.845 60.9607L134.349 60.8985C134.164 62.3896 134.111 63.7555 133.617 65.0323L134.084 65.213L134.55 65.3936C135.102 63.9656 135.17 62.3996 135.342 61.0228L134.845 60.9607ZM139.295 55.1512L138.796 55.1222C138.718 56.4762 138.498 59.184 138.338 61.2274C138.258 62.2441 138.193 63.1003 138.169 63.533C138.163 63.6398 138.159 63.7302 138.159 63.7928C138.158 63.8128 138.158 63.868 138.166 63.9216C138.168 63.9357 138.174 63.9744 138.191 64.0206C138.199 64.0433 138.216 64.088 138.25 64.1375C138.281 64.1829 138.358 64.2776 138.497 64.3267C138.659 64.3837 138.81 64.3469 138.911 64.2898C138.996 64.2413 139.046 64.18 139.066 64.1526C139.108 64.0961 139.128 64.0435 139.133 64.0304C139.156 63.9719 139.167 63.9091 139.17 63.8919C139.176 63.8579 139.183 63.8166 139.19 63.7699C139.204 63.6758 139.221 63.5446 139.242 63.3742L138.746 63.312L138.25 63.2499C138.229 63.4177 138.213 63.5398 138.201 63.6223C138.194 63.6639 138.19 63.6918 138.187 63.7087C138.18 63.7424 138.184 63.7122 138.2 63.6692C138.204 63.6599 138.223 63.6101 138.263 63.5553C138.283 63.5288 138.332 63.468 138.417 63.4199C138.517 63.3632 138.667 63.3265 138.828 63.3832C138.967 63.4322 139.043 63.5265 139.074 63.5711C139.107 63.6199 139.124 63.6636 139.132 63.6851C139.148 63.7288 139.153 63.7641 139.155 63.7736C139.16 63.8093 139.158 63.8303 139.158 63.8009C139.159 63.7645 139.161 63.6951 139.167 63.5891C139.19 63.1706 139.254 62.3278 139.334 61.3064C139.494 59.2735 139.716 56.5481 139.794 55.1802L139.295 55.1512ZM138.746 63.312L139.242 63.3742C139.323 62.7243 139.564 61.593 139.965 60.5688C140.165 60.0571 140.398 59.5909 140.658 59.2292C140.923 58.8618 141.184 58.6455 141.425 58.5602L141.259 58.0886L141.092 57.617C140.578 57.7983 140.169 58.1969 139.847 58.6447C139.52 59.0981 139.252 59.6474 139.034 60.2035C138.599 61.315 138.34 62.5287 138.25 63.2499L138.746 63.312ZM141.259 58.0886L141.425 58.5602C141.729 58.4532 142.041 58.5009 142.395 58.7104C142.76 58.9269 143.132 59.2979 143.493 59.7634C144.216 60.6945 144.792 61.8621 145.135 62.5117L145.577 62.2785L146.019 62.0454C145.697 61.4343 145.073 60.1683 144.283 59.1504C143.888 58.6414 143.425 58.159 142.904 57.8503C142.372 57.5347 141.748 57.3855 141.092 57.617L141.259 58.0886ZM145.577 62.2785L145.135 62.5117C145.134 62.51 145.147 62.5386 145.174 62.6231C145.198 62.6987 145.225 62.7943 145.256 62.9085C145.317 63.1308 145.392 63.4173 145.476 63.6917C145.56 63.9623 145.662 64.2543 145.786 64.4879C145.847 64.6039 145.927 64.7305 146.031 64.8354C146.133 64.9388 146.302 65.0631 146.535 65.0749L146.56 64.5755L146.584 64.0761C146.696 64.0817 146.749 64.1402 146.741 64.1319C146.734 64.125 146.708 64.0938 146.669 64.0198C146.591 63.8734 146.512 63.6562 146.432 63.398C146.354 63.1435 146.285 62.8816 146.22 62.6452C146.189 62.5301 146.158 62.4189 146.128 62.3239C146.101 62.2376 146.065 62.1317 146.019 62.0454L145.577 62.2785ZM146.56 64.5755L146.535 65.0749C146.764 65.0865 146.972 65.0127 147.141 64.9247C147.313 64.835 147.478 64.7121 147.631 64.5787C147.937 64.3124 148.246 63.959 148.528 63.6059C148.813 63.2498 149.085 62.8761 149.312 62.562C149.547 62.2357 149.719 61.9966 149.825 61.8738L149.446 61.5469L149.068 61.2199C148.925 61.3849 148.719 61.6737 148.501 61.9759C148.274 62.2904 148.015 62.646 147.748 62.9806C147.477 63.3182 147.212 63.6168 146.974 63.8243C146.855 63.9279 146.756 63.9974 146.677 64.0381C146.596 64.0805 146.57 64.0753 146.584 64.0761L146.56 64.5755ZM163.171 52.3194L162.676 52.249C162.431 53.9816 162.293 55.5962 161.91 57.1174C161.532 58.6162 160.927 59.9671 159.778 61.1234L160.133 61.4759L160.488 61.8284C161.8 60.5071 162.473 58.9749 162.88 57.3626C163.28 55.7726 163.431 54.0477 163.666 52.3899L163.171 52.3194ZM160.133 61.4759L159.778 61.1234C159.71 61.192 159.64 61.2601 159.568 61.3275L159.909 61.6933L160.25 62.059C160.332 61.9829 160.411 61.9061 160.488 61.8284L160.133 61.4759ZM159.909 61.6933L159.568 61.3275C159.2 61.6706 158.571 62.332 157.87 62.8789C157.522 63.1499 157.187 63.3682 156.891 63.493C156.585 63.6223 156.407 63.616 156.314 63.5776L156.124 64.0399L155.934 64.5023C156.392 64.6912 156.879 64.584 157.281 64.4144C157.693 64.2402 158.108 63.9615 158.485 63.6678C159.232 63.0852 159.943 62.3459 160.25 62.059L159.909 61.6933ZM156.124 64.0399L156.314 63.5776C156.24 63.5473 156.115 63.4319 156.049 63.0767C155.986 62.7395 156.004 62.2963 156.102 61.8426C156.2 61.3897 156.369 60.9687 156.573 60.6698C156.787 60.358 156.976 60.2646 157.096 60.2584L157.07 59.759L157.044 59.2596C156.467 59.2892 156.035 59.6855 155.748 60.1041C155.453 60.5355 155.242 61.0853 155.124 61.6304C155.007 62.1747 154.972 62.7566 155.066 63.2584C155.155 63.7421 155.393 64.2794 155.934 64.5023L156.124 64.0399ZM157.07 59.759L157.096 60.2584C157.367 60.2445 157.693 60.3887 158.105 60.6761C158.303 60.8143 158.495 60.9666 158.698 61.1236C158.892 61.2748 159.1 61.4341 159.304 61.5587L159.565 61.1325L159.826 60.7063C159.676 60.6145 159.509 60.4881 159.31 60.3339C159.119 60.1856 158.901 60.0128 158.677 59.856C158.243 59.5533 157.674 59.2272 157.044 59.2596L157.07 59.759ZM159.565 61.1325L159.304 61.5587C159.489 61.6724 159.681 61.7895 159.879 61.9064L160.133 61.4759L160.387 61.0454C160.196 60.9326 160.009 60.8188 159.826 60.7063L159.565 61.1325ZM160.133 61.4759L159.879 61.9064C160.791 62.4449 161.857 63.0047 162.943 63.2228L163.041 62.7325L163.139 62.2422C162.229 62.0595 161.286 61.5762 160.387 61.0454L160.133 61.4759ZM163.041 62.7325L162.943 63.2228C164.124 63.46 165.268 63.2995 166.345 63.0053C167.404 62.7159 168.469 62.2734 169.42 61.9379L169.254 61.4663L169.087 60.9947C168.061 61.3567 167.095 61.7632 166.08 62.0405C165.083 62.3131 164.109 62.437 163.139 62.2422L163.041 62.7325ZM136.474 49.0818L136.051 48.8143C135.908 49.0404 135.8 49.2809 135.783 49.5275C135.764 49.8058 135.865 50.0525 136.062 50.2305C136.234 50.3863 136.449 50.4631 136.63 50.5069C136.818 50.5525 137.025 50.5753 137.225 50.5885L137.258 50.0895L137.29 49.5905C137.113 49.5788 136.971 49.5608 136.865 49.5349C136.75 49.5072 136.724 49.4817 136.733 49.4895C136.742 49.4976 136.758 49.5162 136.77 49.5452C136.781 49.5739 136.781 49.5943 136.78 49.5963C136.78 49.5964 136.781 49.5914 136.784 49.5803C136.786 49.5693 136.791 49.5532 136.8 49.5316C136.817 49.4877 136.847 49.4276 136.896 49.3493L136.474 49.0818ZM137.258 50.0895L137.225 50.5885C137.578 50.6117 137.765 50.3458 137.826 50.2339C137.902 50.0945 137.938 49.9358 137.945 49.7937C137.952 49.6527 137.935 49.4725 137.848 49.3034C137.753 49.1165 137.568 48.9423 137.291 48.9077L137.229 49.4038L137.168 49.9C137.124 49.8945 137.075 49.8761 137.031 49.8432C136.991 49.812 136.969 49.7783 136.958 49.7575C136.94 49.7231 136.948 49.7141 136.946 49.7411C136.945 49.7669 136.938 49.7726 136.948 49.754C136.954 49.7443 136.975 49.7074 137.024 49.6695C137.079 49.6272 137.172 49.5827 137.29 49.5905L137.258 50.0895Z" fill="#CACACA"/>
</svg>
