<svg width="176" height="40" viewBox="0 0 176 40" fill="none" xmlns="http://www.w3.org/2000/svg">
<path d="M16.3195 5.47093C14.5103 4.37819 8.11683 4.4399 6.49235 5.88275C4.7732 7.40968 4.93167 12.5892 6.05665 14.3209C8.12939 17.5114 12.3243 16.5789 15.5542 16.3327C18.0181 16.1449 18.8823 14.8689 20.4023 13.147M25.6104 4.17156C25.2242 6.88973 21.8095 17.2741 28.1388 15.8295C32.5788 14.8161 33.6805 11.0561 32.9134 6.96093C32.0191 2.18685 27.4786 1.68048 23.4813 2.14134C22.2984 2.27773 21.8922 7.02991 22.6023 7.96361M45.1349 5.11822C45.5045 3.53421 43.0077 1.47862 41.5225 1.77857C40.3202 2.02135 39.303 3.07517 38.6618 4.07951C37.0517 6.60158 39.0333 9.8427 40.5902 11.8897C41.0518 12.4967 42.9764 16.1354 41.058 16.1862C39.7232 16.2216 38.2352 15.879 38.1534 14.5648M56.7606 0.789229C56.6789 0.954285 54.0592 5.88249 52.2721 9.08553M52.2721 9.08553C51.3758 10.6918 50.6889 11.8643 50.6365 11.7845C50.3334 11.3232 51.0391 10.2554 51.2828 9.9419C51.5099 9.64973 51.8509 9.35997 52.2721 9.08553ZM52.2721 9.08553C54.5324 7.61269 59.1022 6.58129 60.7737 7.98899C62.5323 9.47014 62.7659 11.0341 65.3524 11.0882C67.4135 11.1314 69.3884 11.1773 71.4579 11.0484M0.583148 24.8353L77.4256 20.0492M16.8519 31.3917C17.1421 30.6115 15.6684 28.397 15.7275 30.7008C15.7596 31.9519 16.2411 32.8563 16.5746 34.0124C16.809 34.825 18.2343 37.7275 17.5736 38.4761C16.0302 40.2244 13.9532 36.9385 13.8663 35.5428M26.5923 31.5058C26.9916 33.6434 27.3629 35.7799 27.7131 37.9245M26.7722 28.6109C26.8644 30.0917 26.9046 28.2422 25.6726 28.3189M37.2302 28.6806C37.5292 30.5045 37.802 32.333 38.1317 34.1516C38.2078 34.5714 38.1323 35.5284 38.5279 35.3686C38.9517 35.1974 39.1741 33.781 39.3674 33.4138C40.0415 32.1333 41.0857 30.5549 42.3467 29.8038C44.7467 28.3742 46.1877 33.5967 46.2953 35.3254M62.8378 23.1205C62.7705 23.2687 61.2114 27.0581 59.4928 30.7957M59.4928 30.7957C57.7148 34.6625 55.766 38.4739 55.122 38.14C54.1378 37.6299 53.8151 35.7365 54.0729 34.8009C54.5652 33.0147 57.2554 29.9516 59.4088 30.7638C59.4368 30.7744 59.4648 30.785 59.4928 30.7957ZM59.4928 30.7957C62.4231 31.9161 65.1074 33.734 68.2215 34.3202C71.6012 34.9565 74.8316 34.1611 77.8495 32.6392M88.5574 19.3559L98.9706 18.7073M91.0469 24.6077L100.024 24.0486M115.668 14.7834C110.982 15.3237 109.337 23.7633 112.452 26.8191C115.708 30.0123 118.67 26.111 120.177 23.5143M121.749 19.8119C122.527 21.2272 123.763 25.454 125.897 25.321C126.597 25.2775 127.684 25.4206 128.189 24.8178C129.798 22.8982 128.387 19.0859 126.647 17.7445C125.268 16.6818 122.333 15.4427 121.276 17.3581C120.853 18.1241 120.575 21.9355 121.546 22.3478M134.791 3.49908C135.323 9.2891 134.938 16.263 137.643 21.6254C138.256 22.8413 140.825 22.2282 141.882 22.1624C145.191 21.9563 145.737 19.0505 144.596 16.2258M130.502 15.6619C133.125 15.2868 135.709 14.6167 138.357 14.4518M161.564 5.07577C161.519 5.41206 161.219 9.23977 160.465 12.8207M160.465 12.8207C159.687 16.515 158.426 19.9466 156.464 19.0112C155.945 18.7637 156.244 16.934 156.391 16.5525C156.984 15.013 158.461 13.7807 159.853 12.9725C160.047 12.8597 160.253 12.8152 160.465 12.8207ZM160.465 12.8207C161.4 12.8452 162.45 13.8474 163.138 14.2699C164.8 15.2901 166.52 16.0246 168.405 16.5252C170.471 17.0736 172.77 16.6338 174.892 16.5016" stroke="#CACACA" stroke-linecap="round"/>
</svg>
