<svg width="177" height="116" viewBox="0 0 177 116" fill="none" xmlns="http://www.w3.org/2000/svg">
<path d="M2.2682 107.898L1.92555 107.534L0.758315 108.632L2.34305 108.392L2.2682 107.898ZM115.804 1.05736L116.205 0.75912L115.87 0.308358L115.461 0.693229L115.804 1.05736ZM175.691 81.6437L175.766 82.138L176.589 82.0135L176.092 81.3454L175.691 81.6437ZM114.125 23.5657L113.744 23.8896L114.056 24.2574L114.435 23.9578L114.125 23.5657ZM138.039 76.5345L138.534 76.4597L138.459 75.9653L137.965 76.0402L138.039 76.5345ZM106.237 65.8123C106.218 66.0878 106.426 66.3264 106.702 66.3453C106.977 66.3642 107.216 66.1561 107.235 65.8806L106.237 65.8123ZM107.14 65.3447L107.467 65.7233L107.14 65.3447ZM108.799 63.4718L109.202 63.7684L108.799 63.4718ZM112.456 56.8113L111.981 56.6538L112.456 56.8113ZM112.225 53.3023L112.122 52.813L112.225 53.3023ZM110.858 55.2512L111.339 55.3891L110.858 55.2512ZM112.057 70.7073L111.557 70.6939L112.057 70.7073ZM114.626 63.1404L114.771 63.6186L114.626 63.1404ZM117.98 70.0337L117.527 70.2459L117.98 70.0337ZM120.322 68.4427C120.449 68.1976 120.354 67.8958 120.108 67.7687C119.863 67.6415 119.562 67.7371 119.434 67.9822L120.322 68.4427ZM32.2517 59.9526C32.1742 60.2176 32.3262 60.4954 32.5912 60.5729C32.8562 60.6505 33.1339 60.4985 33.2115 60.2334L32.2517 59.9526ZM36.0608 44.6217L35.5611 44.6036L36.0608 44.6217ZM35.0674 43.834L35.5579 43.931L35.0674 43.834ZM34.2787 52.567L33.7831 52.6332L34.2787 52.567ZM35.4527 58.9135L35.0191 59.1625L35.4527 58.9135ZM40.1834 59.1781L39.6859 59.1275L40.1834 59.1781ZM34.135 56.0058C33.9308 56.1916 33.9158 56.5079 34.1017 56.7121C34.2875 56.9164 34.6037 56.9313 34.808 56.7454L34.135 56.0058ZM90.1029 102.044C90.3772 102.076 90.6252 101.879 90.6567 101.605C90.6883 101.331 90.4915 101.083 90.2172 101.051L90.1029 102.044ZM86.6563 104.155L87.1561 104.141L86.6563 104.155ZM88.6257 109.382L88.965 109.015L88.6257 109.382ZM93.4408 107.726C93.5912 107.495 93.5256 107.185 93.294 107.035C93.0625 106.884 92.7528 106.95 92.6023 107.181L93.4408 107.726ZM156.599 30.7356C156.872 30.6942 157.06 30.4394 157.018 30.1664C156.977 29.8933 156.722 29.7055 156.449 29.7468L156.599 30.7356ZM151.952 36.5485L151.457 36.6133L151.952 36.5485ZM153.997 41.019L153.812 41.4833L153.997 41.019ZM155.85 41.0495L155.796 40.5524L155.85 41.0495ZM158.806 38.9761L159.258 39.1894L158.806 38.9761ZM157.929 32.1254L158.337 31.8374L157.929 32.1254ZM155.922 30.4923C155.65 30.4451 155.391 30.6275 155.344 30.8996C155.297 31.1717 155.479 31.4305 155.752 31.4776L155.922 30.4923ZM159.117 31.3786C159.039 31.1138 158.76 30.9629 158.496 31.0414C158.231 31.1199 158.08 31.3981 158.158 31.6629L159.117 31.3786ZM166.842 36.8734C167.006 36.6511 166.959 36.3381 166.737 36.1743C166.514 36.0104 166.201 36.0578 166.037 36.2801L166.842 36.8734ZM43.0263 80.673C42.9849 80.3999 42.7301 80.2121 42.4571 80.2534C42.184 80.2948 41.9962 80.5496 42.0375 80.8227L43.0263 80.673ZM39.423 92.2762L39.0052 92.0015L39.423 92.2762ZM37.0226 94.4951L37.1818 94.0211L37.0226 94.4951ZM36.3472 91.7673L36.8365 91.8702L36.3472 91.7673ZM47.4262 88.4408L47.3717 88.9378L47.4262 88.4408ZM52.5962 88.6702L52.5834 89.17L52.5962 88.6702ZM54.6555 87.5342C54.7185 87.2653 54.5517 86.9963 54.2828 86.9332C54.014 86.8702 53.7449 87.0371 53.6819 87.3059L54.6555 87.5342ZM2.2682 107.898L2.61086 108.262L116.147 1.42148L115.804 1.05736L115.461 0.693229L1.92555 107.534L2.2682 107.898ZM115.804 1.05736L115.403 1.35559L175.29 81.9419L175.691 81.6437L176.092 81.3454L116.205 0.75912L115.804 1.05736ZM175.691 81.6437L175.616 81.1493L128.997 88.2069L129.072 88.7012L129.147 89.1956L175.766 82.138L175.691 81.6437ZM129.072 88.7012L128.997 88.2069L2.19336 107.403L2.2682 107.898L2.34305 108.392L129.147 89.1956L129.072 88.7012ZM115.804 1.05736L115.31 1.1322L128.578 88.7761L129.072 88.7012L129.566 88.6264L116.298 0.982516L115.804 1.05736ZM104.068 11.7357L103.687 12.0595L113.744 23.8896L114.125 23.5657L114.506 23.2419L104.449 11.4119L104.068 11.7357ZM114.125 23.5657L114.435 23.9578L126.359 14.5227L126.049 14.1306L125.739 13.7385L113.814 23.1736L114.125 23.5657ZM139.545 86.4799L140.039 86.4051L138.534 76.4597L138.039 76.5345L137.545 76.6094L139.051 86.5548L139.545 86.4799ZM138.039 76.5345L137.965 76.0402L128.019 77.5458L128.094 78.0401L128.169 78.5345L138.114 77.0289L138.039 76.5345ZM106.736 65.8465L107.235 65.8806C107.234 65.8933 107.229 65.9095 107.222 65.9227C107.217 65.9328 107.215 65.931 107.23 65.9161C107.247 65.8996 107.271 65.8795 107.314 65.8457C107.351 65.8172 107.412 65.771 107.467 65.7233L107.14 65.3447L106.814 64.9661C106.783 64.9929 106.752 65.0161 106.699 65.0574C106.653 65.0934 106.59 65.1435 106.529 65.2033C106.399 65.3312 106.257 65.5271 106.237 65.8123L106.736 65.8465ZM107.14 65.3447L107.467 65.7233C108.149 65.1355 108.695 64.4554 109.202 63.7684L108.799 63.4718L108.397 63.1751C107.904 63.8437 107.41 64.4521 106.814 64.9661L107.14 65.3447ZM108.799 63.4718L109.202 63.7684C109.966 62.7313 110.711 61.6177 111.364 60.4513L110.928 60.2069L110.492 59.9625C109.863 61.0843 109.143 62.1625 108.397 63.1751L108.799 63.4718ZM110.928 60.2069L111.364 60.4513C111.989 59.3356 112.533 58.1678 112.931 56.9688L112.456 56.8113L111.981 56.6538C111.608 57.78 111.093 58.8893 110.492 59.9625L110.928 60.2069ZM112.456 56.8113L112.931 56.9688C113.037 56.6491 113.375 55.6456 113.487 54.7536C113.541 54.3245 113.557 53.8233 113.393 53.431C113.305 53.2188 113.152 53.0108 112.902 52.8869C112.657 52.7648 112.385 52.7577 112.122 52.813L112.225 53.3023L112.328 53.7916C112.444 53.7671 112.471 53.7893 112.457 53.7822C112.439 53.7732 112.45 53.7659 112.471 53.8165C112.526 53.9498 112.546 54.2229 112.495 54.6291C112.397 55.4075 112.093 56.3182 111.981 56.6538L112.456 56.8113ZM112.225 53.3023L112.122 52.813C111.517 52.9404 111.127 53.4162 110.884 53.8406C110.634 54.2781 110.476 54.7717 110.378 55.1132L110.858 55.2512L111.339 55.3891C111.432 55.0643 111.564 54.6663 111.752 54.3373C111.948 53.9954 112.146 53.8299 112.328 53.7916L112.225 53.3023ZM110.858 55.2512L110.378 55.1132C109.857 56.929 110.175 58.5721 110.427 60.2419L110.922 60.1671L111.416 60.0923C111.154 58.3595 110.89 56.9531 111.339 55.3891L110.858 55.2512ZM110.922 60.1671L110.427 60.2419C110.429 60.255 110.431 60.268 110.433 60.281L110.928 60.2069L111.422 60.1329C111.42 60.1192 111.418 60.1057 111.416 60.0923L110.922 60.1671ZM110.928 60.2069L110.433 60.281C110.651 61.737 110.742 63.2104 110.833 64.7074C110.925 66.197 111.017 67.7102 111.244 69.2085L111.739 69.1337L112.233 69.0588C112.014 67.6119 111.923 66.1431 111.831 64.6462C111.74 63.1568 111.648 61.6394 111.422 60.1328L110.928 60.2069ZM111.739 69.1337L111.244 69.2085C111.26 69.3131 111.285 69.5654 111.315 69.8846C111.344 70.1927 111.378 70.5476 111.411 70.8318C111.427 70.9729 111.444 71.1046 111.462 71.2074C111.47 71.2576 111.48 71.3112 111.493 71.3596C111.499 71.3831 111.509 71.4162 111.523 71.4515C111.53 71.4689 111.565 71.5613 111.649 71.6433C111.697 71.6896 111.799 71.77 111.955 71.7849C112.125 71.8011 112.256 71.7305 112.333 71.6644C112.45 71.5637 112.487 71.4369 112.491 71.4233C112.515 71.352 112.524 71.2758 112.529 71.228C112.542 71.1143 112.551 70.946 112.557 70.7207L112.057 70.7073L111.557 70.6939C111.551 70.9157 111.543 71.0487 111.535 71.1183C111.531 71.1621 111.529 71.148 111.541 71.1126C111.545 71.1008 111.553 71.0766 111.569 71.0469C111.582 71.0217 111.615 70.9626 111.681 70.9064C111.754 70.843 111.883 70.7735 112.05 70.7894C112.202 70.804 112.301 70.8827 112.346 70.9257C112.423 71.0014 112.452 71.0817 112.452 71.0818C112.459 71.0999 112.461 71.1104 112.46 71.1066C112.459 71.1003 112.454 71.0802 112.448 71.0407C112.435 70.9643 112.42 70.8535 112.404 70.7168C112.373 70.445 112.34 70.1018 112.31 69.7897C112.282 69.4885 112.254 69.1985 112.233 69.0588L111.739 69.1337ZM112.057 70.7073L112.557 70.7207C112.588 69.5468 112.535 67.9384 112.811 66.4883C113.09 65.0277 113.661 63.9575 114.771 63.6186L114.626 63.1404L114.48 62.6621C112.806 63.1729 112.124 64.7557 111.829 66.3009C111.532 67.8566 111.586 69.6068 111.557 70.6939L112.057 70.7073ZM114.626 63.1404L114.771 63.6186C114.885 63.5838 114.974 63.5956 115.069 63.6456C115.18 63.7041 115.315 63.8257 115.466 64.0406C115.77 64.4743 116.043 65.1504 116.294 65.9476C116.542 66.7358 116.752 67.5893 116.948 68.3601C117.139 69.1055 117.326 69.8162 117.527 70.2459L117.98 70.0337L118.433 69.8215C118.281 69.4971 118.117 68.8945 117.917 68.1127C117.724 67.3564 117.506 66.4689 117.248 65.6477C116.993 64.8355 116.682 64.0338 116.284 63.4665C116.084 63.181 115.839 62.9214 115.535 62.7611C115.215 62.5923 114.854 62.5477 114.48 62.6621L114.626 63.1404ZM117.98 70.0337L117.527 70.2459C117.627 70.4574 117.758 70.658 117.944 70.7927C118.154 70.9449 118.402 70.9882 118.642 70.9199C118.853 70.86 119.017 70.726 119.136 70.6049C119.259 70.4785 119.369 70.3271 119.466 70.175C119.66 69.8707 119.836 69.5055 119.98 69.19C120.134 68.8533 120.241 68.5987 120.322 68.4427L119.878 68.2125L119.434 67.9822C119.339 68.1665 119.203 68.4857 119.071 68.7743C118.929 69.0842 118.777 69.3958 118.623 69.6378C118.546 69.7588 118.477 69.8479 118.42 69.9066C118.357 69.9706 118.339 69.9664 118.369 69.958C118.428 69.9412 118.496 69.958 118.53 69.9827C118.54 69.9899 118.499 69.9621 118.433 69.8215L117.98 70.0337ZM32.7316 60.093L33.2115 60.2334C33.7825 58.2818 34.3872 56.2984 34.9216 54.3003L34.4386 54.1711L33.9556 54.0419C33.4252 56.025 32.827 57.9865 32.2517 59.9526L32.7316 60.093ZM34.4386 54.1711L34.9216 54.3003C35.7634 51.1532 36.441 47.9344 36.5605 44.6398L36.0608 44.6217L35.5611 44.6036C35.4456 47.7891 34.7893 50.9247 33.9556 54.0419L34.4386 54.1711ZM36.0608 44.6217L36.5605 44.6398C36.5787 44.1374 36.5623 43.634 36.5164 43.2069C36.4734 42.8061 36.3972 42.394 36.2541 42.131C36.1995 42.0307 36.0108 41.7233 35.6339 41.7455C35.4562 41.756 35.3241 41.8416 35.2416 41.9164C35.1597 41.9906 35.0987 42.0784 35.0526 42.158C34.8795 42.4567 34.7262 42.9824 34.5769 43.7369L35.0674 43.834L35.5579 43.931C35.6309 43.5621 35.7001 43.2767 35.7641 43.0623C35.8297 42.8422 35.8834 42.7186 35.9178 42.6594C35.935 42.6297 35.9355 42.6371 35.913 42.6574C35.89 42.6784 35.8154 42.7366 35.6929 42.7438C35.5623 42.7515 35.4673 42.6964 35.4207 42.6572C35.3807 42.6235 35.3692 42.597 35.3758 42.6091C35.3888 42.633 35.4169 42.7032 35.4475 42.8381C35.4764 42.9657 35.502 43.1265 35.5222 43.3137C35.5624 43.688 35.5778 44.1431 35.5611 44.6036L36.0608 44.6217ZM35.0674 43.834L34.5769 43.7369C34.0146 46.579 33.38 49.6134 33.7831 52.6332L34.2787 52.567L34.7743 52.5009C34.3972 49.6761 34.9877 46.8133 35.5579 43.931L35.0674 43.834ZM34.2787 52.567L33.7831 52.6332C33.8459 53.104 33.891 53.6375 33.9404 54.2138L34.4386 54.1711L34.9368 54.1284C34.888 53.5597 34.8409 53.0001 34.7743 52.5009L34.2787 52.567ZM34.4386 54.1711L33.9404 54.2138C33.9973 54.8773 34.0595 55.592 34.161 56.2887L34.6558 56.2166L35.1505 56.1445C35.0539 55.4816 34.994 54.7955 34.9368 54.1284L34.4386 54.1711ZM34.6558 56.2166L34.161 56.2887C34.3097 57.3089 34.5494 58.3443 35.0191 59.1625L35.4527 58.9135L35.8863 58.6646C35.5131 58.0144 35.2945 57.1321 35.1505 56.1445L34.6558 56.2166ZM35.4527 58.9135L35.0191 59.1625C35.3022 59.6557 35.757 60.1073 36.2655 60.4615C36.7757 60.8169 37.3718 61.0965 37.963 61.22C38.5485 61.3423 39.1876 61.3219 39.719 60.9924C40.2686 60.6517 40.5975 60.0473 40.6808 59.2288L40.1834 59.1781L39.6859 59.1275C39.6247 59.7292 39.4084 60.0084 39.1921 60.1425C38.9576 60.2879 38.6099 60.3335 38.1675 60.2411C37.7307 60.1498 37.2576 59.9339 36.8371 59.641C36.4148 59.3468 36.0773 58.9973 35.8863 58.6646L35.4527 58.9135ZM40.1834 59.1781L40.6808 59.2288C40.7561 58.4886 40.9196 57.2687 40.744 56.2885C40.6551 55.7922 40.4675 55.2778 40.0665 54.9175C39.6456 54.5393 39.0752 54.4054 38.3892 54.5093L38.464 55.0037L38.5389 55.498C39.0113 55.4265 39.2548 55.5325 39.3982 55.6613C39.5615 55.8081 39.6886 56.0678 39.7597 56.4648C39.9041 57.2711 39.7688 58.3137 39.6859 59.1275L40.1834 59.1781ZM38.464 55.0037L38.3892 54.5093C36.9733 54.7236 35.5969 54.8011 34.3392 55.8295L34.6558 56.2166L34.9723 56.6036C35.9671 55.7901 37.0024 55.7306 38.5389 55.498L38.464 55.0037ZM34.6558 56.2166L34.3392 55.8295C34.2707 55.8856 34.2026 55.9443 34.135 56.0058L34.4715 56.3756L34.808 56.7454C34.8628 56.6956 34.9175 56.6484 34.9723 56.6036L34.6558 56.2166ZM10.7848 84.3543L10.6589 84.8382C14.4342 85.8209 19.664 88.517 23.0643 93.3857C26.4448 98.2258 28.0631 105.278 24.5314 115.096L25.0019 115.265L25.4724 115.435C29.1007 105.348 27.4717 97.9497 23.8842 92.8131C20.3166 87.7049 14.8579 84.8978 10.9108 83.8704L10.7848 84.3543ZM90.16 101.548L90.2172 101.051C89.1585 100.929 88.1122 100.923 87.3352 101.382C86.4924 101.879 86.118 102.814 86.1565 104.169L86.6563 104.155L87.1561 104.141C87.1228 102.968 87.4443 102.478 87.8433 102.243C88.3081 101.969 89.0495 101.923 90.1029 102.044L90.16 101.548ZM86.6563 104.155L86.1565 104.169C86.214 106.192 86.6712 108.258 88.2865 109.75L88.6257 109.382L88.965 109.015C87.6411 107.792 87.2106 106.056 87.1561 104.141L86.6563 104.155ZM88.6257 109.382L88.2865 109.75C88.7602 110.187 89.2999 110.369 89.8505 110.349C90.3839 110.33 90.8926 110.122 91.3393 109.847C92.2281 109.3 92.9986 108.407 93.4408 107.726L93.0215 107.454L92.6023 107.181C92.2115 107.783 91.5387 108.55 90.8151 108.996C90.4556 109.217 90.1159 109.339 89.8138 109.35C89.5288 109.36 89.2459 109.275 88.965 109.015L88.6257 109.382ZM156.524 30.2412L156.449 29.7468C154.962 29.9719 153.628 31.0097 152.721 32.2837C151.813 33.5584 151.267 35.1606 151.457 36.6133L151.952 36.5485L152.448 36.4838C152.3 35.35 152.729 33.9969 153.536 32.8638C154.343 31.73 155.464 30.9074 156.599 30.7356L156.524 30.2412ZM151.952 36.5485L151.457 36.6133C151.538 37.2351 151.731 38.2613 152.076 39.2096C152.249 39.6837 152.467 40.1562 152.739 40.553C153.009 40.9459 153.36 41.3026 153.812 41.4833L153.997 41.019L154.183 40.5547C153.985 40.4756 153.774 40.2933 153.563 39.9866C153.355 39.6837 153.172 39.2958 153.016 38.867C152.703 38.0096 152.523 37.0605 152.448 36.4838L151.952 36.5485ZM153.997 41.019L153.812 41.4833C154.158 41.6215 154.581 41.6383 154.931 41.628C155.294 41.6174 155.659 41.5731 155.904 41.5466L155.85 41.0495L155.796 40.5524C155.533 40.5809 155.216 40.6193 154.902 40.6285C154.575 40.6381 154.327 40.6121 154.183 40.5547L153.997 41.019ZM155.85 41.0495L155.904 41.5466C156.705 41.46 157.372 41.273 157.935 40.8829C158.5 40.4914 158.908 39.9306 159.258 39.1894L158.806 38.9761L158.354 38.7628C158.048 39.4098 157.736 39.8038 157.365 40.0611C156.992 40.3197 156.509 40.4753 155.796 40.5524L155.85 41.0495ZM158.806 38.9761L159.258 39.1894C159.891 37.8462 160.088 36.5907 159.898 35.3619C159.711 34.1419 159.149 32.9896 158.337 31.8374L157.929 32.1254L157.52 32.4134C158.28 33.4915 158.754 34.4991 158.91 35.5141C159.065 36.5204 158.914 37.5751 158.354 38.7628L158.806 38.9761ZM157.929 32.1254L158.337 31.8374C157.95 31.2874 157.629 30.9566 157.205 30.7708C157.003 30.6819 156.798 30.6358 156.596 30.6003C156.496 30.5826 156.388 30.5662 156.279 30.5495C156.167 30.5325 156.05 30.5145 155.922 30.4923L155.837 30.9849L155.752 31.4776C155.89 31.5016 156.016 31.521 156.127 31.538C156.241 31.5554 156.336 31.5698 156.423 31.5852C156.597 31.6158 156.71 31.6454 156.804 31.6865C156.973 31.7607 157.163 31.9076 157.52 32.4134L157.929 32.1254ZM158.638 31.5207L158.158 31.6629C158.538 32.9425 158.905 34.5735 159.501 36.018C160.103 37.4777 160.978 38.862 162.453 39.655L162.69 39.2146L162.927 38.7742C161.746 38.1397 160.989 37.0038 160.425 35.6368C159.855 34.2545 159.524 32.7523 159.117 31.3786L158.638 31.5207ZM162.69 39.2146L162.453 39.655C163.081 39.9923 163.656 40.108 164.186 39.9898C164.713 39.8726 165.106 39.5445 165.41 39.1791C165.711 38.8178 165.959 38.3773 166.181 37.9766C166.412 37.5587 166.615 37.1826 166.842 36.8734L166.44 36.5767L166.037 36.2801C165.762 36.6544 165.523 37.1001 165.306 37.4927C165.079 37.9026 164.873 38.2615 164.641 38.5391C164.414 38.8125 164.198 38.9627 163.969 39.0138C163.744 39.0639 163.417 39.0379 162.927 38.7742L162.69 39.2146ZM42.5319 80.7478L42.0375 80.8227C42.3665 82.9954 41.8864 85.6146 40.989 88.0274L41.4576 88.2017L41.9262 88.376C42.8556 85.8772 43.3901 83.0766 43.0263 80.673L42.5319 80.7478ZM41.4576 88.2017L40.989 88.0274C40.4411 89.5006 39.745 90.8766 39.0052 92.0015L39.423 92.2762L39.8407 92.551C40.6251 91.3582 41.3542 89.914 41.9262 88.376L41.4576 88.2017ZM39.423 92.2762L39.0052 92.0015C38.7908 92.3276 38.4731 92.9033 38.0629 93.4018C37.8614 93.6469 37.6676 93.8331 37.4944 93.9397C37.325 94.0439 37.234 94.0386 37.1818 94.0211L37.0226 94.4951L36.8633 94.969C37.298 95.1151 37.7042 94.9847 38.0183 94.7915C38.3286 94.6007 38.6047 94.3173 38.8352 94.0372C39.2893 93.4852 39.6849 92.7879 39.8407 92.551L39.423 92.2762ZM37.0226 94.4951L37.1818 94.0211C37.1252 94.0021 37.0519 93.9508 36.976 93.8069C36.8983 93.6596 36.8392 93.4524 36.8044 93.2026C36.7343 92.701 36.7777 92.1498 36.8365 91.8702L36.3472 91.7673L35.8579 91.6643C35.7769 92.0493 35.7269 92.7172 35.814 93.3409C35.8577 93.6538 35.9398 93.9859 36.0914 94.2734C36.2448 94.5642 36.4889 94.8432 36.8633 94.969L37.0226 94.4951ZM36.3472 91.7673L36.8365 91.8702C37.0621 90.7982 37.6439 90.0794 38.4477 89.5883C39.2685 89.0868 40.334 88.8167 41.5074 88.6993L41.4576 88.2017L41.4078 87.7042C40.1607 87.829 38.9274 88.1234 37.9263 88.735C36.9082 89.357 36.1451 90.2998 35.8579 91.6643L36.3472 91.7673ZM41.4576 88.2017L41.5074 88.6993C43.5662 88.4932 45.8182 88.7677 47.3717 88.9378L47.4262 88.4408L47.4806 87.9437C45.9571 87.7769 43.5921 87.4856 41.4078 87.7042L41.4576 88.2017ZM47.4262 88.4408L47.3717 88.9378C49.133 89.1307 50.8631 89.1258 52.5834 89.17L52.5962 88.6702L52.609 88.1703C50.8509 88.1251 49.1873 88.1307 47.4806 87.9437L47.4262 88.4408ZM52.5962 88.6702L52.5834 89.17C53.1403 89.1843 53.6421 89.1314 54.0219 88.8135C54.3909 88.5047 54.5396 88.0287 54.6555 87.5342L54.1687 87.42L53.6819 87.3059C53.5637 87.8102 53.4678 87.9732 53.3801 88.0467C53.303 88.1112 53.1356 88.1839 52.609 88.1703L52.5962 88.6702Z" fill="#CACACA"/>
</svg>
