<svg width="222" height="50" viewBox="0 0 222 50" fill="none" xmlns="http://www.w3.org/2000/svg">
<path d="M15.7355 37.9602C18.2479 35.84 15.0138 31.6146 12.4869 31.2974C11.7564 31.2056 10.8162 31.1449 10.7552 32.0559C10.5907 34.5113 11.0791 37.1983 11.4767 39.6042C11.8417 41.8133 12.4328 43.5504 13.4128 45.4824C13.7595 46.1658 13.6397 46.8229 13.0578 47.3132C10.5128 49.4576 -0.0993415 49.2356 1.32179 43.7133M22.3172 32.1031C23.3087 30.6573 22.4015 35.0988 22.3722 35.6267C22.1774 39.1258 22.1596 43.2445 23.1147 46.6584C23.5563 48.2366 25.6935 46.4773 26.225 45.923C27.9886 44.0842 28.7913 41.7956 28.9292 39.2699M23.3129 27.461C23.3249 27.5205 23.3381 27.5771 23.3523 27.631M23.3523 27.631C23.4503 28.0023 23.5971 28.244 23.7585 28.3886M23.3523 27.631C23.6969 27.5137 24.2329 27.5123 24.5041 27.7288C25.088 28.1947 24.3311 28.9019 23.7585 28.3886M23.3523 27.631C22.9343 27.7734 22.7981 28.0865 23.7585 28.3886M23.7585 28.3886C23.8194 28.4078 23.8848 28.4269 23.9548 28.446M36.5371 31.1595C37.1908 36.498 37.7971 41.8242 38.253 47.1829C38.3314 48.1045 38.216 45.1315 38.255 44.7159C38.4861 42.2543 38.7138 36.9659 41.0772 35.4781C41.1487 35.433 43.6316 43.3859 44.5218 44.0962C46.5649 45.7265 50.8898 42.4631 52.3938 41.4484M49.6355 23.1745C49.9555 22.977 55.619 19.12 55.8525 20.7293C56.0927 22.3847 55.6069 23.659 55.0157 25.1302C54.8237 25.6079 60.1606 25.6877 60.9025 25.7831M71.2393 18.668C71.0574 22.2532 70.7213 29.4549 70.4282 33.3317C70.3956 33.7625 70.3698 34.2248 70.3376 34.7022M70.3376 34.7022C70.2316 36.2729 70.0558 38.0077 69.338 39.3293C68.332 41.1815 65.9408 40.2807 65.7981 38.2118C65.6737 36.4097 68.5624 33.1395 70.3376 34.7022ZM70.3376 34.7022C70.4164 34.7716 70.4931 34.8505 70.5671 34.9395C71.4534 36.0043 72.016 37.1986 73.1242 38.0828C74.3353 39.0492 75.868 39.6971 77.2988 40.2452C80.3935 41.4308 84.296 40.6343 87.3838 39.8228M105.523 21.9148L107.062 34.4885M101.348 30.402L110.593 29.27M128.796 22.5212C129.838 22.2844 129.555 18.2285 127.641 20.6538C126.077 22.6334 126.104 24.4327 126.459 26.8545C126.796 29.1477 128.622 30.291 130.803 30.3995C132.619 30.4898 135.202 30.3757 136.66 29.2688M140.737 19.9957C140.686 20.3691 140.666 20.8614 140.68 21.4146M140.68 21.4146C140.73 23.3603 141.206 26.0595 142.26 26.9881C142.9 27.5517 144.43 27.1756 144.871 26.5502C146.399 24.3809 145.981 20.015 144.055 18.2306C143.48 17.698 140.992 17.0178 140.647 18.0718C140.33 19.0385 140.272 20.3924 140.68 21.4146ZM140.68 21.4146C140.87 21.8894 141.16 22.2927 141.572 22.5523M152.326 18.8428C153.113 17.735 154.569 15.4722 152.498 14.6859C152.028 14.5077 150.996 14.6395 150.607 14.9764C148.387 16.8995 151.655 22.5462 152.559 24.2943C153.116 25.371 154.23 26.5861 152.618 26.7835C151.008 26.9807 149.633 27.2417 148.73 25.6642M158.49 7.4525C159.775 7.29511 160.339 7.32204 160.48 8.8041C160.617 10.238 160.236 11.9171 159.221 12.9465C158.258 13.923 159.404 13.598 160.055 13.3761C161.097 13.0216 162.375 13.0558 163.273 12.4504M171.588 5.84874C170.366 10.2321 169.179 14.6315 167.924 19.0092M167.924 19.0092C167.178 21.613 166.408 24.2091 165.594 26.7896C165.502 27.0799 164.913 29.4065 164.431 29.9453C164.001 30.4253 162.076 25.0823 162.27 24.1242C162.64 22.2861 164.834 21.0259 166.24 20.1225C166.487 19.9637 167.235 19.3647 167.924 19.0092ZM167.924 19.0092C168.389 18.7696 168.826 18.6406 169.065 18.8313C169.985 19.5658 170.475 21.1072 171.169 22.0596C171.953 23.1353 173.049 24.0038 174.254 24.5475C176.313 25.477 178.352 25.3994 180.414 24.7091M189.403 12.9732L196.85 12.0613M189.113 16.9966L198.615 15.8332M205.613 11.254C208.254 10.7335 211.377 10.5038 213.203 8.19752C214.051 7.1272 214.537 5.73612 214.918 4.33781M214.918 4.33781C215.149 3.48898 215.342 2.6375 215.555 1.85348C216.173 -0.429558 215.133 2.91851 215.076 3.27096C215.02 3.62566 214.967 3.98133 214.918 4.33781ZM214.918 4.33781C214.37 8.32062 214.27 12.4045 213.798 16.367M208.503 17.8136C212.792 17.2772 217.058 16.6772 221.311 15.9793" stroke="#CACACA" stroke-linecap="round"/>
</svg>
