<svg width="75" height="76" viewBox="0 0 75 76" fill="none" xmlns="http://www.w3.org/2000/svg">
<rect x="11.4587" y="0.930908" width="64" height="64" rx="24" transform="rotate(10 11.4587 0.930908)" fill="#F4F7FF"/>
<path d="M49.1522 20.2966C49.034 20.105 48.8189 19.9863 48.5874 19.9863L42.2948 19.9863C42.0551 19.9863 41.8335 20.113 41.717 20.3172L37.2483 28.246L32.7763 20.32C32.6614 20.1158 32.4397 19.9891 32.2 19.9891L25.8995 19.9891C25.668 19.9891 25.4529 20.1063 25.3347 20.2995C25.2165 20.491 25.2116 20.7301 25.3216 20.9264L32.6678 33.9489L30.2184 33.9489C28.5768 33.9489 27.2421 35.2377 27.2421 36.8194C27.2421 38.4026 28.5768 39.6898 30.2184 39.6898L32.2672 39.6898C29.1875 41.3713 27.0992 44.5553 27.0992 48.2048C27.0992 53.5975 31.6499 57.9863 37.2415 57.9863C42.8331 57.9863 47.3837 53.5975 47.3837 48.2048C47.3837 44.5537 45.2955 41.3699 42.2157 39.6898L44.2645 39.6898C45.9061 39.6898 47.2408 38.4026 47.2408 36.8194C47.2408 35.2361 45.9061 33.9489 44.2645 33.9489L41.8217 33.9489L49.1633 20.9216C49.2733 20.7253 49.2684 20.4878 49.1502 20.2946L49.1522 20.2966ZM27.0064 21.2561L31.81 21.2561L38.9709 33.9474L34.1656 33.9474L27.0047 21.2561L27.0064 21.2561ZM46.0759 48.2033C46.0759 52.8993 42.1162 56.7182 37.247 56.7182C32.3795 56.7182 28.4181 52.8993 28.4181 48.2033C28.4181 43.5072 32.3777 39.6883 37.247 39.6883C42.1161 39.6883 46.0759 43.5088 46.0759 48.2033ZM45.9347 36.8179C45.9347 37.7013 45.1877 38.4217 44.2717 38.4217L30.2239 38.4217C29.3079 38.4217 28.561 37.7029 28.561 36.8179C28.561 35.9328 29.3079 35.214 30.224 35.214L34.4036 35.214C34.4102 35.214 34.4151 35.2172 34.4217 35.2172L40.7222 35.2172C40.7305 35.2172 40.7387 35.214 40.7485 35.214L44.2715 35.214C45.1876 35.214 45.9347 35.9328 45.9347 36.8179ZM40.4006 33.8271L37.9989 29.5712L42.6874 21.2529L47.4859 21.2529L40.4006 33.8271Z" fill="#3064EA"/>
<path d="M33.5029 49.7232L33.3026 52.8771C33.2895 53.0924 33.3913 53.3014 33.5718 53.4281C33.6868 53.5073 33.8214 53.5484 33.9576 53.5484C34.0397 53.5484 34.1202 53.5342 34.1973 53.5041L37.2459 52.3451L40.2928 53.5041C40.5029 53.5833 40.7377 53.5548 40.9199 53.4281C41.1005 53.3014 41.2023 53.0924 41.1891 52.8771L40.9888 49.7232L43.0737 47.285C43.2166 47.1172 43.2609 46.8924 43.1919 46.6865C43.123 46.4807 42.949 46.3224 42.7322 46.2686L39.5606 45.4785L37.8007 42.8139C37.6792 42.6318 37.4707 42.521 37.2458 42.521C37.0209 42.521 36.8125 42.6318 36.691 42.8139L34.9311 45.4785L31.7594 46.2686C31.5427 46.3224 31.3687 46.4807 31.2997 46.6865C31.2308 46.8923 31.2751 47.1188 31.4179 47.285L33.5012 49.7232L33.5029 49.7232ZM35.5123 46.6438C35.6731 46.6042 35.8127 46.506 35.903 46.3714L37.2475 44.3354L38.592 46.3714C38.6823 46.5076 38.8218 46.6042 38.9827 46.6438L41.4058 47.2486L39.8134 49.1105C39.7083 49.234 39.6541 49.3924 39.664 49.5522L39.8166 51.962L37.4888 51.0769C37.3344 51.0184 37.1604 51.0184 37.0078 51.0769L34.6782 51.962L34.8309 49.5522C34.8408 49.3923 34.7882 49.234 34.6815 49.1105L33.0891 47.2486L35.5123 46.6438Z" fill="#3064EA"/>
</svg>
