<svg width="426" height="196" viewBox="0 0 426 196" fill="none" xmlns="http://www.w3.org/2000/svg">
<g opacity="0.1">
<path d="M6 0V12M12 6L0 6" stroke="white"/>
<circle cx="17" cy="6" r="0.5" fill="white" stroke="white"/>
<circle cx="23" cy="6" r="0.5" fill="white" stroke="white"/>
<circle cx="29" cy="6" r="0.5" fill="white" stroke="white"/>
<circle cx="35" cy="6" r="0.5" fill="white" stroke="white"/>
<circle cx="41" cy="6" r="0.5" fill="white" stroke="white"/>
<path d="M52 0V12M58 6L46 6" stroke="white"/>
<circle cx="63" cy="6" r="0.5" fill="white" stroke="white"/>
<circle cx="69" cy="6" r="0.5" fill="white" stroke="white"/>
<circle cx="75" cy="6" r="0.5" fill="white" stroke="white"/>
<circle cx="81" cy="6" r="0.5" fill="white" stroke="white"/>
<circle cx="87" cy="6" r="0.5" fill="white" stroke="white"/>
<path d="M98 0V12M104 6L92 6" stroke="white"/>
<circle cx="109" cy="6" r="0.5" fill="white" stroke="white"/>
<circle cx="115" cy="6" r="0.5" fill="white" stroke="white"/>
<circle cx="121" cy="6" r="0.5" fill="white" stroke="white"/>
<circle cx="127" cy="6" r="0.5" fill="white" stroke="white"/>
<circle cx="133" cy="6" r="0.5" fill="white" stroke="white"/>
<path d="M144 0V12M150 6L138 6" stroke="white"/>
<path d="M6 46V58M12 52L0 52" stroke="white"/>
<circle cx="17" cy="52" r="0.5" fill="white" stroke="white"/>
<circle cx="23" cy="52" r="0.5" fill="white" stroke="white"/>
<circle cx="29" cy="52" r="0.5" fill="white" stroke="white"/>
<circle cx="35" cy="52" r="0.5" fill="white" stroke="white"/>
<circle cx="41" cy="52" r="0.5" fill="white" stroke="white"/>
<path d="M52 46V58M58 52L46 52" stroke="white"/>
<circle cx="63" cy="52" r="0.5" fill="white" stroke="white"/>
<circle cx="69" cy="52" r="0.5" fill="white" stroke="white"/>
<circle cx="75" cy="52" r="0.5" fill="white" stroke="white"/>
<circle cx="81" cy="52" r="0.5" fill="white" stroke="white"/>
<circle cx="87" cy="52" r="0.5" fill="white" stroke="white"/>
<path d="M98 46V58M104 52L92 52" stroke="white"/>
<circle cx="109" cy="52" r="0.5" fill="white" stroke="white"/>
<circle cx="115" cy="52" r="0.5" fill="white" stroke="white"/>
<circle cx="121" cy="52" r="0.5" fill="white" stroke="white"/>
<circle cx="127" cy="52" r="0.5" fill="white" stroke="white"/>
<circle cx="133" cy="52" r="0.5" fill="white" stroke="white"/>
<path d="M144 46V58M150 52L138 52" stroke="white"/>
<path d="M6 92V104M12 98L0 98" stroke="white"/>
<circle cx="17" cy="98" r="0.5" fill="white" stroke="white"/>
<circle cx="23" cy="98" r="0.5" fill="white" stroke="white"/>
<circle cx="29" cy="98" r="0.5" fill="white" stroke="white"/>
<circle cx="35" cy="98" r="0.5" fill="white" stroke="white"/>
<circle cx="41" cy="98" r="0.5" fill="white" stroke="white"/>
<path d="M52 92V104M58 98L46 98" stroke="white"/>
<circle cx="63" cy="98" r="0.5" fill="white" stroke="white"/>
<circle cx="69" cy="98" r="0.5" fill="white" stroke="white"/>
<circle cx="75" cy="98" r="0.5" fill="white" stroke="white"/>
<circle cx="81" cy="98" r="0.5" fill="white" stroke="white"/>
<circle cx="87" cy="98" r="0.5" fill="white" stroke="white"/>
<path d="M98 92V104M104 98L92 98" stroke="white"/>
<circle cx="109" cy="98" r="0.5" fill="white" stroke="white"/>
<circle cx="115" cy="98" r="0.5" fill="white" stroke="white"/>
<circle cx="121" cy="98" r="0.5" fill="white" stroke="white"/>
<circle cx="127" cy="98" r="0.5" fill="white" stroke="white"/>
<circle cx="133" cy="98" r="0.5" fill="white" stroke="white"/>
<path d="M144 92V104M150 98L138 98" stroke="white"/>
<path d="M6 138V150M12 144L0 144" stroke="white"/>
<circle cx="17" cy="144" r="0.5" fill="white" stroke="white"/>
<circle cx="23" cy="144" r="0.5" fill="white" stroke="white"/>
<circle cx="29" cy="144" r="0.5" fill="white" stroke="white"/>
<circle cx="35" cy="144" r="0.5" fill="white" stroke="white"/>
<circle cx="41" cy="144" r="0.5" fill="white" stroke="white"/>
<path d="M52 138V150M58 144L46 144" stroke="white"/>
<circle cx="63" cy="144" r="0.5" fill="white" stroke="white"/>
<circle cx="69" cy="144" r="0.5" fill="white" stroke="white"/>
<circle cx="75" cy="144" r="0.5" fill="white" stroke="white"/>
<circle cx="81" cy="144" r="0.5" fill="white" stroke="white"/>
<circle cx="87" cy="144" r="0.5" fill="white" stroke="white"/>
<path d="M98 138V150M104 144L92 144" stroke="white"/>
<circle cx="109" cy="144" r="0.5" fill="white" stroke="white"/>
<circle cx="115" cy="144" r="0.5" fill="white" stroke="white"/>
<circle cx="121" cy="144" r="0.5" fill="white" stroke="white"/>
<circle cx="127" cy="144" r="0.5" fill="white" stroke="white"/>
<circle cx="133" cy="144" r="0.5" fill="white" stroke="white"/>
<path d="M144 138V150M150 144L138 144" stroke="white"/>
<path d="M6 184V196M12 190L0 190" stroke="white"/>
<circle cx="17" cy="190" r="0.5" fill="white" stroke="white"/>
<circle cx="23" cy="190" r="0.5" fill="white" stroke="white"/>
<circle cx="29" cy="190" r="0.5" fill="white" stroke="white"/>
<circle cx="35" cy="190" r="0.5" fill="white" stroke="white"/>
<circle cx="41" cy="190" r="0.5" fill="white" stroke="white"/>
<path d="M52 184V196M58 190L46 190" stroke="white"/>
<circle cx="63" cy="190" r="0.5" fill="white" stroke="white"/>
<circle cx="69" cy="190" r="0.5" fill="white" stroke="white"/>
<circle cx="75" cy="190" r="0.5" fill="white" stroke="white"/>
<circle cx="81" cy="190" r="0.5" fill="white" stroke="white"/>
<circle cx="87" cy="190" r="0.5" fill="white" stroke="white"/>
<path d="M98 184V196M104 190L92 190" stroke="white"/>
<circle cx="109" cy="190" r="0.5" fill="white" stroke="white"/>
<circle cx="115" cy="190" r="0.5" fill="white" stroke="white"/>
<circle cx="121" cy="190" r="0.5" fill="white" stroke="white"/>
<circle cx="127" cy="190" r="0.5" fill="white" stroke="white"/>
<circle cx="133" cy="190" r="0.5" fill="white" stroke="white"/>
<path d="M144 184V196M150 190L138 190" stroke="white"/>
<circle cx="6" cy="17" r="0.5" fill="white" stroke="white"/>
<circle cx="6" cy="23" r="0.5" fill="white" stroke="white"/>
<circle cx="6" cy="29" r="0.5" fill="white" stroke="white"/>
<circle cx="6" cy="35" r="0.5" fill="white" stroke="white"/>
<circle cx="6" cy="41" r="0.5" fill="white" stroke="white"/>
<path d="M6 46V58M12 52L0 52" stroke="white"/>
<circle cx="6" cy="63" r="0.5" fill="white" stroke="white"/>
<circle cx="6" cy="69" r="0.5" fill="white" stroke="white"/>
<circle cx="6" cy="75" r="0.5" fill="white" stroke="white"/>
<circle cx="6" cy="81" r="0.5" fill="white" stroke="white"/>
<circle cx="6" cy="87" r="0.5" fill="white" stroke="white"/>
<path d="M6 92V104M12 98L0 98" stroke="white"/>
<circle cx="6" cy="109" r="0.5" fill="white" stroke="white"/>
<circle cx="6" cy="115" r="0.5" fill="white" stroke="white"/>
<circle cx="6" cy="121" r="0.5" fill="white" stroke="white"/>
<circle cx="6" cy="127" r="0.5" fill="white" stroke="white"/>
<circle cx="6" cy="133" r="0.5" fill="white" stroke="white"/>
<path d="M6 138V150M12 144L0 144" stroke="white"/>
<circle cx="6" cy="155" r="0.5" fill="white" stroke="white"/>
<circle cx="6" cy="161" r="0.5" fill="white" stroke="white"/>
<circle cx="6" cy="167" r="0.5" fill="white" stroke="white"/>
<circle cx="6" cy="173" r="0.5" fill="white" stroke="white"/>
<circle cx="6" cy="179" r="0.5" fill="white" stroke="white"/>
<circle cx="52" cy="17" r="0.5" fill="white" stroke="white"/>
<circle cx="52" cy="23" r="0.5" fill="white" stroke="white"/>
<circle cx="52" cy="29" r="0.5" fill="white" stroke="white"/>
<circle cx="52" cy="35" r="0.5" fill="white" stroke="white"/>
<circle cx="52" cy="41" r="0.5" fill="white" stroke="white"/>
<path d="M52 46V58M58 52L46 52" stroke="white"/>
<circle cx="52" cy="63" r="0.5" fill="white" stroke="white"/>
<circle cx="52" cy="69" r="0.5" fill="white" stroke="white"/>
<circle cx="52" cy="75" r="0.5" fill="white" stroke="white"/>
<circle cx="52" cy="81" r="0.5" fill="white" stroke="white"/>
<circle cx="52" cy="87" r="0.5" fill="white" stroke="white"/>
<path d="M52 92V104M58 98L46 98" stroke="white"/>
<circle cx="52" cy="109" r="0.5" fill="white" stroke="white"/>
<circle cx="52" cy="115" r="0.5" fill="white" stroke="white"/>
<circle cx="52" cy="121" r="0.5" fill="white" stroke="white"/>
<circle cx="52" cy="127" r="0.5" fill="white" stroke="white"/>
<circle cx="52" cy="133" r="0.5" fill="white" stroke="white"/>
<path d="M52 138V150M58 144L46 144" stroke="white"/>
<circle cx="52" cy="155" r="0.5" fill="white" stroke="white"/>
<circle cx="52" cy="161" r="0.5" fill="white" stroke="white"/>
<circle cx="52" cy="167" r="0.5" fill="white" stroke="white"/>
<circle cx="52" cy="173" r="0.5" fill="white" stroke="white"/>
<circle cx="52" cy="179" r="0.5" fill="white" stroke="white"/>
<circle cx="98" cy="17" r="0.5" fill="white" stroke="white"/>
<circle cx="98" cy="23" r="0.5" fill="white" stroke="white"/>
<circle cx="98" cy="29" r="0.5" fill="white" stroke="white"/>
<circle cx="98" cy="35" r="0.5" fill="white" stroke="white"/>
<circle cx="98" cy="41" r="0.5" fill="white" stroke="white"/>
<path d="M98 46V58M104 52L92 52" stroke="white"/>
<circle cx="98" cy="63" r="0.5" fill="white" stroke="white"/>
<circle cx="98" cy="69" r="0.5" fill="white" stroke="white"/>
<circle cx="98" cy="75" r="0.5" fill="white" stroke="white"/>
<circle cx="98" cy="81" r="0.5" fill="white" stroke="white"/>
<circle cx="98" cy="87" r="0.5" fill="white" stroke="white"/>
<path d="M98 92V104M104 98L92 98" stroke="white"/>
<circle cx="98" cy="109" r="0.5" fill="white" stroke="white"/>
<circle cx="98" cy="115" r="0.5" fill="white" stroke="white"/>
<circle cx="98" cy="121" r="0.5" fill="white" stroke="white"/>
<circle cx="98" cy="127" r="0.5" fill="white" stroke="white"/>
<circle cx="98" cy="133" r="0.5" fill="white" stroke="white"/>
<path d="M98 138V150M104 144L92 144" stroke="white"/>
<circle cx="98" cy="155" r="0.5" fill="white" stroke="white"/>
<circle cx="98" cy="161" r="0.5" fill="white" stroke="white"/>
<circle cx="98" cy="167" r="0.5" fill="white" stroke="white"/>
<circle cx="98" cy="173" r="0.5" fill="white" stroke="white"/>
<circle cx="98" cy="179" r="0.5" fill="white" stroke="white"/>
<circle cx="144" cy="17" r="0.5" fill="white" stroke="white"/>
<circle cx="144" cy="23" r="0.5" fill="white" stroke="white"/>
<circle cx="144" cy="29" r="0.5" fill="white" stroke="white"/>
<circle cx="144" cy="35" r="0.5" fill="white" stroke="white"/>
<circle cx="144" cy="41" r="0.5" fill="white" stroke="white"/>
<path d="M144 46V58M150 52L138 52" stroke="white"/>
<circle cx="144" cy="63" r="0.5" fill="white" stroke="white"/>
<circle cx="144" cy="69" r="0.5" fill="white" stroke="white"/>
<circle cx="144" cy="75" r="0.5" fill="white" stroke="white"/>
<circle cx="144" cy="81" r="0.5" fill="white" stroke="white"/>
<circle cx="144" cy="87" r="0.5" fill="white" stroke="white"/>
<path d="M144 92V104M150 98L138 98" stroke="white"/>
<circle cx="144" cy="109" r="0.5" fill="white" stroke="white"/>
<circle cx="144" cy="115" r="0.5" fill="white" stroke="white"/>
<circle cx="144" cy="121" r="0.5" fill="white" stroke="white"/>
<circle cx="144" cy="127" r="0.5" fill="white" stroke="white"/>
<circle cx="144" cy="133" r="0.5" fill="white" stroke="white"/>
<path d="M144 138V150M150 144L138 144" stroke="white"/>
<circle cx="144" cy="155" r="0.5" fill="white" stroke="white"/>
<circle cx="144" cy="161" r="0.5" fill="white" stroke="white"/>
<circle cx="144" cy="167" r="0.5" fill="white" stroke="white"/>
<circle cx="144" cy="173" r="0.5" fill="white" stroke="white"/>
<circle cx="144" cy="179" r="0.5" fill="white" stroke="white"/>
<path d="M144 0V12M150 6L138 6" stroke="white"/>
<circle cx="155" cy="6" r="0.5" fill="white" stroke="white"/>
<circle cx="161" cy="6" r="0.5" fill="white" stroke="white"/>
<circle cx="167" cy="6" r="0.5" fill="white" stroke="white"/>
<circle cx="173" cy="6" r="0.5" fill="white" stroke="white"/>
<circle cx="179" cy="6" r="0.5" fill="white" stroke="white"/>
<path d="M190 0V12M196 6L184 6" stroke="white"/>
<circle cx="201" cy="6" r="0.5" fill="white" stroke="white"/>
<circle cx="207" cy="6" r="0.5" fill="white" stroke="white"/>
<circle cx="213" cy="6" r="0.5" fill="white" stroke="white"/>
<circle cx="219" cy="6" r="0.5" fill="white" stroke="white"/>
<circle cx="225" cy="6" r="0.5" fill="white" stroke="white"/>
<path d="M236 0V12M242 6L230 6" stroke="white"/>
<circle cx="247" cy="6" r="0.5" fill="white" stroke="white"/>
<circle cx="253" cy="6" r="0.5" fill="white" stroke="white"/>
<circle cx="259" cy="6" r="0.5" fill="white" stroke="white"/>
<circle cx="265" cy="6" r="0.5" fill="white" stroke="white"/>
<circle cx="271" cy="6" r="0.5" fill="white" stroke="white"/>
<path d="M282 0V12M288 6L276 6" stroke="white"/>
<path d="M144 46V58M150 52L138 52" stroke="white"/>
<circle cx="155" cy="52" r="0.5" fill="white" stroke="white"/>
<circle cx="161" cy="52" r="0.5" fill="white" stroke="white"/>
<circle cx="167" cy="52" r="0.5" fill="white" stroke="white"/>
<circle cx="173" cy="52" r="0.5" fill="white" stroke="white"/>
<circle cx="179" cy="52" r="0.5" fill="white" stroke="white"/>
<path d="M190 46V58M196 52L184 52" stroke="white"/>
<circle cx="201" cy="52" r="0.5" fill="white" stroke="white"/>
<circle cx="207" cy="52" r="0.5" fill="white" stroke="white"/>
<circle cx="213" cy="52" r="0.5" fill="white" stroke="white"/>
<circle cx="219" cy="52" r="0.5" fill="white" stroke="white"/>
<circle cx="225" cy="52" r="0.5" fill="white" stroke="white"/>
<path d="M236 46V58M242 52L230 52" stroke="white"/>
<circle cx="247" cy="52" r="0.5" fill="white" stroke="white"/>
<circle cx="253" cy="52" r="0.5" fill="white" stroke="white"/>
<circle cx="259" cy="52" r="0.5" fill="white" stroke="white"/>
<circle cx="265" cy="52" r="0.5" fill="white" stroke="white"/>
<circle cx="271" cy="52" r="0.5" fill="white" stroke="white"/>
<path d="M282 46V58M288 52L276 52" stroke="white"/>
<path d="M144 92V104M150 98L138 98" stroke="white"/>
<circle cx="155" cy="98" r="0.5" fill="white" stroke="white"/>
<circle cx="161" cy="98" r="0.5" fill="white" stroke="white"/>
<circle cx="167" cy="98" r="0.5" fill="white" stroke="white"/>
<circle cx="173" cy="98" r="0.5" fill="white" stroke="white"/>
<circle cx="179" cy="98" r="0.5" fill="white" stroke="white"/>
<path d="M190 92V104M196 98L184 98" stroke="white"/>
<circle cx="201" cy="98" r="0.5" fill="white" stroke="white"/>
<circle cx="207" cy="98" r="0.5" fill="white" stroke="white"/>
<circle cx="213" cy="98" r="0.5" fill="white" stroke="white"/>
<circle cx="219" cy="98" r="0.5" fill="white" stroke="white"/>
<circle cx="225" cy="98" r="0.5" fill="white" stroke="white"/>
<path d="M236 92V104M242 98L230 98" stroke="white"/>
<circle cx="247" cy="98" r="0.5" fill="white" stroke="white"/>
<circle cx="253" cy="98" r="0.5" fill="white" stroke="white"/>
<circle cx="259" cy="98" r="0.5" fill="white" stroke="white"/>
<circle cx="265" cy="98" r="0.5" fill="white" stroke="white"/>
<circle cx="271" cy="98" r="0.5" fill="white" stroke="white"/>
<path d="M282 92V104M288 98L276 98" stroke="white"/>
<path d="M144 138V150M150 144L138 144" stroke="white"/>
<circle cx="155" cy="144" r="0.5" fill="white" stroke="white"/>
<circle cx="161" cy="144" r="0.5" fill="white" stroke="white"/>
<circle cx="167" cy="144" r="0.5" fill="white" stroke="white"/>
<circle cx="173" cy="144" r="0.5" fill="white" stroke="white"/>
<circle cx="179" cy="144" r="0.5" fill="white" stroke="white"/>
<path d="M190 138V150M196 144L184 144" stroke="white"/>
<circle cx="201" cy="144" r="0.5" fill="white" stroke="white"/>
<circle cx="207" cy="144" r="0.5" fill="white" stroke="white"/>
<circle cx="213" cy="144" r="0.5" fill="white" stroke="white"/>
<circle cx="219" cy="144" r="0.5" fill="white" stroke="white"/>
<circle cx="225" cy="144" r="0.5" fill="white" stroke="white"/>
<path d="M236 138V150M242 144L230 144" stroke="white"/>
<circle cx="247" cy="144" r="0.5" fill="white" stroke="white"/>
<circle cx="253" cy="144" r="0.5" fill="white" stroke="white"/>
<circle cx="259" cy="144" r="0.5" fill="white" stroke="white"/>
<circle cx="265" cy="144" r="0.5" fill="white" stroke="white"/>
<circle cx="271" cy="144" r="0.5" fill="white" stroke="white"/>
<path d="M282 138V150M288 144L276 144" stroke="white"/>
<path d="M144 184V196M150 190L138 190" stroke="white"/>
<circle cx="155" cy="190" r="0.5" fill="white" stroke="white"/>
<circle cx="161" cy="190" r="0.5" fill="white" stroke="white"/>
<circle cx="167" cy="190" r="0.5" fill="white" stroke="white"/>
<circle cx="173" cy="190" r="0.5" fill="white" stroke="white"/>
<circle cx="179" cy="190" r="0.5" fill="white" stroke="white"/>
<path d="M190 184V196M196 190L184 190" stroke="white"/>
<circle cx="201" cy="190" r="0.5" fill="white" stroke="white"/>
<circle cx="207" cy="190" r="0.5" fill="white" stroke="white"/>
<circle cx="213" cy="190" r="0.5" fill="white" stroke="white"/>
<circle cx="219" cy="190" r="0.5" fill="white" stroke="white"/>
<circle cx="225" cy="190" r="0.5" fill="white" stroke="white"/>
<path d="M236 184V196M242 190L230 190" stroke="white"/>
<circle cx="247" cy="190" r="0.5" fill="white" stroke="white"/>
<circle cx="253" cy="190" r="0.5" fill="white" stroke="white"/>
<circle cx="259" cy="190" r="0.5" fill="white" stroke="white"/>
<circle cx="265" cy="190" r="0.5" fill="white" stroke="white"/>
<circle cx="271" cy="190" r="0.5" fill="white" stroke="white"/>
<path d="M282 184V196M288 190L276 190" stroke="white"/>
<circle cx="144" cy="17" r="0.5" fill="white" stroke="white"/>
<circle cx="144" cy="23" r="0.5" fill="white" stroke="white"/>
<circle cx="144" cy="29" r="0.5" fill="white" stroke="white"/>
<circle cx="144" cy="35" r="0.5" fill="white" stroke="white"/>
<circle cx="144" cy="41" r="0.5" fill="white" stroke="white"/>
<path d="M144 46V58M150 52L138 52" stroke="white"/>
<circle cx="144" cy="63" r="0.5" fill="white" stroke="white"/>
<circle cx="144" cy="69" r="0.5" fill="white" stroke="white"/>
<circle cx="144" cy="75" r="0.5" fill="white" stroke="white"/>
<circle cx="144" cy="81" r="0.5" fill="white" stroke="white"/>
<circle cx="144" cy="87" r="0.5" fill="white" stroke="white"/>
<path d="M144 92V104M150 98L138 98" stroke="white"/>
<circle cx="144" cy="109" r="0.5" fill="white" stroke="white"/>
<circle cx="144" cy="115" r="0.5" fill="white" stroke="white"/>
<circle cx="144" cy="121" r="0.5" fill="white" stroke="white"/>
<circle cx="144" cy="127" r="0.5" fill="white" stroke="white"/>
<circle cx="144" cy="133" r="0.5" fill="white" stroke="white"/>
<path d="M144 138V150M150 144L138 144" stroke="white"/>
<circle cx="144" cy="155" r="0.5" fill="white" stroke="white"/>
<circle cx="144" cy="161" r="0.5" fill="white" stroke="white"/>
<circle cx="144" cy="167" r="0.5" fill="white" stroke="white"/>
<circle cx="144" cy="173" r="0.5" fill="white" stroke="white"/>
<circle cx="144" cy="179" r="0.5" fill="white" stroke="white"/>
<circle cx="190" cy="17" r="0.5" fill="white" stroke="white"/>
<circle cx="190" cy="23" r="0.5" fill="white" stroke="white"/>
<circle cx="190" cy="29" r="0.5" fill="white" stroke="white"/>
<circle cx="190" cy="35" r="0.5" fill="white" stroke="white"/>
<circle cx="190" cy="41" r="0.5" fill="white" stroke="white"/>
<path d="M190 46V58M196 52L184 52" stroke="white"/>
<circle cx="190" cy="63" r="0.5" fill="white" stroke="white"/>
<circle cx="190" cy="69" r="0.5" fill="white" stroke="white"/>
<circle cx="190" cy="75" r="0.5" fill="white" stroke="white"/>
<circle cx="190" cy="81" r="0.5" fill="white" stroke="white"/>
<circle cx="190" cy="87" r="0.5" fill="white" stroke="white"/>
<path d="M190 92V104M196 98L184 98" stroke="white"/>
<circle cx="190" cy="109" r="0.5" fill="white" stroke="white"/>
<circle cx="190" cy="115" r="0.5" fill="white" stroke="white"/>
<circle cx="190" cy="121" r="0.5" fill="white" stroke="white"/>
<circle cx="190" cy="127" r="0.5" fill="white" stroke="white"/>
<circle cx="190" cy="133" r="0.5" fill="white" stroke="white"/>
<path d="M190 138V150M196 144L184 144" stroke="white"/>
<circle cx="190" cy="155" r="0.5" fill="white" stroke="white"/>
<circle cx="190" cy="161" r="0.5" fill="white" stroke="white"/>
<circle cx="190" cy="167" r="0.5" fill="white" stroke="white"/>
<circle cx="190" cy="173" r="0.5" fill="white" stroke="white"/>
<circle cx="190" cy="179" r="0.5" fill="white" stroke="white"/>
<circle cx="236" cy="17" r="0.5" fill="white" stroke="white"/>
<circle cx="236" cy="23" r="0.5" fill="white" stroke="white"/>
<circle cx="236" cy="29" r="0.5" fill="white" stroke="white"/>
<circle cx="236" cy="35" r="0.5" fill="white" stroke="white"/>
<circle cx="236" cy="41" r="0.5" fill="white" stroke="white"/>
<path d="M236 46V58M242 52L230 52" stroke="white"/>
<circle cx="236" cy="63" r="0.5" fill="white" stroke="white"/>
<circle cx="236" cy="69" r="0.5" fill="white" stroke="white"/>
<circle cx="236" cy="75" r="0.5" fill="white" stroke="white"/>
<circle cx="236" cy="81" r="0.5" fill="white" stroke="white"/>
<circle cx="236" cy="87" r="0.5" fill="white" stroke="white"/>
<path d="M236 92V104M242 98L230 98" stroke="white"/>
<circle cx="236" cy="109" r="0.5" fill="white" stroke="white"/>
<circle cx="236" cy="115" r="0.5" fill="white" stroke="white"/>
<circle cx="236" cy="121" r="0.5" fill="white" stroke="white"/>
<circle cx="236" cy="127" r="0.5" fill="white" stroke="white"/>
<circle cx="236" cy="133" r="0.5" fill="white" stroke="white"/>
<path d="M236 138V150M242 144L230 144" stroke="white"/>
<circle cx="236" cy="155" r="0.5" fill="white" stroke="white"/>
<circle cx="236" cy="161" r="0.5" fill="white" stroke="white"/>
<circle cx="236" cy="167" r="0.5" fill="white" stroke="white"/>
<circle cx="236" cy="173" r="0.5" fill="white" stroke="white"/>
<circle cx="236" cy="179" r="0.5" fill="white" stroke="white"/>
<circle cx="282" cy="17" r="0.5" fill="white" stroke="white"/>
<circle cx="282" cy="23" r="0.5" fill="white" stroke="white"/>
<circle cx="282" cy="29" r="0.5" fill="white" stroke="white"/>
<circle cx="282" cy="35" r="0.5" fill="white" stroke="white"/>
<circle cx="282" cy="41" r="0.5" fill="white" stroke="white"/>
<path d="M282 46V58M288 52L276 52" stroke="white"/>
<circle cx="282" cy="63" r="0.5" fill="white" stroke="white"/>
<circle cx="282" cy="69" r="0.5" fill="white" stroke="white"/>
<circle cx="282" cy="75" r="0.5" fill="white" stroke="white"/>
<circle cx="282" cy="81" r="0.5" fill="white" stroke="white"/>
<circle cx="282" cy="87" r="0.5" fill="white" stroke="white"/>
<path d="M282 92V104M288 98L276 98" stroke="white"/>
<circle cx="282" cy="109" r="0.5" fill="white" stroke="white"/>
<circle cx="282" cy="115" r="0.5" fill="white" stroke="white"/>
<circle cx="282" cy="121" r="0.5" fill="white" stroke="white"/>
<circle cx="282" cy="127" r="0.5" fill="white" stroke="white"/>
<circle cx="282" cy="133" r="0.5" fill="white" stroke="white"/>
<path d="M282 138V150M288 144L276 144" stroke="white"/>
<circle cx="282" cy="155" r="0.5" fill="white" stroke="white"/>
<circle cx="282" cy="161" r="0.5" fill="white" stroke="white"/>
<circle cx="282" cy="167" r="0.5" fill="white" stroke="white"/>
<circle cx="282" cy="173" r="0.5" fill="white" stroke="white"/>
<circle cx="282" cy="179" r="0.5" fill="white" stroke="white"/>
<path d="M282 0V12M288 6L276 6" stroke="white"/>
<circle cx="293" cy="6" r="0.5" fill="white" stroke="white"/>
<circle cx="299" cy="6" r="0.5" fill="white" stroke="white"/>
<circle cx="305" cy="6" r="0.5" fill="white" stroke="white"/>
<circle cx="311" cy="6" r="0.5" fill="white" stroke="white"/>
<circle cx="317" cy="6" r="0.5" fill="white" stroke="white"/>
<path d="M328 0V12M334 6L322 6" stroke="white"/>
<circle cx="339" cy="6" r="0.5" fill="white" stroke="white"/>
<circle cx="345" cy="6" r="0.5" fill="white" stroke="white"/>
<circle cx="351" cy="6" r="0.5" fill="white" stroke="white"/>
<circle cx="357" cy="6" r="0.5" fill="white" stroke="white"/>
<circle cx="363" cy="6" r="0.5" fill="white" stroke="white"/>
<path d="M374 0V12M380 6L368 6" stroke="white"/>
<circle cx="385" cy="6" r="0.5" fill="white" stroke="white"/>
<circle cx="391" cy="6" r="0.5" fill="white" stroke="white"/>
<circle cx="397" cy="6" r="0.5" fill="white" stroke="white"/>
<circle cx="403" cy="6" r="0.5" fill="white" stroke="white"/>
<circle cx="409" cy="6" r="0.5" fill="white" stroke="white"/>
<path d="M420 0V12M426 6L414 6" stroke="white"/>
<path d="M282 46V58M288 52L276 52" stroke="white"/>
<circle cx="293" cy="52" r="0.5" fill="white" stroke="white"/>
<circle cx="299" cy="52" r="0.5" fill="white" stroke="white"/>
<circle cx="305" cy="52" r="0.5" fill="white" stroke="white"/>
<circle cx="311" cy="52" r="0.5" fill="white" stroke="white"/>
<circle cx="317" cy="52" r="0.5" fill="white" stroke="white"/>
<path d="M328 46V58M334 52L322 52" stroke="white"/>
<circle cx="339" cy="52" r="0.5" fill="white" stroke="white"/>
<circle cx="345" cy="52" r="0.5" fill="white" stroke="white"/>
<circle cx="351" cy="52" r="0.5" fill="white" stroke="white"/>
<circle cx="357" cy="52" r="0.5" fill="white" stroke="white"/>
<circle cx="363" cy="52" r="0.5" fill="white" stroke="white"/>
<path d="M374 46V58M380 52L368 52" stroke="white"/>
<circle cx="385" cy="52" r="0.5" fill="white" stroke="white"/>
<circle cx="391" cy="52" r="0.5" fill="white" stroke="white"/>
<circle cx="397" cy="52" r="0.5" fill="white" stroke="white"/>
<circle cx="403" cy="52" r="0.5" fill="white" stroke="white"/>
<circle cx="409" cy="52" r="0.5" fill="white" stroke="white"/>
<path d="M420 46V58M426 52L414 52" stroke="white"/>
<path d="M282 92V104M288 98L276 98" stroke="white"/>
<circle cx="293" cy="98" r="0.5" fill="white" stroke="white"/>
<circle cx="299" cy="98" r="0.5" fill="white" stroke="white"/>
<circle cx="305" cy="98" r="0.5" fill="white" stroke="white"/>
<circle cx="311" cy="98" r="0.5" fill="white" stroke="white"/>
<circle cx="317" cy="98" r="0.5" fill="white" stroke="white"/>
<path d="M328 92V104M334 98L322 98" stroke="white"/>
<circle cx="339" cy="98" r="0.5" fill="white" stroke="white"/>
<circle cx="345" cy="98" r="0.5" fill="white" stroke="white"/>
<circle cx="351" cy="98" r="0.5" fill="white" stroke="white"/>
<circle cx="357" cy="98" r="0.5" fill="white" stroke="white"/>
<circle cx="363" cy="98" r="0.5" fill="white" stroke="white"/>
<path d="M374 92V104M380 98L368 98" stroke="white"/>
<circle cx="385" cy="98" r="0.5" fill="white" stroke="white"/>
<circle cx="391" cy="98" r="0.5" fill="white" stroke="white"/>
<circle cx="397" cy="98" r="0.5" fill="white" stroke="white"/>
<circle cx="403" cy="98" r="0.5" fill="white" stroke="white"/>
<circle cx="409" cy="98" r="0.5" fill="white" stroke="white"/>
<path d="M420 92V104M426 98L414 98" stroke="white"/>
<path d="M282 138V150M288 144L276 144" stroke="white"/>
<circle cx="293" cy="144" r="0.5" fill="white" stroke="white"/>
<circle cx="299" cy="144" r="0.5" fill="white" stroke="white"/>
<circle cx="305" cy="144" r="0.5" fill="white" stroke="white"/>
<circle cx="311" cy="144" r="0.5" fill="white" stroke="white"/>
<circle cx="317" cy="144" r="0.5" fill="white" stroke="white"/>
<path d="M328 138V150M334 144L322 144" stroke="white"/>
<circle cx="339" cy="144" r="0.5" fill="white" stroke="white"/>
<circle cx="345" cy="144" r="0.5" fill="white" stroke="white"/>
<circle cx="351" cy="144" r="0.5" fill="white" stroke="white"/>
<circle cx="357" cy="144" r="0.5" fill="white" stroke="white"/>
<circle cx="363" cy="144" r="0.5" fill="white" stroke="white"/>
<path d="M374 138V150M380 144L368 144" stroke="white"/>
<circle cx="385" cy="144" r="0.5" fill="white" stroke="white"/>
<circle cx="391" cy="144" r="0.5" fill="white" stroke="white"/>
<circle cx="397" cy="144" r="0.5" fill="white" stroke="white"/>
<circle cx="403" cy="144" r="0.5" fill="white" stroke="white"/>
<circle cx="409" cy="144" r="0.5" fill="white" stroke="white"/>
<path d="M420 138V150M426 144L414 144" stroke="white"/>
<path d="M282 184V196M288 190L276 190" stroke="white"/>
<circle cx="293" cy="190" r="0.5" fill="white" stroke="white"/>
<circle cx="299" cy="190" r="0.5" fill="white" stroke="white"/>
<circle cx="305" cy="190" r="0.5" fill="white" stroke="white"/>
<circle cx="311" cy="190" r="0.5" fill="white" stroke="white"/>
<circle cx="317" cy="190" r="0.5" fill="white" stroke="white"/>
<path d="M328 184V196M334 190L322 190" stroke="white"/>
<circle cx="339" cy="190" r="0.5" fill="white" stroke="white"/>
<circle cx="345" cy="190" r="0.5" fill="white" stroke="white"/>
<circle cx="351" cy="190" r="0.5" fill="white" stroke="white"/>
<circle cx="357" cy="190" r="0.5" fill="white" stroke="white"/>
<circle cx="363" cy="190" r="0.5" fill="white" stroke="white"/>
<path d="M374 184V196M380 190L368 190" stroke="white"/>
<circle cx="385" cy="190" r="0.5" fill="white" stroke="white"/>
<circle cx="391" cy="190" r="0.5" fill="white" stroke="white"/>
<circle cx="397" cy="190" r="0.5" fill="white" stroke="white"/>
<circle cx="403" cy="190" r="0.5" fill="white" stroke="white"/>
<circle cx="409" cy="190" r="0.5" fill="white" stroke="white"/>
<path d="M420 184V196M426 190L414 190" stroke="white"/>
<circle cx="282" cy="17" r="0.5" fill="white" stroke="white"/>
<circle cx="282" cy="23" r="0.5" fill="white" stroke="white"/>
<circle cx="282" cy="29" r="0.5" fill="white" stroke="white"/>
<circle cx="282" cy="35" r="0.5" fill="white" stroke="white"/>
<circle cx="282" cy="41" r="0.5" fill="white" stroke="white"/>
<path d="M282 46V58M288 52L276 52" stroke="white"/>
<circle cx="282" cy="63" r="0.5" fill="white" stroke="white"/>
<circle cx="282" cy="69" r="0.5" fill="white" stroke="white"/>
<circle cx="282" cy="75" r="0.5" fill="white" stroke="white"/>
<circle cx="282" cy="81" r="0.5" fill="white" stroke="white"/>
<circle cx="282" cy="87" r="0.5" fill="white" stroke="white"/>
<path d="M282 92V104M288 98L276 98" stroke="white"/>
<circle cx="282" cy="109" r="0.5" fill="white" stroke="white"/>
<circle cx="282" cy="115" r="0.5" fill="white" stroke="white"/>
<circle cx="282" cy="121" r="0.5" fill="white" stroke="white"/>
<circle cx="282" cy="127" r="0.5" fill="white" stroke="white"/>
<circle cx="282" cy="133" r="0.5" fill="white" stroke="white"/>
<path d="M282 138V150M288 144L276 144" stroke="white"/>
<circle cx="282" cy="155" r="0.5" fill="white" stroke="white"/>
<circle cx="282" cy="161" r="0.5" fill="white" stroke="white"/>
<circle cx="282" cy="167" r="0.5" fill="white" stroke="white"/>
<circle cx="282" cy="173" r="0.5" fill="white" stroke="white"/>
<circle cx="282" cy="179" r="0.5" fill="white" stroke="white"/>
<circle cx="328" cy="17" r="0.5" fill="white" stroke="white"/>
<circle cx="328" cy="23" r="0.5" fill="white" stroke="white"/>
<circle cx="328" cy="29" r="0.5" fill="white" stroke="white"/>
<circle cx="328" cy="35" r="0.5" fill="white" stroke="white"/>
<circle cx="328" cy="41" r="0.5" fill="white" stroke="white"/>
<path d="M328 46V58M334 52L322 52" stroke="white"/>
<circle cx="328" cy="63" r="0.5" fill="white" stroke="white"/>
<circle cx="328" cy="69" r="0.5" fill="white" stroke="white"/>
<circle cx="328" cy="75" r="0.5" fill="white" stroke="white"/>
<circle cx="328" cy="81" r="0.5" fill="white" stroke="white"/>
<circle cx="328" cy="87" r="0.5" fill="white" stroke="white"/>
<path d="M328 92V104M334 98L322 98" stroke="white"/>
<circle cx="328" cy="109" r="0.5" fill="white" stroke="white"/>
<circle cx="328" cy="115" r="0.5" fill="white" stroke="white"/>
<circle cx="328" cy="121" r="0.5" fill="white" stroke="white"/>
<circle cx="328" cy="127" r="0.5" fill="white" stroke="white"/>
<circle cx="328" cy="133" r="0.5" fill="white" stroke="white"/>
<path d="M328 138V150M334 144L322 144" stroke="white"/>
<circle cx="328" cy="155" r="0.5" fill="white" stroke="white"/>
<circle cx="328" cy="161" r="0.5" fill="white" stroke="white"/>
<circle cx="328" cy="167" r="0.5" fill="white" stroke="white"/>
<circle cx="328" cy="173" r="0.5" fill="white" stroke="white"/>
<circle cx="328" cy="179" r="0.5" fill="white" stroke="white"/>
<circle cx="374" cy="17" r="0.5" fill="white" stroke="white"/>
<circle cx="374" cy="23" r="0.5" fill="white" stroke="white"/>
<circle cx="374" cy="29" r="0.5" fill="white" stroke="white"/>
<circle cx="374" cy="35" r="0.5" fill="white" stroke="white"/>
<circle cx="374" cy="41" r="0.5" fill="white" stroke="white"/>
<path d="M374 46V58M380 52L368 52" stroke="white"/>
<circle cx="374" cy="63" r="0.5" fill="white" stroke="white"/>
<circle cx="374" cy="69" r="0.5" fill="white" stroke="white"/>
<circle cx="374" cy="75" r="0.5" fill="white" stroke="white"/>
<circle cx="374" cy="81" r="0.5" fill="white" stroke="white"/>
<circle cx="374" cy="87" r="0.5" fill="white" stroke="white"/>
<path d="M374 92V104M380 98L368 98" stroke="white"/>
<circle cx="374" cy="109" r="0.5" fill="white" stroke="white"/>
<circle cx="374" cy="115" r="0.5" fill="white" stroke="white"/>
<circle cx="374" cy="121" r="0.5" fill="white" stroke="white"/>
<circle cx="374" cy="127" r="0.5" fill="white" stroke="white"/>
<circle cx="374" cy="133" r="0.5" fill="white" stroke="white"/>
<path d="M374 138V150M380 144L368 144" stroke="white"/>
<circle cx="374" cy="155" r="0.5" fill="white" stroke="white"/>
<circle cx="374" cy="161" r="0.5" fill="white" stroke="white"/>
<circle cx="374" cy="167" r="0.5" fill="white" stroke="white"/>
<circle cx="374" cy="173" r="0.5" fill="white" stroke="white"/>
<circle cx="374" cy="179" r="0.5" fill="white" stroke="white"/>
<circle cx="420" cy="17" r="0.5" fill="white" stroke="white"/>
<circle cx="420" cy="23" r="0.5" fill="white" stroke="white"/>
<circle cx="420" cy="29" r="0.5" fill="white" stroke="white"/>
<circle cx="420" cy="35" r="0.5" fill="white" stroke="white"/>
<circle cx="420" cy="41" r="0.5" fill="white" stroke="white"/>
<path d="M420 46V58M426 52L414 52" stroke="white"/>
<circle cx="420" cy="63" r="0.5" fill="white" stroke="white"/>
<circle cx="420" cy="69" r="0.5" fill="white" stroke="white"/>
<circle cx="420" cy="75" r="0.5" fill="white" stroke="white"/>
<circle cx="420" cy="81" r="0.5" fill="white" stroke="white"/>
<circle cx="420" cy="87" r="0.5" fill="white" stroke="white"/>
<path d="M420 92V104M426 98L414 98" stroke="white"/>
<circle cx="420" cy="109" r="0.5" fill="white" stroke="white"/>
<circle cx="420" cy="115" r="0.5" fill="white" stroke="white"/>
<circle cx="420" cy="121" r="0.5" fill="white" stroke="white"/>
<circle cx="420" cy="127" r="0.5" fill="white" stroke="white"/>
<circle cx="420" cy="133" r="0.5" fill="white" stroke="white"/>
<path d="M420 138V150M426 144L414 144" stroke="white"/>
<circle cx="420" cy="155" r="0.5" fill="white" stroke="white"/>
<circle cx="420" cy="161" r="0.5" fill="white" stroke="white"/>
<circle cx="420" cy="167" r="0.5" fill="white" stroke="white"/>
<circle cx="420" cy="173" r="0.5" fill="white" stroke="white"/>
<circle cx="420" cy="179" r="0.5" fill="white" stroke="white"/>
</g>
</svg>
