<svg width="77" height="77" viewBox="0 0 77 77" fill="none" xmlns="http://www.w3.org/2000/svg">
<rect x="0.295898" y="13.78" width="64" height="64" rx="24" transform="rotate(-12 0.295898 13.78)" fill="#F4F7FF"/>
<path fill-rule="evenodd" clip-rule="evenodd" d="M43.6953 26.5047C43.1715 26.3087 42.7989 25.8031 42.7989 25.2104C42.7989 24.4483 43.4171 23.8301 44.1792 23.8301C44.9413 23.8301 45.5594 24.4483 45.5594 25.2104C45.5594 25.8031 45.1868 26.3087 44.663 26.5047L44.663 28.7499C44.6618 28.8043 44.6534 28.8587 44.6352 28.9107C44.588 29.045 44.4792 29.1551 44.3461 29.2047C44.2941 29.2228 44.2397 29.2325 44.1852 29.2337L39.8244 29.2337C39.7615 29.2337 39.6998 29.2216 39.6417 29.1974C39.5207 29.1478 39.4228 29.0486 39.3744 28.9265C39.3574 28.8841 39.3466 28.8394 39.3429 28.7934C39.3381 28.7426 39.3417 28.6906 39.3526 28.641C39.3659 28.5853 39.3889 28.5321 39.4203 28.4849C39.4542 28.4329 39.4978 28.3882 39.5486 28.3531C39.603 28.3156 39.6635 28.289 39.7276 28.2769C39.759 28.2696 39.7917 28.266 39.8244 28.266L43.6953 28.266L43.6953 26.5047ZM44.3667 25.7329C44.5808 25.6555 44.7344 25.4511 44.7344 25.2104C44.7344 24.9043 44.4852 24.6563 44.1792 24.6563C43.8731 24.6563 43.6239 24.9043 43.6239 25.2104C43.6239 25.4511 43.7775 25.6555 43.9917 25.7329C44.0497 25.7087 44.1126 25.6954 44.1792 25.6954C44.2457 25.6954 44.3098 25.7087 44.3667 25.7329Z" fill="#3064EA"/>
<path fill-rule="evenodd" clip-rule="evenodd" d="M45.7895 31.1692C45.9854 30.6454 46.4911 30.2728 47.0826 30.2728C47.8447 30.2728 48.4628 30.891 48.4628 31.6531C48.4628 32.4151 47.8447 33.0333 47.0826 33.0333C46.4911 33.0333 45.9854 32.6607 45.7895 32.1369L39.8245 32.1369C39.7567 32.1357 39.6902 32.1224 39.6285 32.0946C39.5705 32.0692 39.5184 32.0317 39.4749 31.9869C39.4326 31.9434 39.3999 31.8914 39.3769 31.8357C39.3563 31.7849 39.3442 31.7305 39.3418 31.6748C39.3394 31.6216 39.3455 31.5684 39.36 31.5176C39.3733 31.4728 39.3938 31.4293 39.4192 31.3893C39.4761 31.3022 39.5608 31.2345 39.6588 31.1982C39.712 31.1789 39.7676 31.1692 39.8245 31.1692L45.7895 31.1692ZM46.56 31.8406C46.6374 32.0547 46.8419 32.2083 47.0826 32.2083C47.3886 32.2083 47.6378 31.9591 47.6378 31.6531C47.6378 31.347 47.3886 31.0978 47.0826 31.0978C46.8419 31.0978 46.6374 31.2514 46.56 31.4655C46.5842 31.5224 46.5987 31.5865 46.5987 31.653C46.5987 31.7196 46.5842 31.7837 46.56 31.8406Z" fill="#3064EA"/>
<path fill-rule="evenodd" clip-rule="evenodd" d="M44.6633 35.6824L44.6633 34.5562L39.8259 34.5659C39.5586 34.5671 39.342 34.3506 39.3408 34.0845C39.3408 33.8171 39.5561 33.6006 39.8235 33.5994L45.1462 33.5885C45.2756 33.5885 45.3978 33.6393 45.4885 33.73C45.5805 33.8208 45.6313 33.9441 45.6313 34.0724L45.6313 35.6824C46.1551 35.8784 46.5276 36.384 46.5276 36.9756C46.5276 37.7377 45.9095 38.3558 45.1474 38.3558C44.3853 38.3558 43.7672 37.7377 43.7672 36.9756C43.7672 36.384 44.1396 35.8784 44.6633 35.6824ZM44.9597 36.453C44.7456 36.5304 44.592 36.7349 44.592 36.9756C44.592 37.2816 44.8412 37.5308 45.1472 37.5308C45.4533 37.5308 45.7025 37.2816 45.7025 36.9756C45.7025 36.7349 45.5488 36.5304 45.3347 36.453C45.2779 36.4772 45.2138 36.4917 45.1472 36.4917C45.0807 36.4917 45.0178 36.4772 44.9597 36.453Z" fill="#3064EA"/>
<path fill-rule="evenodd" clip-rule="evenodd" d="M41.7603 36.9755L39.8249 36.9755C39.8067 36.9755 39.7886 36.9731 39.7704 36.9707C39.7172 36.9659 39.664 36.9513 39.6156 36.9271C39.4874 36.8667 39.3882 36.7469 39.3555 36.6078C39.3446 36.5606 39.341 36.5098 39.3446 36.4602C39.3507 36.3901 39.3724 36.3211 39.4075 36.2594C39.4414 36.2001 39.4886 36.1469 39.543 36.1058C39.6228 36.0453 39.7232 36.0078 39.8249 36.0078L42.2442 36.0078C42.295 36.0078 42.3458 36.0163 42.3942 36.032C42.5297 36.0756 42.641 36.182 42.6942 36.3151C42.716 36.3707 42.7269 36.4312 42.7281 36.4917L42.7281 41.0049C43.2519 41.2009 43.6244 41.7065 43.6244 42.298C43.6244 43.0601 43.0063 43.6783 42.2442 43.6783C41.4821 43.6783 40.864 43.0601 40.864 42.298C40.864 41.7065 41.2366 41.2009 41.7603 41.0049L41.7603 36.9755ZM42.0567 41.7755C41.8426 41.8529 41.689 42.0574 41.689 42.2981C41.689 42.6041 41.9382 42.8533 42.2442 42.8533C42.5503 42.8533 42.7995 42.6041 42.7995 42.2981C42.7995 42.0574 42.6458 41.8529 42.4317 41.7755C42.3749 41.7997 42.3108 41.8142 42.2442 41.8142C42.1777 41.8142 42.1148 41.7997 42.0567 41.7755Z" fill="#3064EA"/>
<path fill-rule="evenodd" clip-rule="evenodd" d="M38.5727 41.264C38.5691 42.591 37.4901 43.6664 36.1618 43.6664C35.3659 43.6664 34.6594 43.2793 34.2215 42.6829C34.1199 42.6962 34.0183 42.7023 33.9143 42.7023C32.7458 42.7023 31.7707 41.87 31.5506 40.7668C31.4829 40.7728 31.4139 40.7753 31.345 40.7753C30.0143 40.7753 28.9341 39.695 28.9341 38.3644C28.9341 38.0765 28.9849 37.7983 29.0792 37.5418C28.7865 37.1426 28.6135 36.6491 28.6135 36.1168C28.6135 35.8374 28.6607 35.5688 28.7478 35.3196C28.27 34.8793 27.97 34.2479 27.97 33.5475C27.97 32.8459 28.27 32.2144 28.7478 31.7741C28.6607 31.5249 28.6135 31.2563 28.6135 30.9781C28.6135 30.4446 28.7865 29.9523 29.0792 29.5531C28.9849 29.2955 28.9341 29.0184 28.9341 28.7293C28.9341 27.3987 30.0143 26.3184 31.345 26.3184C31.3982 26.3184 31.4732 26.3209 31.5518 26.3221C31.7744 25.2213 32.7482 24.3914 33.9143 24.3914C34.0183 24.3914 34.1199 24.3975 34.2215 24.4108C34.6595 23.8144 35.3659 23.4273 36.1619 23.4273C37.4925 23.4273 38.5727 24.5088 38.5727 25.8382L38.5727 41.264ZM37.6062 25.8384C37.6062 25.6521 37.5699 25.4659 37.4998 25.2929C37.4369 25.1404 37.3473 24.9977 37.2373 24.8743C37.1369 24.763 37.0183 24.6662 36.8889 24.5912C36.7619 24.5162 36.6227 24.4618 36.48 24.4292C36.1824 24.3626 35.8667 24.3929 35.5873 24.5138C35.4482 24.5743 35.3211 24.6566 35.2086 24.7558L35.2002 24.763C35.3671 24.9251 35.5486 25.1513 35.678 25.4513C35.8667 25.8929 35.9514 26.4989 35.6514 27.2937C35.557 27.5428 35.2788 27.6698 35.0284 27.5755C34.7792 27.4824 34.6522 27.2029 34.7466 26.9525C34.9292 26.4687 34.9038 26.1009 34.7889 25.8324C34.7103 25.6509 34.5966 25.5191 34.5022 25.432C34.4417 25.438 34.3788 25.4332 34.3171 25.415C34.1901 25.3787 34.0546 25.3582 33.9143 25.3582C33.1171 25.3582 32.4699 26.0053 32.4699 26.8025C32.4699 26.9501 32.4203 27.1812 32.1155 27.2743C32.0768 27.2852 32.0066 27.2997 31.9135 27.3021C31.778 27.3045 31.5107 27.2852 31.345 27.2852C30.5478 27.2852 29.9006 27.9323 29.9006 28.7295C29.9006 28.9739 29.9623 29.205 30.07 29.407C30.168 29.592 30.1353 29.8207 29.9889 29.9707C29.7361 30.2307 29.5801 30.5864 29.5801 30.9783C29.5801 31.1307 29.603 31.2795 29.6478 31.4186C29.8377 31.4005 30.0881 31.3944 30.347 31.4356C30.9591 31.5323 31.6159 31.8686 31.8167 32.8037C31.8736 33.0638 31.7066 33.3215 31.4466 33.3771C31.1853 33.434 30.9276 33.267 30.872 33.007C30.78 32.5799 30.474 32.4348 30.1958 32.39C29.8498 32.3356 29.5317 32.4106 29.5317 32.4106C29.5135 32.4154 29.4954 32.4191 29.4784 32.4203C29.1482 32.6852 28.9377 33.0916 28.9377 33.5477C28.9377 34.0581 29.2038 34.5082 29.6042 34.7646C29.8208 34.9025 29.8909 35.1856 29.7651 35.4093C29.6466 35.6186 29.58 35.8605 29.58 36.117C29.58 36.417 29.6708 36.6952 29.828 36.9263C29.8329 36.9275 29.8389 36.9287 29.8437 36.9299C29.8437 36.9299 30.3445 37.04 30.9046 36.9577C31.3982 36.8852 31.957 36.6565 32.1675 35.9743C32.4506 35.0561 32.8655 34.6473 33.2417 34.4755C33.8804 34.184 34.5349 34.5251 34.853 34.7719C35.0635 34.9352 35.1022 35.2388 34.9377 35.4493C34.7744 35.661 34.4707 35.6985 34.2603 35.5352C34.1357 35.4384 33.8937 35.2412 33.6433 35.3549C33.5066 35.4178 33.3869 35.5521 33.2768 35.7759C33.5272 35.857 33.8042 36.0033 34.0183 36.2622C34.2373 36.5271 34.4066 36.9106 34.3982 37.4791C34.3933 37.7453 34.1732 37.9582 33.907 37.9545C33.6397 37.9509 33.4268 37.7307 33.4304 37.4634C33.4353 37.1937 33.3784 37.0049 33.2744 36.8792C33.174 36.7582 33.0433 36.6977 32.9272 36.6675C32.511 37.4864 31.7502 37.8106 31.045 37.9146C30.6264 37.9751 30.2333 37.9558 29.9683 37.9255C29.9248 38.0646 29.9006 38.2122 29.9006 38.3646C29.9006 39.1618 30.5478 39.809 31.3449 39.809C31.5143 39.809 31.6776 39.78 31.8288 39.7267C31.9812 39.6723 32.1518 39.6977 32.2812 39.7957C32.4107 39.8937 32.482 40.0497 32.4724 40.2118C32.4711 40.2384 32.4699 40.265 32.4699 40.2929C32.4699 41.0888 33.1171 41.736 33.9143 41.736C34.0546 41.736 34.1901 41.7167 34.3171 41.6792C34.5385 41.6151 34.7744 41.7155 34.8808 41.9211C35.1215 42.3832 35.6054 42.7001 36.1618 42.7001C36.9481 42.7001 37.5893 42.0699 37.6062 41.2884C37.5856 41.1663 37.4852 40.709 37.0982 40.4961C36.9022 40.3872 36.6336 40.357 36.2731 40.4417C36.0131 40.5034 35.753 40.3413 35.6925 40.0824C35.6308 39.8223 35.7917 39.5622 36.0518 39.5005C36.7159 39.3445 37.2034 39.4497 37.5651 39.6481C37.5784 39.6566 37.5929 39.6638 37.6062 39.6723L37.6062 32.211C37.426 32.1082 37.1502 31.963 36.8478 31.8566C36.5611 31.7562 36.249 31.6727 35.9937 31.7574C34.8784 32.1275 33.4692 31.6376 33.1292 30.4703C33.0542 30.2138 33.2018 29.9453 33.4583 29.8715C33.7135 29.7965 33.982 29.9441 34.0571 30.2005C34.247 30.8513 35.0659 31.0473 35.6889 30.8404C36.1292 30.6941 36.6748 30.7703 37.1683 30.9445C37.3219 30.9989 37.4695 31.0606 37.6062 31.1235L37.6062 25.8384Z" fill="#3064EA"/>
<path fill-rule="evenodd" clip-rule="evenodd" d="M25.1879 37.5078C25.1879 37.3675 25.2085 37.2296 25.2484 37.0953C25.3452 36.7651 25.5557 36.4723 25.8363 36.2751C25.9367 36.205 26.0468 36.1469 26.1605 36.1034C26.3287 36.0393 26.5089 36.0078 26.6879 36.0078L27.1234 36.0078C27.2093 36.0078 27.2952 36.0308 27.3689 36.0756C27.4222 36.107 27.4693 36.1481 27.5081 36.1977C27.5431 36.2449 27.571 36.2969 27.5879 36.3538C27.6024 36.4046 27.6085 36.4578 27.6072 36.511C27.6048 36.5594 27.5964 36.6066 27.5794 36.6526C27.5335 36.7832 27.4306 36.8909 27.3012 36.9417C27.2468 36.9635 27.1887 36.9743 27.1294 36.9755L26.6806 36.9755C26.6153 36.9768 26.55 36.9901 26.4883 37.0143C26.3407 37.0747 26.2258 37.203 26.1786 37.3554C26.1629 37.405 26.1556 37.4558 26.1556 37.5078L26.1097 49.5827L35.8329 49.5561C35.851 49.5561 35.8692 49.5561 35.8861 49.5573C35.9127 49.5585 35.9405 49.5621 35.9671 49.5657C36.0216 49.5742 36.0772 49.5863 36.1304 49.602C36.2296 49.6323 36.3252 49.6782 36.4099 49.7375C36.5115 49.8089 36.5974 49.8996 36.6627 50.0061C36.7256 50.1101 36.7667 50.2274 36.7861 50.3472C36.7921 50.3883 36.7958 50.4283 36.7982 50.4682C36.7994 50.4791 36.7994 50.4899 36.8006 50.502L36.8006 50.5129C36.8006 50.5166 36.797 50.5238 36.8006 50.5238C37.7683 50.5274 38.7361 50.5262 39.7038 50.5238C39.7062 50.5238 39.7038 50.519 39.7038 50.5166L39.7038 50.5033C39.7038 50.4899 39.705 50.4766 39.705 50.4633C39.7074 50.4234 39.7123 50.3823 39.7183 50.3424C39.7377 50.2238 39.7788 50.1101 39.8405 50.0085C39.8756 49.9504 39.9167 49.896 39.9627 49.8464C40.0014 49.8065 40.0437 49.769 40.0897 49.7363C40.1961 49.6589 40.3183 49.6069 40.4465 49.5791C40.5203 49.5633 40.5965 49.5561 40.6715 49.5561L50.3768 49.515L50.332 37.5079C50.3308 37.347 50.2667 37.1837 50.1409 37.0797C50.1203 37.0628 50.0985 37.0482 50.0756 37.0349C50.0465 37.018 50.0163 37.0047 49.9848 36.995C49.9401 36.9817 49.8941 36.9757 49.8481 36.9757L47.9296 36.9757C47.8752 36.9757 47.8207 36.966 47.7687 36.9478C47.649 36.9055 47.5486 36.816 47.4941 36.7011C47.4736 36.6599 47.4602 36.6164 47.453 36.5716C47.4433 36.5184 47.4433 36.4652 47.453 36.412C47.4602 36.3672 47.4736 36.3236 47.4941 36.2825C47.5498 36.1652 47.6526 36.0745 47.7748 36.0333C47.8244 36.0164 47.8764 36.0079 47.9296 36.0079L49.8481 36.0079C50.0054 36.0079 50.1614 36.0321 50.3114 36.0817C50.4143 36.1156 50.5135 36.1615 50.6054 36.2196C50.7626 36.3176 50.9005 36.447 51.0094 36.597C51.0965 36.7192 51.1667 36.8547 51.2151 36.9975C51.2707 37.162 51.2985 37.3337 51.2997 37.5079L51.3167 49.5562L52.7683 49.5562C53.0356 49.5562 53.2522 49.7727 53.2522 50.04C53.2522 51.9029 51.728 53.4273 49.8649 53.4273L26.6393 53.4273C26.5243 53.4273 26.4094 53.4212 26.2945 53.4103C26.0635 53.3861 25.836 53.3389 25.6147 53.2676C25.2046 53.1369 24.8199 52.9264 24.4885 52.6506C24.1159 52.3434 23.8099 51.9575 23.597 51.5232C23.5389 51.4071 23.4881 51.2861 23.4445 51.1627C23.407 51.0575 23.3756 50.9511 23.349 50.8434C23.3296 50.7612 23.3127 50.6789 23.2982 50.5966C23.2764 50.4624 23.2619 50.3281 23.2558 50.1926C23.2546 50.1563 23.2534 50.12 23.2522 50.0837C23.2522 50.0462 23.2522 50.0099 23.257 49.9724C23.274 49.8454 23.3441 49.7293 23.447 49.6531C23.482 49.6253 23.522 49.6035 23.5643 49.5878C23.6187 49.5672 23.678 49.5563 23.7361 49.5563L25.1611 49.52L25.1879 37.5078ZM52.2362 50.5237L40.6717 50.5237C40.6693 50.6592 40.6487 50.7899 40.5967 50.9157C40.4491 51.2774 40.0899 51.4915 39.704 51.4915L36.8008 51.4915C36.4149 51.4915 36.0556 51.2774 35.908 50.9157C35.856 50.7899 35.8355 50.6592 35.833 50.5237L24.2698 50.5262C24.4524 51.3584 25.0536 52.0552 25.8653 52.331C26.1157 52.4169 26.3758 52.4556 26.6395 52.4592L49.8651 52.4592C51.03 52.4592 52.01 51.6245 52.2362 50.5237Z" fill="#3064EA"/>
</svg>
