<svg width="80" height="80" viewBox="0 0 80 80" fill="none" xmlns="http://www.w3.org/2000/svg">
<rect width="80" height="80" rx="24" fill="#3B6BE9"/>
<path d="M53.6247 56.4877H26.3704C26.0113 56.4877 25.7129 56.2503 25.6861 55.9433L24.491 42.2335C24.4557 41.8286 24.6201 41.4257 24.9423 41.1281C25.2646 40.8305 25.7208 40.6599 26.1943 40.6599H53.8008C54.2744 40.6599 54.7306 40.8305 55.0528 41.1281C55.375 41.4257 55.5394 41.8286 55.5041 42.2335L54.309 55.9433C54.2822 56.2503 53.9838 56.4877 53.6247 56.4877ZM27.0074 55.3109H52.9878L54.1355 42.1455C54.145 42.0368 54.0838 41.9628 54.0469 41.9283C54.0097 41.8939 53.9283 41.8364 53.8012 41.8364H26.1943C26.0669 41.8364 25.9855 41.8942 25.9486 41.9283C25.9113 41.9628 25.8505 42.0365 25.86 42.1455L27.0074 55.3109Z" fill="white"/>
<path d="M40.0035 41.6672C39.796 41.6672 39.5996 41.5868 39.4695 41.4484L36.7578 38.566C36.6594 38.4615 36.6055 38.3309 36.6055 38.1964V36.1328C36.6055 35.8078 36.9127 35.5444 37.2917 35.5444C37.6708 35.5444 37.978 35.8078 37.978 36.1328V37.9888L40.0035 40.1415L42.029 37.9888V36.1328C42.029 35.8078 42.3362 35.5444 42.7153 35.5444C43.0944 35.5444 43.4015 35.8078 43.4015 36.1328V38.1964C43.4015 38.3309 43.348 38.4612 43.2493 38.566L40.5375 41.4484C40.4074 41.5868 40.211 41.6672 40.0035 41.6672Z" fill="white"/>
<path d="M46.3905 30.791C46.0114 30.791 45.7042 30.5276 45.7042 30.2026V28.0648C45.7042 25.3791 43.1562 23.1863 40.0245 23.1768C40.0176 23.1768 40.0111 23.1768 40.0042 23.1768C38.5058 23.1768 37.0872 23.684 36.0078 24.6063C34.9078 25.5461 34.3022 26.7893 34.3022 28.1076V30.2029C34.3022 30.5279 33.995 30.7913 33.616 30.7913C33.2369 30.7913 32.9297 30.5279 32.9297 30.2029V28.1076C32.9297 27.2839 33.1205 26.4819 33.4973 25.724C33.8607 24.9927 34.3794 24.3362 35.0392 23.7728C36.3777 22.629 38.1401 22 40.0042 22C40.0127 22 40.0209 22 40.0294 22C41.9133 22.0059 43.6833 22.6391 45.0137 23.7837C46.3444 24.9283 47.0771 26.4489 47.0771 28.0648V30.2026C47.0767 30.5276 46.7696 30.791 46.3905 30.791Z" fill="white"/>
<path d="M39.999 37.4453C37.0131 37.4453 34.584 35.3627 34.584 32.8025V29.1323C34.584 28.9732 34.6591 28.8207 34.7925 28.7101C34.9255 28.5994 35.1046 28.5394 35.2905 28.5442C35.3399 28.5453 40.2461 28.6459 42.3154 26.8717C42.4487 26.7574 42.6317 26.6952 42.8196 26.6997C43.0082 26.7042 43.1863 26.7748 43.3121 26.8953L45.2395 28.74C45.3523 28.8479 45.4147 28.9877 45.4147 29.1326V32.8028C45.414 35.3627 42.985 37.4453 39.999 37.4453ZM35.9565 29.7174V32.8025C35.9565 34.7137 37.7699 36.2685 39.999 36.2685C42.2281 36.2685 44.0415 34.7137 44.0415 32.8025V29.3573L42.7386 28.1102C40.6725 29.4481 37.3935 29.6818 35.9565 29.7174Z" fill="white"/>
<path d="M35.2707 33.4869H34.5985C33.2809 33.4869 32.209 32.5679 32.209 31.4382C32.209 30.3084 33.2809 29.3894 34.5985 29.3894H35.2707C35.6498 29.3894 35.957 29.6528 35.957 29.9778V32.8985C35.957 33.2233 35.6498 33.4869 35.2707 33.4869ZM34.5845 30.5662C34.0302 30.5727 33.5815 30.9613 33.5815 31.4382C33.5815 31.9151 34.0302 32.3037 34.5845 32.3101V30.5662Z" fill="white"/>
<path d="M45.4015 33.4869H44.7292C44.3502 33.4869 44.043 33.2236 44.043 32.8985V29.9778C44.043 29.6528 44.3502 29.3894 44.7292 29.3894H45.4015C46.7191 29.3894 47.791 30.3084 47.791 31.4382C47.791 32.5679 46.7188 33.4869 45.4015 33.4869ZM45.4152 30.5662V32.3098C45.9694 32.3034 46.4181 31.9148 46.4181 31.4379C46.4181 30.961 45.9698 30.5727 45.4152 30.5662Z" fill="white"/>
<path d="M28.8615 41.8376C28.7105 41.8376 28.5586 41.795 28.4318 41.7076C28.1363 41.5039 28.0899 41.1335 28.3275 40.8802C29.0876 40.0705 30.1024 39.4798 31.2615 39.1724L37.1095 37.6227C37.472 37.5274 37.8556 37.702 37.9667 38.0127C38.0778 38.3235 37.8742 38.6524 37.5118 38.7477L37.4893 38.7535L31.6667 40.2968C30.7697 40.5347 29.9847 40.9914 29.3965 41.618C29.2608 41.7625 29.0622 41.8376 28.8615 41.8376Z" fill="white"/>
<path d="M51.1395 41.8373C50.9388 41.8373 50.7401 41.7622 50.6045 41.618C50.0163 40.9914 49.2313 40.5344 48.3342 40.2968L42.4891 38.7479C42.1267 38.6527 41.9231 38.3235 42.0342 38.0127C42.1454 37.702 42.5293 37.5274 42.8918 37.6227L42.9143 37.6286L48.7398 39.1722C49.899 39.4795 50.9137 40.0699 51.6738 40.8799C51.9114 41.1332 51.8646 41.5034 51.5695 41.7073C51.4427 41.7948 51.2905 41.8373 51.1395 41.8373Z" fill="white"/>
<path d="M36.623 51.4639C36.4766 51.4639 36.3292 51.4238 36.2044 51.3414L32.726 49.041C32.5577 48.9295 32.459 48.7575 32.459 48.5751C32.459 48.3927 32.5577 48.2206 32.726 48.1091L36.2044 45.8088C36.5044 45.6104 36.9355 45.658 37.1668 45.9152C37.3982 46.1724 37.3426 46.542 37.0426 46.7404L34.2688 48.5748L37.0426 50.4092C37.3426 50.6076 37.3985 50.9772 37.1668 51.2344C37.0319 51.3851 36.8286 51.4639 36.623 51.4639Z" fill="white"/>
<path d="M43.3801 51.4633C43.1746 51.4633 42.9713 51.3846 42.8363 51.2344C42.605 50.9772 42.6605 50.6076 42.9605 50.4092L45.7344 48.5748L42.9605 46.7404C42.6605 46.542 42.6046 46.1724 42.8363 45.9152C43.0677 45.658 43.4988 45.6104 43.7988 45.8088L47.2772 48.1091C47.4455 48.2206 47.5442 48.3927 47.5442 48.5751C47.5442 48.7575 47.4455 48.9295 47.2772 49.041L43.7988 51.3414C43.6739 51.4232 43.5265 51.4633 43.3801 51.4633Z" fill="white"/>
<path d="M38.7318 53.2167C38.673 53.2167 38.6132 53.2103 38.5537 53.1965C38.1877 53.1125 37.9704 52.7897 38.0684 52.4759L40.6018 44.3694C40.6998 44.0555 41.076 43.8692 41.4423 43.9533C41.8083 44.0373 42.0256 44.3601 41.9276 44.6739L39.3943 52.7804C39.3122 53.0433 39.0348 53.2167 38.7318 53.2167Z" fill="white"/>
<path d="M64.3137 59.9996H15.6863C15.3072 59.9996 15 59.7363 15 59.4112V58.8929C15 56.9214 16.8706 55.3176 19.1699 55.3176H60.8301C63.1294 55.3176 65 56.9214 65 58.8929V59.4112C65 59.7363 64.6928 59.9996 64.3137 59.9996ZM16.3739 58.8228H63.6265C63.583 57.5328 62.3454 56.4947 60.8304 56.4947H19.1699C17.6549 56.4947 16.4173 57.5328 16.3739 58.8228Z" fill="white"/>
</svg>
