<svg width="80" height="80" viewBox="0 0 80 80" fill="none" xmlns="http://www.w3.org/2000/svg">
<rect width="80" height="80" rx="24" fill="#3B6BE9"/>
<path fill-rule="evenodd" clip-rule="evenodd" d="M60.9909 18C62.3285 18.002 63.4299 19.1024 63.4318 20.4433V50.8095C63.4298 52.1504 62.3285 53.2528 60.9909 53.2528H46.1229C46.3475 57.299 47.4547 59.799 47.8902 60.6317H49.716C50.0909 60.6317 50.3994 60.9406 50.3994 61.3159C50.3994 61.6912 50.0909 62 49.716 62H30.7158C30.3409 62 30.0324 61.6912 30.0324 61.3159C30.0324 60.9406 30.3409 60.6317 30.7158 60.6317H32.5416C32.9771 59.799 34.0843 57.299 34.3089 53.2528H19.4409C18.1033 53.2528 17.0019 52.1504 17 50.8095V20.4433C17.002 19.1024 18.1033 18.002 19.4409 18H60.9909ZM46.3709 60.6314C45.3867 58.2916 44.838 55.7897 44.756 53.2525H35.6758C35.5938 55.7897 35.0451 58.2915 34.0609 60.6314H46.3709ZM60.9909 51.8845C61.5787 51.8845 62.0629 51.3997 62.0649 50.8094V45.6453H18.3668V50.8094C18.3688 51.3997 18.8531 51.8845 19.4408 51.8845H60.9909ZM40.2156 46.3976C41.5123 46.3995 42.5785 47.4668 42.5804 48.7647C42.5804 50.0627 41.5123 51.1319 40.2156 51.1319C38.919 51.1319 37.8509 50.0627 37.8509 48.7647C37.8509 47.4668 38.919 46.3976 40.2156 46.3976ZM40.2156 49.7636C40.7624 49.7636 41.2115 49.312 41.2135 48.7647C41.2135 48.2174 40.7624 47.7659 40.2156 47.7659C39.6689 47.7659 39.2178 48.2174 39.2178 48.7647C39.2178 49.312 39.6689 49.7636 40.2156 49.7636ZM21.6764 44.2767H58.7549V22.6815H21.6764V44.2767ZM19.4406 19.3684C18.8528 19.3684 18.3685 19.8531 18.3666 20.4434V44.2769H20.3095V21.9957C20.3095 21.6204 20.6181 21.3115 20.993 21.3115H59.4381C59.813 21.3115 60.1216 21.6204 60.1216 21.9957V44.2769H62.0645V20.4434C62.0626 19.8531 61.5783 19.3684 60.9905 19.3684H19.4406Z" fill="white"/>
</svg>
