<svg width="80" height="80" viewBox="0 0 80 80" fill="none" xmlns="http://www.w3.org/2000/svg">
<rect width="80" height="80" rx="24" fill="#3B6BE9"/>
<path d="M39.7661 15.7722C41.355 17.6164 42.8641 19.4604 43.9868 21.6772C43.3374 21.8981 42.6882 22.0939 41.9145 22.221C41.319 22.3187 40.6445 22.3763 39.9559 22.3763C39.4995 22.3763 39.0407 22.351 38.5977 22.2966C37.5773 22.1714 36.6136 21.8898 35.6009 21.5763C36.7171 19.4045 38.2029 17.5885 39.7661 15.7722ZM39.7927 26.4225C41.2872 26.4224 42.4987 27.5466 42.4987 28.933C42.4987 30.3197 41.2872 31.4437 39.7927 31.4437C38.2982 31.4438 37.0867 30.3197 37.0866 28.9331C37.0867 27.5465 38.2982 26.4224 39.7927 26.4225ZM39.7927 25.1552C37.5438 25.1551 35.7207 26.8465 35.7206 28.9331C35.7206 31.0196 37.5438 32.7111 39.7927 32.7111C42.0416 32.7111 43.8647 31.0196 43.8647 28.9331C43.8647 26.8465 42.0416 25.1551 39.7927 25.1552ZM39.7925 35.3825C39.4156 35.3825 39.1099 35.6659 39.1095 36.0156V36.017V42.6854C39.1096 43.0354 39.4153 43.3191 39.7925 43.3191C40.1697 43.3191 40.4755 43.0354 40.4755 42.6853V36.0176V36.0167C40.4758 35.6668 40.1697 35.3829 39.7925 35.3825C39.7927 35.3825 39.7923 35.3825 39.7925 35.3825ZM35.0539 22.7429C36.1035 23.0692 37.2178 23.4057 38.4186 23.553C38.9273 23.6155 39.4463 23.6435 39.9558 23.6436C40.7231 23.6436 41.4773 23.5797 42.1525 23.4688C43.0657 23.319 43.825 23.0838 44.5252 22.8439C44.8182 23.5463 45.0723 24.2876 45.2792 25.0776C46.3941 29.335 46.153 35.0491 45.9111 38.3333C45.723 40.887 45.5435 41.8659 45.372 42.5024L44.6143 42.5367C44.32 42.55 44.0628 42.7249 43.9606 42.9812L43.4641 44.2258L39.9967 44.2296L36.0743 44.2277L35.5716 42.974C35.4681 42.7161 35.2077 42.5411 34.9112 42.5303L34.1615 42.5032C33.9913 41.8633 33.8132 40.8805 33.6261 38.3313C33.3851 35.0462 33.1444 29.3336 34.2583 25.0771C34.4749 24.2494 34.7432 23.4752 35.0539 22.7429ZM47.4437 37.4659L49.6401 39.3889L48.1564 46.0867L46.7418 43.0347C46.9574 42.2941 47.165 41.3175 47.3781 38.4263C47.4001 38.1271 47.4225 37.8059 47.4437 37.4659ZM32.0967 37.5102C32.1171 37.833 32.1382 38.1384 32.1591 38.4239C32.3773 41.3978 32.5895 42.3485 32.8101 43.1002L31.42 46.0893L29.9449 39.3898L32.0967 37.5102ZM43.4152 45.5901L43.6896 46.345L35.9182 46.3449L36.2428 45.592L39.7768 45.5936C39.7843 45.5939 39.7917 45.594 39.7992 45.594L39.9976 45.5938L40.2825 45.5939C40.2917 45.5939 40.3012 45.5937 40.3102 45.5934L43.4152 45.5901ZM39.7657 14C39.5429 14.0001 39.3323 14.0938 39.1928 14.2549C36.6589 17.1805 34.0163 20.2194 32.8294 24.7553C31.9211 28.2265 31.8732 32.5494 32.0095 35.8458L28.7314 38.7092C28.5591 38.8597 28.4831 39.0823 28.5304 39.2974L30.5168 48.319C30.5765 48.5901 30.8191 48.7939 31.1158 48.8223C31.1394 48.8246 31.1629 48.8257 31.1863 48.8257C31.4564 48.8258 31.7043 48.677 31.8131 48.4431L33.9441 43.8605L34.3643 43.8758L34.8742 45.1473C34.8876 45.1808 34.9036 45.2128 34.922 45.2432L34.2753 46.7433C34.1912 46.9385 34.2169 47.1598 34.3439 47.3339C34.471 47.508 34.6828 47.6123 34.9094 47.6123L44.6408 47.6123C44.8607 47.6123 45.0672 47.514 45.1955 47.3482C45.3238 47.1825 45.3582 46.9695 45.2879 46.7761L44.6808 45.1062L45.171 43.8773L45.6356 43.8563L47.7604 48.4401C47.869 48.6744 48.117 48.8235 48.3875 48.8235C48.4106 48.8235 48.4338 48.8224 48.4572 48.8202C48.7539 48.7921 48.9967 48.5885 49.0568 48.3174L51.0547 39.298C51.1024 39.083 51.0266 38.8602 50.8545 38.7095L47.5304 35.7991C47.6647 32.5087 47.6127 28.2102 46.7081 24.7556C45.52 20.2188 42.875 17.18 40.3387 14.2546C40.1992 14.0936 39.9883 14.0001 39.7657 14ZM36.7172 48.2799C36.3379 48.2799 36.0306 48.5653 36.0306 48.9172L36.0305 53.1681C36.0305 53.5199 36.338 53.8052 36.7172 53.8052C37.0966 53.8052 37.4039 53.5199 37.404 53.168L37.404 48.9172C37.404 48.5653 37.0965 48.28 36.7172 48.2799ZM42.8681 48.28C42.4888 48.28 42.1814 48.5653 42.1814 48.9171V53.168C42.1813 53.5199 42.4888 53.8052 42.8681 53.8052C43.2474 53.8052 43.5548 53.52 43.5549 53.1681V48.9172C43.5549 48.5653 43.2474 48.2799 42.8681 48.28ZM39.8099 50.5712C39.4306 50.5711 39.1231 50.8564 39.1232 51.2084V56.3068C39.1232 56.6587 39.4306 56.9439 39.8099 56.9439C40.1891 56.9438 40.4966 56.6586 40.4966 56.3067V51.2083C40.4966 50.8564 40.1891 50.5711 39.8099 50.5712ZM46.2372 56.1346C46.2371 56.1346 46.2372 56.1346 46.2372 56.1346C44.1438 56.1346 42.3392 57.2823 41.5146 58.9364C41.036 58.7702 40.5176 58.6796 39.9766 58.6796C39.3063 58.6796 38.671 58.8188 38.1026 59.068C38.1026 59.068 38.1026 59.068 38.1026 59.068C37.3098 57.3434 35.4655 56.1346 33.317 56.1346C30.9096 56.1346 28.8844 57.6523 28.2919 59.7126C28.0781 59.696 27.862 59.6876 27.6436 59.6877C24.2053 59.6876 21.2938 61.7799 20.3073 64.667C20.161 65.0952 20.0571 65.541 20 65.9999L21.4465 65.9999C21.5178 65.5356 21.6483 65.089 21.8306 64.667C22.7543 62.5287 25.0089 61.0186 27.6436 61.0186C27.8029 61.0186 27.9609 61.0241 28.1172 61.035C28.5954 61.0682 29.0585 61.1512 29.5006 61.2785C29.4906 61.1735 29.4854 61.0671 29.4854 60.9596C29.4855 60.6024 29.5423 60.2575 29.6479 59.9322C30.1229 58.4697 31.5859 57.4047 33.317 57.4047C34.9985 57.4045 36.427 58.4096 36.9429 59.8072C37.0763 60.1686 37.1487 60.5564 37.1487 60.9596C37.1487 61.1633 37.1302 61.363 37.0948 61.5574C37.3757 60.9767 37.8546 60.4964 38.4517 60.1903C38.9038 59.9585 39.4236 59.8266 39.9766 59.8266C39.9766 59.8266 39.9766 59.8266 39.9766 59.8266C40.3848 59.8265 40.7751 59.8985 41.1332 60.0293C41.6323 60.2118 42.0692 60.5087 42.4064 60.8851C42.4167 60.4175 42.5244 59.972 42.7114 59.5655C43.2958 58.295 44.6544 57.4047 46.2371 57.4046C47.8544 57.4046 49.2376 58.3343 49.8 59.6489C49.7999 59.649 49.8001 59.6489 49.8 59.6489C49.9737 60.0545 50.0688 60.4968 50.0688 60.9596C50.0688 60.9647 50.0688 60.9699 50.0688 60.975C50.5004 60.8209 50.9551 60.7098 51.4268 60.6475C51.7176 60.6091 52.0148 60.5893 52.317 60.5893C55.1249 60.5894 57.5009 62.3044 58.2946 64.6671C58.4375 65.0924 58.5291 65.5389 58.5626 65.9999L60 66C59.973 65.543 59.8996 65.0973 59.7842 64.6671C58.9506 61.5604 55.9235 59.2583 52.317 59.2583C51.9161 59.2583 51.5222 59.2868 51.1379 59.3416C50.4212 57.4726 48.4975 56.1346 46.2372 56.1346Z" fill="white"/>
</svg>
