<svg width="80" height="80" viewBox="0 0 80 80" fill="none" xmlns="http://www.w3.org/2000/svg">
<rect width="80" height="80" rx="24" fill="#3B6BE9"/>
<path d="M47.5074 52.0599C47.1278 52.0599 46.6866 51.9354 46.3095 51.7474L44.1009 50.6219C43.7213 50.434 43.534 49.9335 43.7854 49.56C43.9752 49.184 44.4805 48.9985 44.8576 49.2475L47.0662 50.3729C47.3817 50.5609 47.7613 50.4975 48.0768 50.3095C48.3923 50.1215 48.518 49.748 48.4564 49.372L47.1944 42.0605C47.1303 41.8115 47.2585 41.56 47.4458 41.372L52.8094 36.1843C53.0608 35.9353 53.189 35.5593 53.0608 35.2468C52.9351 34.9343 52.6812 34.6853 52.3041 34.6218L44.8575 33.5599C44.6061 33.4964 44.3522 33.3719 44.2265 33.1229L40.8816 26.4363C40.6918 26.1238 40.3763 25.9359 40.0608 25.9359C39.6812 25.9359 39.3657 26.1238 39.24 26.4363L35.8951 33.1229C35.7694 33.3719 35.5796 33.4988 35.2641 33.5599L27.8175 34.6218C27.4379 34.6853 27.1864 34.9343 27.0607 35.2468C26.935 35.5593 27.0607 35.9353 27.3122 36.1843L32.6758 41.372C32.8656 41.56 32.9272 41.809 32.9272 42.0605L31.6652 49.372C31.6011 49.748 31.7293 50.0605 32.0448 50.3095C32.3603 50.4975 32.7399 50.5585 33.0554 50.3729L35.264 49.1865C35.6436 48.9985 36.1464 49.123 36.3362 49.499C36.526 49.8749 36.4003 50.3729 36.0207 50.5609L33.8121 51.7474C32.9297 52.1844 31.9191 52.1233 31.0983 51.5594C30.2774 50.9979 29.9003 50.0605 30.0876 49.0595L31.2855 42.1211L26.2374 37.2458C25.5423 36.5574 25.2909 35.5589 25.6064 34.6824C25.9219 33.745 26.6786 33.12 27.6893 32.932L34.6948 31.9311L37.8499 25.6176C38.2911 24.7437 39.176 24.1797 40.1225 24.1797C41.1332 24.1797 41.9515 24.7412 42.3952 25.6176L45.5503 31.9311L52.5558 32.932C53.5023 33.0565 54.3231 33.745 54.6387 34.6824C54.9542 35.6199 54.7027 36.6209 54.0076 37.2458L48.9595 42.1211L50.1574 49.0595C50.3472 49.997 49.906 50.9344 49.1468 51.5594C48.5823 51.8719 48.0127 52.0599 47.5074 52.0599Z" fill="white"/>
<path d="M40.1267 19.9372C39.6855 19.9372 39.3059 19.5613 39.3059 19.1243V14.813C39.3059 14.376 39.6855 14 40.1267 14C40.568 14 40.9476 14.376 40.9476 14.813V19.1243C40.9476 19.5637 40.568 19.9372 40.1267 19.9372Z" fill="white"/>
<path d="M50.1648 24.7513C50.0391 24.7513 49.9134 24.6879 49.7852 24.6268C49.4056 24.3778 49.2799 23.9384 49.4697 23.5649L51.6783 19.815C51.9297 19.4391 52.3734 19.3146 52.7505 19.5026C53.1301 19.7516 53.2558 20.191 53.066 20.5645L50.8574 24.3143C50.6676 24.6244 50.4163 24.7513 50.1648 24.7513Z" fill="white"/>
<path d="M58.1094 31.3132C57.7298 31.3132 57.4143 31.0642 57.3527 30.6882C57.227 30.2513 57.4784 29.8143 57.9196 29.6873L61.9571 28.6863C62.3983 28.5618 62.8395 28.8108 62.9677 29.2478C63.0934 29.6848 62.842 30.1218 62.4008 30.2488L58.2992 31.2497C58.2351 31.3132 58.1735 31.3132 58.1094 31.3132Z" fill="white"/>
<path d="M30.1577 24.6903C29.9063 24.6903 29.5908 24.5658 29.4626 24.3144L27.1308 20.628C26.8794 20.2521 27.0051 19.7541 27.3822 19.5026C27.7618 19.2536 28.2646 19.3781 28.5186 19.7516L30.7912 23.4379C31.0426 23.8139 30.9169 24.3119 30.5398 24.5634C30.4116 24.6269 30.2859 24.6903 30.1577 24.6903Z" fill="white"/>
<path d="M22.143 31.2486C22.0789 31.2486 22.0173 31.2486 21.8916 31.1852L17.6002 29.9352C17.159 29.8107 16.905 29.3737 17.0332 28.9343C17.159 28.4973 17.6002 28.2458 18.0439 28.3728L22.3353 29.6227C22.7765 29.7472 23.0304 30.1842 22.9022 30.6237C22.8381 30.9996 22.5226 31.2486 22.143 31.2486Z" fill="white"/>
<path d="M47.3254 65.9995C46.9458 65.9995 46.6302 65.7505 46.5045 65.3746L42.5286 44.5624C42.4645 44.1254 42.7184 43.6885 43.1596 43.625C43.6009 43.5615 44.0421 43.8129 44.1062 44.2499L48.1437 65.0621C48.2077 65.4991 47.9539 65.936 47.5126 65.9995H47.3254Z" fill="white"/>
<path d="M32.8139 65.9995H32.6882C32.247 65.9361 31.9931 65.4991 32.0572 65.0621L36.0947 44.2499C36.1588 43.813 36.6 43.5615 37.0412 43.625C37.4824 43.6884 37.7363 44.1254 37.6722 44.5624L33.6347 65.3746C33.5066 65.7481 33.1911 65.9995 32.8139 65.9995Z" fill="white"/>
<path d="M43.7243 48.374H36.4058C35.9646 48.374 35.585 47.998 35.585 47.561C35.585 47.124 35.9646 46.748 36.4058 46.748H43.7268C44.168 46.748 44.5477 47.124 44.5477 47.561C44.5452 48.0615 44.168 48.374 43.7243 48.374Z" fill="white"/>
<path d="M45.1152 54.8095H35.2063C34.7651 54.8095 34.3855 54.4336 34.3855 53.9966C34.3855 53.5596 34.7651 53.1836 35.2063 53.1836H45.0514C45.4926 53.1836 45.8722 53.5596 45.8722 53.9966C45.9339 54.436 45.5564 54.8095 45.1152 54.8095Z" fill="white"/>
<path d="M46.3788 61.1845H33.8841C33.4428 61.1845 33.0632 60.8086 33.0632 60.3716C33.0632 59.9346 33.4428 59.5586 33.8841 59.5586H46.3788C46.82 59.5586 47.1996 59.9345 47.1996 60.3716C47.1972 60.811 46.82 61.1845 46.3788 61.1845Z" fill="white"/>
</svg>
