<svg width="65" height="65" viewBox="0 0 65 65" fill="none" xmlns="http://www.w3.org/2000/svg">
<rect x="0.603027" y="0.812378" width="64" height="64" rx="24" fill="#F4F7FF"/>
<path d="M30.0088 19.4702C26.3239 20.1865 23.2783 22.3293 21.3328 25.2122C19.3875 28.0963 18.5428 31.7228 19.259 35.4075C19.9753 39.0924 22.1181 42.138 25.001 44.0835C27.8851 46.0288 31.5116 46.8735 35.1963 46.1573C38.8809 45.4411 41.9268 43.2982 43.8723 40.4153C45.8176 37.5312 46.6623 33.9047 45.9461 30.22C45.2298 26.5351 43.087 23.4895 40.2041 21.544C37.32 19.5987 33.6935 18.754 30.0088 19.4702ZM31.0436 28.4789C30.9695 28.0974 31.2182 27.7287 31.5997 27.6545C31.9812 27.5803 32.35 27.8291 32.4241 28.2106L33.1586 31.9893L35.0427 31.6231C35.4242 31.5489 35.793 31.7976 35.8671 32.1791C35.9413 32.5606 35.6926 32.9294 35.3111 33.0036L32.7367 33.504C32.3552 33.5781 31.9865 33.3294 31.9123 32.9479L31.0436 28.4789ZM21.7643 35.6369C21.384 35.7108 21.014 35.4623 20.9399 35.0808C20.8657 34.6993 21.1144 34.3305 21.496 34.2563L22.6558 34.0309C23.0373 33.9567 23.406 34.2054 23.4802 34.587C23.5544 34.9685 23.3056 35.3373 22.9241 35.4114L21.7643 35.6369ZM35.4266 43.6518C35.5005 44.0322 35.2521 44.4021 34.8705 44.4763C34.489 44.5504 34.1202 44.3017 34.0461 43.9202L33.8206 42.7604C33.7465 42.3789 33.9952 42.0101 34.3767 41.936C34.7582 41.8618 35.127 42.1105 35.2012 42.492L35.4266 43.6518ZM43.4416 29.9895C43.8219 29.9156 44.1919 30.1641 44.266 30.5456C44.3402 30.9271 44.0915 31.2959 43.7099 31.3701L42.5501 31.5955C42.1686 31.6697 41.7999 31.421 41.7257 31.0394C41.6515 30.6579 41.9002 30.2892 42.2818 30.215L43.4416 29.9895ZM29.7793 21.9746C29.7054 21.5942 29.9538 21.2243 30.3354 21.1501C30.7169 21.076 31.0856 21.3247 31.1598 21.7062L31.3852 22.866C31.4594 23.2475 31.2107 23.6163 30.8292 23.6905C30.4476 23.7646 30.0789 23.5159 30.0047 23.1344L29.7793 21.9746ZM20.1672 24.4253C22.314 21.2426 25.6749 18.8787 29.7403 18.0885C33.8066 17.2981 37.8071 18.2309 40.99 20.3777C44.1728 22.5245 46.5366 25.8854 47.3268 29.9508C48.1172 34.0171 47.1844 38.0175 45.0376 41.2005C42.8908 44.3832 39.5299 46.7471 35.4646 47.5373C31.3983 48.3277 27.3978 47.3949 24.2148 45.2481C21.0321 43.1013 18.6682 39.7404 17.878 35.675C17.0876 31.6087 18.0204 27.6082 20.1672 24.4253Z" fill="#3064EA"/>
</svg>
