<svg width="64" height="64" viewBox="0 0 64 64" fill="none" xmlns="http://www.w3.org/2000/svg">
<rect width="64" height="64" rx="24" fill="#F4F7FF"/>
<path d="M21.0389 31.9858C21.0389 36.4935 24.1 40.302 28.2679 41.4832L28.2665 22.488C24.0989 23.6694 21.0375 27.4776 21.0375 31.9854L21.0389 31.9858ZM27.1851 24.0385V39.9349C20.4798 36.7997 20.4827 27.1723 27.1851 24.0385ZM46.9905 45.6492L46.4949 41.6148C46.8384 41.0143 46.9863 40.2937 46.8595 39.5591L44.3476 24.9447V23.4379C44.3476 22.7997 43.9857 22.2481 43.4577 21.9506V18.9007C43.4661 17.8855 42.5312 17.1886 41.5469 17.3031C40.6585 17.3031 39.9361 18.0195 39.9361 18.9007V21.9506C39.4067 22.2467 39.0462 22.7983 39.0462 23.4379V25.3344L36.6019 39.5591C36.4695 40.3342 36.6413 41.0911 37.0271 41.7111L36.5427 45.6494C36.5005 45.9943 36.6075 46.3406 36.837 46.5976C37.4523 47.3279 38.7562 47.0123 38.942 46.0683L39.6531 43.0239C39.9938 42.8912 40.2431 42.5742 40.3022 42.2181L41.73 33.9076L43.1577 42.2181C43.2211 42.6036 43.5097 42.9373 43.8856 43.0561L44.5897 46.0697C44.9445 47.5402 47.1637 47.149 46.9905 45.6492ZM41.0584 18.6952C41.2091 18.2916 41.9384 18.2679 42.2201 18.5276C42.3186 18.6254 42.375 18.758 42.375 18.8991V21.7172H41.0162C41.0317 21.6893 40.9754 18.5751 41.057 18.6952L41.0584 18.6952ZM37.8889 45.8265C37.8523 45.9927 37.5918 45.9452 37.6157 45.7791L37.9959 42.6858C38.1719 42.7961 38.3606 42.8869 38.5591 42.9595L37.8889 45.8265ZM39.8785 38.2993L39.2364 42.0377C38.8154 41.9581 38.4296 41.7444 38.1494 41.4247C37.2933 40.5853 37.7847 39.1847 37.934 38.1764L39.7658 27.5171C40.0531 28.2558 40.6501 28.887 41.4935 28.8926C41.295 30.049 40.1023 36.9855 39.8771 38.2993H39.8785ZM40.9443 27.4583L40.4543 26.4794C40.3811 26.2923 40.1051 25.8887 40.1277 25.6792V23.4378C40.1277 23.0817 40.4459 22.7857 40.8021 22.7912H42.5932C42.9592 22.7912 43.2662 23.0761 43.2676 23.4378V25.6792C43.2845 25.8649 43.1155 26.1135 43.0423 26.2755L42.4496 27.4583C42.3369 27.6832 42.1004 27.8256 41.8413 27.8256C41.5019 27.8507 41.1034 27.8047 40.9443 27.4583ZM44.2251 42.0377L43.5887 38.3368L42.2792 30.7148L42.6227 28.7109C43.155 28.4874 43.4507 27.9162 43.676 27.4177L45.5177 38.1385C45.6571 39.1021 46.1513 40.5335 45.3727 41.3519C45.0868 41.708 44.6771 41.951 44.2237 42.0362L44.2251 42.0377ZM45.9119 45.8405C45.8683 45.9648 45.674 45.9606 45.6444 45.8265L44.9685 42.9358C45.1685 42.8576 45.3571 42.7612 45.5318 42.6453L45.9161 45.7776C45.919 45.8014 45.9161 45.8209 45.9105 45.8405L45.9119 45.8405ZM41.6964 26.2796C40.8318 26.2936 40.8417 24.9083 41.6964 24.9362C42.5567 24.9139 42.551 26.2992 41.6964 26.2796ZM32.2624 17.0056C10.5743 16.521 10.5841 47.455 32.2624 46.9663C32.8594 46.9663 33.3438 46.4858 33.3438 45.8937V18.0781C33.3438 17.486 32.8594 17.0056 32.2624 17.0056ZM32.2624 45.8937C32.0597 45.8923 30.9135 45.8979 30.7347 45.8868L30.8149 44.535C30.8318 44.2389 30.6052 43.9861 30.3066 43.968C30.0081 43.9484 29.7533 44.1761 29.735 44.4722L29.6547 45.8268C28.241 45.6927 26.8893 45.3492 25.6291 44.8297L26.205 43.5924C26.3303 43.3228 26.2121 43.0045 25.9403 42.8815C25.6685 42.7559 25.3475 42.8746 25.2222 43.1427L24.6463 44.3772C23.403 43.7474 22.2653 42.9402 21.2698 41.9864L22.2597 41.0451C22.4751 40.8399 22.4821 40.5005 22.2766 40.2868C22.0696 40.0732 21.7274 40.0662 21.512 40.2701L20.5207 41.2127C19.6013 40.1877 18.8339 39.0272 18.2495 37.7662L19.5266 37.2453C19.8026 37.1322 19.935 36.8193 19.8209 36.5456C19.7069 36.2719 19.3915 36.1407 19.1155 36.2538L17.8328 36.7761C17.3611 35.5066 17.0724 34.152 16.995 32.7416L18.3805 32.7193C18.679 32.7137 18.917 32.4707 18.9128 32.1747C18.9086 31.8786 18.6607 31.6426 18.3637 31.6468L16.981 31.6691C17.0134 30.2545 17.2584 28.8915 17.6878 27.6107L18.9832 28.0911C19.2564 28.1931 19.5746 28.0576 19.6788 27.7769C19.783 27.5004 19.6422 27.1904 19.362 27.087L18.0652 26.6052C18.6087 25.3247 19.3409 24.1418 20.2251 23.0889L21.2473 24.0008C21.4684 24.1991 21.8106 24.1809 22.0105 23.9603C22.2104 23.7396 22.1921 23.4017 21.9697 23.2034L20.9488 22.2942C21.9148 21.3097 23.0243 20.4648 24.2465 19.7973L24.8618 21.015C24.9955 21.2832 25.3264 21.3851 25.5869 21.2538C25.8544 21.1212 25.9615 20.7986 25.8277 20.5346L25.2124 19.3183C26.4571 18.7569 27.7976 18.3729 29.2027 18.1941L29.3266 19.5445C29.3519 19.8406 29.6209 20.0571 29.9137 20.0305C30.2108 20.004 30.4305 19.7428 30.4037 19.4482L30.2798 18.0964C30.7487 18.0685 31.7723 18.081 32.2553 18.0782V45.8938L32.2624 45.8937Z" fill="#3B6BE9"/>
</svg>
